AnekOdia-Thin.ufo
<glyph name="percent" format="2">
  <advance width="1357"/>
  <unicode hex="0025"/>
  <outline>
    <contour>
      <point x="294" y="0" type="line"/>
      <point x="332" y="0" type="line"/>
      <point x="1063" y="1278" type="line"/>
      <point x="1025" y="1278" type="line"/>
    </contour>
    <contour>
      <point x="1015" y="-18" type="curve" smooth="yes"/>
      <point x="1160" y="-18"/>
      <point x="1241" y="83"/>
      <point x="1241" y="238" type="curve"/>
      <point x="1241" y="340" type="line"/>
      <point x="1241" y="496"/>
      <point x="1161" y="596"/>
      <point x="1015" y="596" type="curve" smooth="yes"/>
      <point x="869" y="596"/>
      <point x="788" y="496"/>
      <point x="788" y="340" type="curve"/>
      <point x="788" y="238" type="line"/>
      <point x="788" y="83"/>
      <point x="868" y="-18"/>
    </contour>
    <contour>
      <point x="1015" y="14" type="curve" smooth="yes"/>
      <point x="892" y="14"/>
      <point x="823" y="95"/>
      <point x="823" y="237" type="curve" smooth="yes"/>
      <point x="823" y="341" type="line" smooth="yes"/>
      <point x="823" y="482"/>
      <point x="891" y="564"/>
      <point x="1015" y="564" type="curve" smooth="yes"/>
      <point x="1137" y="564"/>
      <point x="1206" y="482"/>
      <point x="1206" y="341" type="curve" smooth="yes"/>
      <point x="1206" y="237" type="line" smooth="yes"/>
      <point x="1206" y="95"/>
      <point x="1138" y="14"/>
    </contour>
    <contour>
      <point x="344" y="682" type="curve" smooth="yes"/>
      <point x="489" y="682"/>
      <point x="570" y="783"/>
      <point x="570" y="938" type="curve"/>
      <point x="570" y="1040" type="line"/>
      <point x="570" y="1196"/>
      <point x="490" y="1296"/>
      <point x="344" y="1296" type="curve" smooth="yes"/>
      <point x="197" y="1296"/>
      <point x="117" y="1196"/>
      <point x="117" y="1040" type="curve"/>
      <point x="117" y="938" type="line"/>
      <point x="117" y="783"/>
      <point x="197" y="682"/>
    </contour>
    <contour>
      <point x="344" y="714" type="curve" smooth="yes"/>
      <point x="221" y="714"/>
      <point x="152" y="795"/>
      <point x="152" y="937" type="curve" smooth="yes"/>
      <point x="152" y="1041" type="line" smooth="yes"/>
      <point x="152" y="1182"/>
      <point x="220" y="1264"/>
      <point x="344" y="1264" type="curve" smooth="yes"/>
      <point x="466" y="1264"/>
      <point x="535" y="1182"/>
      <point x="535" y="1041" type="curve" smooth="yes"/>
      <point x="535" y="937" type="line" smooth="yes"/>
      <point x="535" y="795"/>
      <point x="467" y="714"/>
    </contour>
  </outline>
</glyph>
<glyph name="l" format="2">
  <advance width="373"/>
  <unicode hex="006C"/>
  <anchor x="187" y="0" name="bottom"/>
  <anchor x="187" y="657" name="center"/>
  <anchor x="187" y="1329" name="top"/>
  <anchor x="404" y="1329" name="topright"/>
  <outline>
    <contour>
      <point x="168" y="0" type="line"/>
      <point x="205" y="0" type="line"/>
      <point x="205" y="1329" type="line"/>
      <point x="168" y="1329" type="line"/>
    </contour>
  </outline>
</glyph>
<glyph name="Candrabindu.or" format="2">
  <unicode hex="0B01"/>
  <anchor x="-302" y="1451" name="_top2"/>
  <outline>
    <contour>
      <point x="-301" y="1694" type="curve" smooth="yes"/>
      <point x="-332" y="1694"/>
      <point x="-346" y="1716"/>
      <point x="-346" y="1754" type="curve" smooth="yes"/>
      <point x="-346" y="1763" type="line" smooth="yes"/>
      <point x="-346" y="1800"/>
      <point x="-332" y="1822"/>
      <point x="-301" y="1822" type="curve" smooth="yes"/>
      <point x="-270" y="1822"/>
      <point x="-256" y="1800"/>
      <point x="-256" y="1763" type="curve" smooth="yes"/>
      <point x="-256" y="1754" type="line" smooth="yes"/>
      <point x="-256" y="1716"/>
      <point x="-270" y="1694"/>
    </contour>
    <contour>
      <point x="-65" y="1748" type="line"/>
      <point x="-30" y="1748" type="line"/>
      <point x="-30" y="1734"/>
      <point x="-30" y="1726"/>
      <point x="-30" y="1717" type="curve" smooth="yes"/>
      <point x="-30" y="1535"/>
      <point x="-124" y="1451"/>
      <point x="-302" y="1451" type="curve" smooth="yes"/>
      <point x="-477" y="1451"/>
      <point x="-571" y="1535"/>
      <point x="-571" y="1717" type="curve" smooth="yes"/>
      <point x="-571" y="1726"/>
      <point x="-571" y="1734"/>
      <point x="-571" y="1748" type="curve"/>
      <point x="-537" y="1748" type="line"/>
      <point x="-537" y="1719" type="line" smooth="yes"/>
      <point x="-537" y="1554"/>
      <point x="-454" y="1483"/>
      <point x="-302" y="1483" type="curve" smooth="yes"/>
      <point x="-146" y="1483"/>
      <point x="-65" y="1554"/>
      <point x="-65" y="1719" type="curve" smooth="yes"/>
    </contour>
  </outline>
</glyph>
<glyph name="Anusvara.or" format="2">
  <advance width="516"/>
  <unicode hex="0B02"/>
  <outline>
    <contour>
      <point x="258" y="818" type="curve" smooth="yes"/>
      <point x="403" y="818"/>
      <point x="491" y="899"/>
      <point x="491" y="1058" type="curve" smooth="yes"/>
      <point x="491" y="1101" type="line" smooth="yes"/>
      <point x="491" y="1261"/>
      <point x="403" y="1342"/>
      <point x="258" y="1342" type="curve" smooth="yes"/>
      <point x="113" y="1342"/>
      <point x="25" y="1261"/>
      <point x="25" y="1101" type="curve" smooth="yes"/>
      <point x="25" y="1058" type="line" smooth="yes"/>
      <point x="25" y="902"/>
      <point x="113" y="818"/>
    </contour>
    <contour>
      <point x="258" y="850" type="curve" smooth="yes"/>
      <point x="130" y="850"/>
      <point x="60" y="925"/>
      <point x="60" y="1058" type="curve" smooth="yes"/>
      <point x="60" y="1101" type="line" smooth="yes"/>
      <point x="60" y="1239"/>
      <point x="130" y="1310"/>
      <point x="258" y="1310" type="curve" smooth="yes"/>
      <point x="386" y="1310"/>
      <point x="456" y="1239"/>
      <point x="456" y="1101" type="curve" smooth="yes"/>
      <point x="456" y="1058" type="line" smooth="yes"/>
      <point x="456" y="922"/>
      <point x="386" y="850"/>
    </contour>
  </outline>
</glyph>
<glyph name="Visarga.or" format="2">
  <advance width="839"/>
  <unicode hex="0B03"/>
  <outline>
    <contour>
      <point x="422" y="-8" type="curve" smooth="yes"/>
      <point x="613" y="-8"/>
      <point x="719" y="90"/>
      <point x="719" y="273" type="curve" smooth="yes"/>
      <point x="719" y="302" type="line" smooth="yes"/>
      <point x="719" y="471"/>
      <point x="613" y="572"/>
      <point x="433" y="680" type="curve"/>
      <point x="427" y="685" type="line"/>
      <point x="255" y="785"/>
      <point x="157" y="873"/>
      <point x="157" y="1039" type="curve" smooth="yes"/>
      <point x="157" y="1066" type="line" smooth="yes"/>
      <point x="157" y="1231"/>
      <point x="248" y="1316"/>
      <point x="418" y="1316" type="curve" smooth="yes"/>
      <point x="586" y="1316"/>
      <point x="677" y="1230"/>
      <point x="677" y="1066" type="curve" smooth="yes"/>
      <point x="677" y="1039" type="line" smooth="yes"/>
      <point x="677" y="878"/>
      <point x="579" y="792"/>
      <point x="406" y="685" type="curve"/>
      <point x="395" y="678" type="line"/>
      <point x="223" y="570"/>
      <point x="124" y="474"/>
      <point x="124" y="302" type="curve" smooth="yes"/>
      <point x="124" y="273" type="line" smooth="yes"/>
      <point x="124" y="89"/>
      <point x="229" y="-8"/>
    </contour>
    <contour>
      <point x="422" y="25" type="curve" smooth="yes"/>
      <point x="251" y="25"/>
      <point x="161" y="109"/>
      <point x="161" y="272" type="curve" smooth="yes"/>
      <point x="161" y="301" type="line" smooth="yes"/>
      <point x="161" y="457"/>
      <point x="251" y="555"/>
      <point x="418" y="653" type="curve" smooth="yes"/>
      <point x="430" y="662" type="line"/>
      <point x="609" y="770"/>
      <point x="714" y="866"/>
      <point x="714" y="1038" type="curve" smooth="yes"/>
      <point x="714" y="1065" type="line" smooth="yes"/>
      <point x="714" y="1250"/>
      <point x="609" y="1349"/>
      <point x="418" y="1349" type="curve" smooth="yes"/>
      <point x="225" y="1349"/>
      <point x="120" y="1250"/>
      <point x="120" y="1065" type="curve" smooth="yes"/>
      <point x="120" y="1038" type="line" smooth="yes"/>
      <point x="120" y="861"/>
      <point x="223" y="766"/>
      <point x="400" y="664" type="curve"/>
      <point x="409" y="656" type="line"/>
      <point x="580" y="553"/>
      <point x="682" y="462"/>
      <point x="682" y="301" type="curve" smooth="yes"/>
      <point x="682" y="272" type="line" smooth="yes"/>
      <point x="682" y="110"/>
      <point x="590" y="25"/>
    </contour>
  </outline>
</glyph>
<glyph name="VowelA.or" format="2">
  <advance width="1498"/>
  <unicode hex="0B05"/>
  <anchor x="1276" y="1451" name="top2"/>
  <outline>
    <contour>
      <point x="1276" y="0" type="line"/>
      <point x="1312" y="0" type="line"/>
      <point x="1312" y="1336" type="line"/>
      <point x="1276" y="1336" type="line"/>
      <point x="1276" y="331" type="line"/>
      <point x="1279" y="330" type="line"/>
    </contour>
    <contour>
      <point x="668" y="-14" type="curve" smooth="yes"/>
      <point x="1033" y="-14"/>
      <point x="1240" y="134"/>
      <point x="1295" y="361" type="curve"/>
      <point x="1295" y="365" type="line"/>
      <point x="1280" y="371" type="line"/>
      <point x="1211" y="149"/>
      <point x="1007" y="21"/>
      <point x="670" y="21" type="curve" smooth="yes"/>
      <point x="334" y="21"/>
      <point x="180" y="124"/>
      <point x="180" y="305" type="curve" smooth="yes"/>
      <point x="180" y="324" type="line" smooth="yes"/>
      <point x="180" y="475"/>
      <point x="259" y="539"/>
      <point x="503" y="602" type="curve" smooth="yes"/>
      <point x="654" y="641" type="line" smooth="yes"/>
      <point x="933" y="713"/>
      <point x="1014" y="798"/>
      <point x="1014" y="1006" type="curve" smooth="yes"/>
      <point x="1014" y="1098" type="line" smooth="yes"/>
      <point x="1014" y="1264"/>
      <point x="942" y="1345"/>
      <point x="795" y="1345" type="curve" smooth="yes"/>
      <point x="663" y="1345"/>
      <point x="590" y="1270"/>
      <point x="580" y="1151" type="curve"/>
      <point x="585" y="1151" type="line"/>
      <point x="575" y="1270"/>
      <point x="502" y="1345"/>
      <point x="378" y="1345" type="curve" smooth="yes"/>
      <point x="231" y="1345"/>
      <point x="157" y="1261"/>
      <point x="157" y="1097" type="curve" smooth="yes"/>
      <point x="157" y="1002" type="line" smooth="yes"/>
      <point x="157" y="923"/>
      <point x="173" y="859"/>
      <point x="207" y="794" type="curve"/>
      <point x="246" y="788" type="line"/>
      <point x="211" y="860"/>
      <point x="192" y="923"/>
      <point x="192" y="1001" type="curve" smooth="yes"/>
      <point x="192" y="1096" type="line" smooth="yes"/>
      <point x="192" y="1237"/>
      <point x="250" y="1313"/>
      <point x="378" y="1313" type="curve" smooth="yes"/>
      <point x="495" y="1313"/>
      <point x="565" y="1233"/>
      <point x="566" y="1104" type="curve" smooth="yes"/>
      <point x="567" y="866" type="line"/>
      <point x="599" y="866" type="line"/>
      <point x="600" y="1104" type="line" smooth="yes"/>
      <point x="601" y="1234"/>
      <point x="671" y="1313"/>
      <point x="792" y="1313" type="curve" smooth="yes"/>
      <point x="921" y="1313"/>
      <point x="979" y="1242"/>
      <point x="979" y="1098" type="curve" smooth="yes"/>
      <point x="979" y="1004" type="line" smooth="yes"/>
      <point x="979" y="813"/>
      <point x="904" y="741"/>
      <point x="642" y="673" type="curve" smooth="yes"/>
      <point x="492" y="634" type="line" smooth="yes"/>
      <point x="234" y="567"/>
      <point x="142" y="489"/>
      <point x="142" y="324" type="curve" smooth="yes"/>
      <point x="142" y="303" type="line" smooth="yes"/>
      <point x="142" y="102"/>
      <point x="309" y="-14"/>
    </contour>
  </outline>
</glyph>
<glyph name="VowelI.or" format="2">
  <advance width="1614"/>
  <unicode hex="0B07"/>
  <anchor x="1224" y="1451" name="top2"/>
  <outline>
    <contour>
      <point x="1670" y="-124" type="line"/>
      <point x="1670" y="-86" type="line"/>
      <point x="1354" y="36" type="line"/>
      <point x="1362" y="19" type="line"/>
      <point x="1429" y="115"/>
      <point x="1467" y="243"/>
      <point x="1467" y="396" type="curve" smooth="yes"/>
      <point x="1467" y="765" type="line" smooth="yes"/>
      <point x="1467" y="1157"/>
      <point x="1234" y="1366"/>
      <point x="778" y="1366" type="curve" smooth="yes"/>
      <point x="344" y="1366"/>
      <point x="120" y="1192"/>
      <point x="120" y="859" type="curve" smooth="yes"/>
      <point x="120" y="799" type="line" smooth="yes"/>
      <point x="120" y="630"/>
      <point x="178" y="528"/>
      <point x="291" y="471" type="curve"/>
      <point x="297" y="507" type="line"/>
      <point x="206" y="559"/>
      <point x="157" y="648"/>
      <point x="157" y="798" type="curve" smooth="yes"/>
      <point x="157" y="859" type="line" smooth="yes"/>
      <point x="157" y="1168"/>
      <point x="367" y="1333"/>
      <point x="776" y="1333" type="curve" smooth="yes"/>
      <point x="1210" y="1333"/>
      <point x="1431" y="1136"/>
      <point x="1431" y="765" type="curve" smooth="yes"/>
      <point x="1431" y="396" type="line" smooth="yes"/>
      <point x="1431" y="257"/>
      <point x="1398" y="125"/>
      <point x="1320" y="16" type="curve"/>
    </contour>
    <contour>
      <point x="502" y="15" type="curve" smooth="yes"/>
      <point x="372" y="15"/>
      <point x="308" y="97"/>
      <point x="308" y="250" type="curve" smooth="yes"/>
      <point x="308" y="453" type="line" smooth="yes"/>
      <point x="308" y="609"/>
      <point x="372" y="692"/>
      <point x="502" y="692" type="curve" smooth="yes"/>
      <point x="630" y="692"/>
      <point x="698" y="607"/>
      <point x="698" y="450" type="curve" smooth="yes"/>
      <point x="698" y="257" type="line" smooth="yes"/>
      <point x="698" y="98"/>
      <point x="630" y="15"/>
    </contour>
    <contour>
      <point x="500" y="-17" type="curve" smooth="yes"/>
      <point x="641" y="-17"/>
      <point x="718" y="66"/>
      <point x="723" y="230" type="curve"/>
      <point x="707" y="230" type="line"/>
      <point x="713" y="67"/>
      <point x="789" y="-17"/>
      <point x="934" y="-17" type="curve" smooth="yes"/>
      <point x="1083" y="-17"/>
      <point x="1159" y="72"/>
      <point x="1159" y="249" type="curve" smooth="yes"/>
      <point x="1159" y="458" type="line" smooth="yes"/>
      <point x="1159" y="632"/>
      <point x="1081" y="724"/>
      <point x="932" y="724" type="curve" smooth="yes"/>
      <point x="788" y="724"/>
      <point x="713" y="641"/>
      <point x="707" y="477" type="curve"/>
      <point x="723" y="477" type="line"/>
      <point x="718" y="640"/>
      <point x="641" y="724"/>
      <point x="501" y="724" type="curve" smooth="yes"/>
      <point x="369" y="724"/>
      <point x="291" y="649"/>
      <point x="275" y="501" type="curve"/>
      <point x="274" y="496" type="line"/>
      <point x="272" y="484"/>
      <point x="272" y="468"/>
      <point x="272" y="454" type="curve" smooth="yes"/>
      <point x="272" y="249" type="line" smooth="yes"/>
      <point x="272" y="73"/>
      <point x="348" y="-17"/>
    </contour>
    <contour>
      <point x="930" y="15" type="curve" smooth="yes"/>
      <point x="800" y="15"/>
      <point x="733" y="99"/>
      <point x="733" y="257" type="curve" smooth="yes"/>
      <point x="733" y="450" type="line" smooth="yes"/>
      <point x="733" y="607"/>
      <point x="799" y="692"/>
      <point x="928" y="692" type="curve" smooth="yes"/>
      <point x="1062" y="692"/>
      <point x="1123" y="610"/>
      <point x="1123" y="458" type="curve" smooth="yes"/>
      <point x="1123" y="249" type="line" smooth="yes"/>
      <point x="1123" y="96"/>
      <point x="1062" y="15"/>
    </contour>
  </outline>
</glyph>
<glyph name="VowelIi.or" format="2">
  <advance width="1589"/>
  <unicode hex="0B08"/>
  <anchor x="1226" y="1451" name="top2"/>
  <outline>
    <contour>
      <point x="1643" y="-124" type="line"/>
      <point x="1643" y="-86" type="line"/>
      <point x="1327" y="36" type="line"/>
      <point x="1335" y="19" type="line"/>
      <point x="1402" y="115"/>
      <point x="1440" y="243"/>
      <point x="1440" y="396" type="curve" smooth="yes"/>
      <point x="1440" y="770" type="line" smooth="yes"/>
      <point x="1440" y="1160"/>
      <point x="1236" y="1366"/>
      <point x="833" y="1366" type="curve" smooth="yes"/>
      <point x="506" y="1366"/>
      <point x="344" y="1239"/>
      <point x="344" y="1038" type="curve" smooth="yes"/>
      <point x="344" y="1018"/>
      <point x="347" y="1001"/>
      <point x="351" y="991" type="curve"/>
      <point x="387" y="994" type="line"/>
      <point x="383" y="1004"/>
      <point x="381" y="1019"/>
      <point x="381" y="1038" type="curve" smooth="yes"/>
      <point x="381" y="1223"/>
      <point x="530" y="1333"/>
      <point x="833" y="1333" type="curve" smooth="yes"/>
      <point x="1212" y="1333"/>
      <point x="1404" y="1139"/>
      <point x="1404" y="770" type="curve" smooth="yes"/>
      <point x="1404" y="396" type="line" smooth="yes"/>
      <point x="1404" y="257"/>
      <point x="1371" y="125"/>
      <point x="1293" y="16" type="curve"/>
    </contour>
    <contour>
      <point x="475" y="15" type="curve" smooth="yes"/>
      <point x="345" y="15"/>
      <point x="281" y="97"/>
      <point x="281" y="250" type="curve" smooth="yes"/>
      <point x="281" y="453" type="line" smooth="yes"/>
      <point x="281" y="609"/>
      <point x="345" y="692"/>
      <point x="475" y="692" type="curve" smooth="yes"/>
      <point x="603" y="692"/>
      <point x="671" y="607"/>
      <point x="671" y="450" type="curve" smooth="yes"/>
      <point x="671" y="257" type="line" smooth="yes"/>
      <point x="671" y="98"/>
      <point x="603" y="15"/>
    </contour>
    <contour>
      <point x="473" y="-17" type="curve" smooth="yes"/>
      <point x="614" y="-17"/>
      <point x="691" y="66"/>
      <point x="696" y="230" type="curve"/>
      <point x="680" y="230" type="line"/>
      <point x="686" y="67"/>
      <point x="762" y="-17"/>
      <point x="907" y="-17" type="curve" smooth="yes"/>
      <point x="1056" y="-17"/>
      <point x="1132" y="72"/>
      <point x="1132" y="249" type="curve" smooth="yes"/>
      <point x="1132" y="458" type="line" smooth="yes"/>
      <point x="1132" y="632"/>
      <point x="1054" y="724"/>
      <point x="905" y="724" type="curve" smooth="yes"/>
      <point x="761" y="724"/>
      <point x="686" y="641"/>
      <point x="680" y="477" type="curve"/>
      <point x="696" y="477" type="line"/>
      <point x="691" y="640"/>
      <point x="614" y="724"/>
      <point x="474" y="724" type="curve" smooth="yes"/>
      <point x="342" y="724"/>
      <point x="264" y="649"/>
      <point x="248" y="501" type="curve"/>
      <point x="247" y="498" type="line"/>
      <point x="245" y="481"/>
      <point x="245" y="471"/>
      <point x="245" y="452" type="curve" smooth="yes"/>
      <point x="245" y="249" type="line" smooth="yes"/>
      <point x="245" y="73"/>
      <point x="321" y="-17"/>
    </contour>
    <contour>
      <point x="254" y="489" type="curve"/>
      <point x="264" y="522" type="line"/>
      <point x="174" y="558"/>
      <point x="126" y="626"/>
      <point x="126" y="731" type="curve" smooth="yes"/>
      <point x="126" y="744" type="line" smooth="yes"/>
      <point x="126" y="903"/>
      <point x="236" y="984"/>
      <point x="422" y="984" type="curve" smooth="yes"/>
      <point x="428" y="984" type="line" smooth="yes"/>
      <point x="521" y="984"/>
      <point x="595" y="967"/>
      <point x="659" y="945" type="curve"/>
      <point x="654" y="978" type="line"/>
      <point x="601" y="998"/>
      <point x="520" y="1017"/>
      <point x="428" y="1017" type="curve" smooth="yes"/>
      <point x="422" y="1017" type="line" smooth="yes"/>
      <point x="214" y="1017"/>
      <point x="90" y="918"/>
      <point x="90" y="744" type="curve" smooth="yes"/>
      <point x="90" y="731" type="line" smooth="yes"/>
      <point x="90" y="608"/>
      <point x="151" y="530"/>
    </contour>
    <contour>
      <point x="903" y="15" type="curve" smooth="yes"/>
      <point x="773" y="15"/>
      <point x="706" y="99"/>
      <point x="706" y="257" type="curve" smooth="yes"/>
      <point x="706" y="450" type="line" smooth="yes"/>
      <point x="706" y="607"/>
      <point x="772" y="692"/>
      <point x="901" y="692" type="curve" smooth="yes"/>
      <point x="1035" y="692"/>
      <point x="1096" y="610"/>
      <point x="1096" y="458" type="curve" smooth="yes"/>
      <point x="1096" y="249" type="line" smooth="yes"/>
      <point x="1096" y="96"/>
      <point x="1035" y="15"/>
    </contour>
  </outline>
</glyph>
<glyph name="VowelU.or" format="2">
  <advance width="1557"/>
  <unicode hex="0B09"/>
  <anchor x="1177" y="1451" name="top2"/>
  <outline>
    <contour>
      <point x="1601" y="-124" type="line"/>
      <point x="1601" y="-85" type="line"/>
      <point x="1265" y="40" type="line"/>
      <point x="1276" y="24" type="line"/>
      <point x="1360" y="126"/>
      <point x="1408" y="252"/>
      <point x="1408" y="410" type="curve" smooth="yes"/>
      <point x="1408" y="764" type="line" smooth="yes"/>
      <point x="1408" y="1159"/>
      <point x="1174" y="1366"/>
      <point x="746" y="1366" type="curve" smooth="yes"/>
      <point x="335" y="1366"/>
      <point x="120" y="1182"/>
      <point x="120" y="869" type="curve" smooth="yes"/>
      <point x="120" y="798" type="line" smooth="yes"/>
      <point x="120" y="615"/>
      <point x="202" y="495"/>
      <point x="372" y="439" type="curve"/>
      <point x="379" y="475" type="line"/>
      <point x="228" y="525"/>
      <point x="157" y="634"/>
      <point x="157" y="798" type="curve" smooth="yes"/>
      <point x="157" y="869" type="line" smooth="yes"/>
      <point x="157" y="1158"/>
      <point x="360" y="1333"/>
      <point x="745" y="1333" type="curve" smooth="yes"/>
      <point x="1152" y="1333"/>
      <point x="1372" y="1138"/>
      <point x="1372" y="764" type="curve" smooth="yes"/>
      <point x="1372" y="410" type="line" smooth="yes"/>
      <point x="1372" y="263"/>
      <point x="1326" y="130"/>
      <point x="1231" y="19" type="curve"/>
    </contour>
    <contour>
      <point x="706" y="-16" type="curve" smooth="yes"/>
      <point x="917" y="-16"/>
      <point x="1033" y="100"/>
      <point x="1033" y="296" type="curve" smooth="yes"/>
      <point x="1033" y="365" type="line" smooth="yes"/>
      <point x="1033" y="488"/>
      <point x="988" y="556"/>
      <point x="913" y="600" type="curve"/>
      <point x="913" y="606" type="line"/>
      <point x="893" y="576" type="line"/>
      <point x="959" y="537"/>
      <point x="997" y="472"/>
      <point x="997" y="365" type="curve" smooth="yes"/>
      <point x="997" y="296" type="line" smooth="yes"/>
      <point x="997" y="125"/>
      <point x="893" y="17"/>
      <point x="706" y="17" type="curve" smooth="yes"/>
      <point x="499" y="17"/>
      <point x="399" y="128"/>
      <point x="399" y="317" type="curve" smooth="yes"/>
      <point x="399" y="432" type="line" smooth="yes"/>
      <point x="399" y="577"/>
      <point x="453" y="678"/>
      <point x="570" y="725" type="curve"/>
      <point x="570" y="761" type="line"/>
      <point x="427" y="706"/>
      <point x="364" y="596"/>
      <point x="362" y="432" type="curve"/>
      <point x="362" y="424" type="line"/>
      <point x="362" y="420"/>
      <point x="362" y="415"/>
      <point x="362" y="412" type="curve"/>
      <point x="362" y="319" type="line" smooth="yes"/>
      <point x="362" y="105"/>
      <point x="475" y="-16"/>
    </contour>
    <contour>
      <point x="695" y="400" type="line"/>
      <point x="905" y="575" type="line"/>
      <point x="917" y="586" type="line"/>
      <point x="1104" y="739" type="line"/>
      <point x="1104" y="785" type="line"/>
      <point x="695" y="446" type="line"/>
    </contour>
  </outline>
</glyph>
<glyph name="VowelUu.or" format="2">
  <advance width="1570"/>
  <unicode hex="0B0A"/>
  <anchor x="1203" y="1451" name="top2"/>
  <outline>
    <contour>
      <point x="1527" y="-124" type="line"/>
      <point x="1527" y="-85" type="line"/>
      <point x="1207" y="40" type="line"/>
      <point x="1186" y="29" type="line"/>
      <point x="1227" y="31" type="line"/>
      <point x="1396" y="31"/>
      <point x="1475" y="127"/>
      <point x="1475" y="278" type="curve" smooth="yes"/>
      <point x="1475" y="312" type="line" smooth="yes"/>
      <point x="1475" y="469"/>
      <point x="1403" y="552"/>
      <point x="1258" y="555" type="curve"/>
      <point x="1242" y="543" type="line"/>
      <point x="1353" y="561"/>
      <point x="1408" y="658"/>
      <point x="1408" y="796" type="curve" smooth="yes"/>
      <point x="1408" y="877" type="line" smooth="yes"/>
      <point x="1408" y="1193"/>
      <point x="1183" y="1366"/>
      <point x="761" y="1366" type="curve" smooth="yes"/>
      <point x="341" y="1366"/>
      <point x="120" y="1194"/>
      <point x="120" y="882" type="curve" smooth="yes"/>
      <point x="120" y="822" type="line" smooth="yes"/>
      <point x="120" y="633"/>
      <point x="196" y="508"/>
      <point x="354" y="442" type="curve"/>
      <point x="360" y="478" type="line"/>
      <point x="220" y="540"/>
      <point x="157" y="653"/>
      <point x="157" y="822" type="curve" smooth="yes"/>
      <point x="157" y="882" type="line" smooth="yes"/>
      <point x="157" y="1174"/>
      <point x="364" y="1333"/>
      <point x="760" y="1333" type="curve" smooth="yes"/>
      <point x="1162" y="1333"/>
      <point x="1372" y="1173"/>
      <point x="1372" y="877" type="curve" smooth="yes"/>
      <point x="1372" y="795" type="line" smooth="yes"/>
      <point x="1372" y="664"/>
      <point x="1319" y="571"/>
      <point x="1202" y="561" type="curve" smooth="yes"/>
      <point x="1179" y="559" type="line"/>
      <point x="1179" y="532" type="line"/>
      <point x="1226" y="531" type="line" smooth="yes"/>
      <point x="1377" y="528"/>
      <point x="1440" y="453"/>
      <point x="1440" y="312" type="curve" smooth="yes"/>
      <point x="1440" y="279" type="line" smooth="yes"/>
      <point x="1440" y="142"/>
      <point x="1373" y="60"/>
      <point x="1212" y="57" type="curve" smooth="yes"/>
      <point x="1162" y="56" type="line"/>
      <point x="1162" y="29" type="line"/>
    </contour>
    <contour>
      <point x="677" y="-16" type="curve" smooth="yes"/>
      <point x="888" y="-16"/>
      <point x="1004" y="100"/>
      <point x="1004" y="296" type="curve" smooth="yes"/>
      <point x="1004" y="365" type="line" smooth="yes"/>
      <point x="1004" y="488"/>
      <point x="959" y="556"/>
      <point x="884" y="600" type="curve"/>
      <point x="884" y="606" type="line"/>
      <point x="864" y="576" type="line"/>
      <point x="930" y="537"/>
      <point x="968" y="472"/>
      <point x="968" y="365" type="curve" smooth="yes"/>
      <point x="968" y="296" type="line" smooth="yes"/>
      <point x="968" y="125"/>
      <point x="864" y="17"/>
      <point x="677" y="17" type="curve" smooth="yes"/>
      <point x="470" y="17"/>
      <point x="370" y="128"/>
      <point x="370" y="317" type="curve" smooth="yes"/>
      <point x="370" y="432" type="line" smooth="yes"/>
      <point x="370" y="577"/>
      <point x="424" y="678"/>
      <point x="541" y="725" type="curve"/>
      <point x="541" y="761" type="line"/>
      <point x="398" y="706"/>
      <point x="335" y="596"/>
      <point x="333" y="432" type="curve"/>
      <point x="333" y="424" type="line"/>
      <point x="333" y="420"/>
      <point x="333" y="415"/>
      <point x="333" y="412" type="curve"/>
      <point x="333" y="319" type="line" smooth="yes"/>
      <point x="333" y="105"/>
      <point x="446" y="-16"/>
    </contour>
    <contour>
      <point x="666" y="400" type="line"/>
      <point x="876" y="575" type="line"/>
      <point x="888" y="586" type="line"/>
      <point x="1075" y="739" type="line"/>
      <point x="1075" y="786" type="line"/>
      <point x="666" y="446" type="line"/>
    </contour>
  </outline>
</glyph>
<glyph name="VowelVocalicR.or" format="2">
  <advance width="1544"/>
  <unicode hex="0B0B"/>
  <anchor x="749" y="1713" name="top1"/>
  <anchor x="1181" y="1451" name="top2"/>
  <outline>
    <contour>
      <point x="1501" y="-124" type="line"/>
      <point x="1501" y="-85" type="line"/>
      <point x="1181" y="40" type="line"/>
      <point x="1160" y="29" type="line"/>
      <point x="1201" y="31" type="line"/>
      <point x="1370" y="31"/>
      <point x="1449" y="127"/>
      <point x="1449" y="278" type="curve" smooth="yes"/>
      <point x="1449" y="312" type="line" smooth="yes"/>
      <point x="1449" y="469"/>
      <point x="1377" y="552"/>
      <point x="1232" y="555" type="curve"/>
      <point x="1216" y="543" type="line"/>
      <point x="1327" y="561"/>
      <point x="1382" y="658"/>
      <point x="1382" y="796" type="curve" smooth="yes"/>
      <point x="1382" y="877" type="line" smooth="yes"/>
      <point x="1382" y="1193"/>
      <point x="1161" y="1366"/>
      <point x="748" y="1366" type="curve" smooth="yes"/>
      <point x="337" y="1366"/>
      <point x="120" y="1194"/>
      <point x="120" y="882" type="curve" smooth="yes"/>
      <point x="120" y="825" type="line" smooth="yes"/>
      <point x="120" y="636"/>
      <point x="202" y="511"/>
      <point x="365" y="442" type="curve"/>
      <point x="371" y="478" type="line"/>
      <point x="226" y="543"/>
      <point x="157" y="656"/>
      <point x="157" y="825" type="curve" smooth="yes"/>
      <point x="157" y="882" type="line" smooth="yes"/>
      <point x="157" y="1174"/>
      <point x="360" y="1333"/>
      <point x="747" y="1333" type="curve" smooth="yes"/>
      <point x="1140" y="1333"/>
      <point x="1346" y="1173"/>
      <point x="1346" y="877" type="curve" smooth="yes"/>
      <point x="1346" y="795" type="line" smooth="yes"/>
      <point x="1346" y="664"/>
      <point x="1293" y="571"/>
      <point x="1176" y="561" type="curve" smooth="yes"/>
      <point x="1153" y="559" type="line"/>
      <point x="1153" y="532" type="line"/>
      <point x="1200" y="531" type="line" smooth="yes"/>
      <point x="1351" y="528"/>
      <point x="1414" y="453"/>
      <point x="1414" y="312" type="curve" smooth="yes"/>
      <point x="1414" y="279" type="line" smooth="yes"/>
      <point x="1414" y="142"/>
      <point x="1347" y="60"/>
      <point x="1186" y="57" type="curve" smooth="yes"/>
      <point x="1136" y="56" type="line"/>
      <point x="1136" y="29" type="line"/>
    </contour>
    <contour>
      <point x="668" y="-16" type="curve" smooth="yes"/>
      <point x="871" y="-16"/>
      <point x="979" y="96"/>
      <point x="979" y="310" type="curve" smooth="yes"/>
      <point x="979" y="410" type="line" smooth="yes"/>
      <point x="979" y="624"/>
      <point x="871" y="736"/>
      <point x="668" y="736" type="curve" smooth="yes"/>
      <point x="465" y="736"/>
      <point x="362" y="622"/>
      <point x="356" y="416" type="curve"/>
      <point x="356" y="406" type="line"/>
      <point x="356" y="402"/>
      <point x="356" y="398"/>
      <point x="356" y="394" type="curve"/>
      <point x="356" y="311" type="line" smooth="yes"/>
      <point x="356" y="96"/>
      <point x="465" y="-16"/>
    </contour>
    <contour>
      <point x="668" y="17" type="curve" smooth="yes"/>
      <point x="486" y="17"/>
      <point x="393" y="120"/>
      <point x="393" y="310" type="curve" smooth="yes"/>
      <point x="393" y="410" type="line" smooth="yes"/>
      <point x="393" y="601"/>
      <point x="487" y="703"/>
      <point x="668" y="703" type="curve" smooth="yes"/>
      <point x="847" y="703"/>
      <point x="943" y="601"/>
      <point x="943" y="410" type="curve" smooth="yes"/>
      <point x="943" y="310" type="line" smooth="yes"/>
      <point x="943" y="120"/>
      <point x="847" y="17"/>
    </contour>
  </outline>
</glyph>
<glyph name="VowelE.or" format="2">
  <advance width="1261"/>
  <unicode hex="0B0F"/>
  <anchor x="1039" y="1451" name="top2"/>
  <outline>
    <contour>
      <point x="1001" y="0" type="line"/>
      <point x="1075" y="0" type="line"/>
      <point x="1075" y="1336" type="line"/>
      <point x="1002" y="1336" type="line"/>
      <point x="554" y="811" type="line"/>
      <point x="601" y="811" type="line"/>
      <point x="1021" y="1305" type="line"/>
      <point x="1040" y="1305" type="line"/>
      <point x="1040" y="1195"/>
      <point x="1039" y="1084"/>
      <point x="1039" y="974" type="curve" smooth="yes"/>
      <point x="1039" y="33" type="line"/>
      <point x="1018" y="33" type="line"/>
      <point x="16" y="990" type="line"/>
      <point x="16" y="939" type="line"/>
    </contour>
  </outline>
</glyph>
<glyph name="VowelAi.or" format="2">
  <advance width="1663"/>
  <unicode hex="0B10"/>
  <anchor x="1539" y="1526" name="top2"/>
  <outline>
    <contour>
      <point x="1441" y="0" type="line"/>
      <point x="1477" y="0" type="line"/>
      <point x="1477" y="1337" type="line" smooth="yes"/>
      <point x="1477" y="1546"/>
      <point x="1396" y="1636"/>
      <point x="1171" y="1637" type="curve" smooth="yes"/>
      <point x="818" y="1639" type="line" smooth="yes"/>
      <point x="649" y="1640"/>
      <point x="564" y="1682"/>
      <point x="564" y="1807" type="curve" smooth="yes"/>
      <point x="564" y="1829" type="line"/>
      <point x="529" y="1829" type="line"/>
      <point x="529" y="1807" type="line" smooth="yes"/>
      <point x="529" y="1660"/>
      <point x="629" y="1608"/>
      <point x="818" y="1606" type="curve" smooth="yes"/>
      <point x="1171" y="1603" type="line" smooth="yes"/>
      <point x="1376" y="1601"/>
      <point x="1441" y="1526"/>
      <point x="1441" y="1337" type="curve" smooth="yes"/>
    </contour>
    <contour>
      <point x="1057" y="726" type="line"/>
      <point x="1459" y="726" type="line"/>
      <point x="1459" y="759" type="line"/>
      <point x="1057" y="759" type="line"/>
    </contour>
    <component base="VowelE.or"/>
  </outline>
</glyph>
<glyph name="VowelO.or" format="2">
  <advance width="1327"/>
  <unicode hex="0B13"/>
  <anchor x="1123" y="1451" name="top2"/>
  <outline>
    <contour>
      <point x="713" y="-16" type="curve" smooth="yes"/>
      <point x="1058" y="-16"/>
      <point x="1213" y="137"/>
      <point x="1213" y="351" type="curve" smooth="yes"/>
      <point x="1213" y="368" type="line" smooth="yes"/>
      <point x="1213" y="509"/>
      <point x="1150" y="609"/>
      <point x="1038" y="663" type="curve"/>
      <point x="1005" y="646" type="line"/>
      <point x="1119" y="590"/>
      <point x="1177" y="500"/>
      <point x="1177" y="368" type="curve" smooth="yes"/>
      <point x="1177" y="351" type="line" smooth="yes"/>
      <point x="1177" y="159"/>
      <point x="1040" y="19"/>
      <point x="713" y="19" type="curve" smooth="yes"/>
      <point x="360" y="19"/>
      <point x="180" y="213"/>
      <point x="180" y="546" type="curve" smooth="yes"/>
      <point x="180" y="804" type="line" smooth="yes"/>
      <point x="180" y="1029"/>
      <point x="224" y="1175"/>
      <point x="329" y="1336" type="curve"/>
      <point x="288" y="1336" type="line"/>
      <point x="189" y="1176"/>
      <point x="143" y="1033"/>
      <point x="143" y="802" type="curve" smooth="yes"/>
      <point x="143" y="546" type="line" smooth="yes"/>
      <point x="143" y="189"/>
      <point x="335" y="-16"/>
    </contour>
    <contour>
      <point x="760" y="604" type="line"/>
      <point x="814" y="604" type="line" smooth="yes"/>
      <point x="897" y="604"/>
      <point x="968" y="618"/>
      <point x="1026" y="646" type="curve"/>
      <point x="1039" y="653" type="line"/>
      <point x="1133" y="705"/>
      <point x="1188" y="799"/>
      <point x="1188" y="936" type="curve" smooth="yes"/>
      <point x="1188" y="1037" type="line" smooth="yes"/>
      <point x="1188" y="1245"/>
      <point x="1078" y="1357"/>
      <point x="872" y="1357" type="curve" smooth="yes"/>
      <point x="668" y="1357"/>
      <point x="561" y="1237"/>
      <point x="561" y="1051" type="curve" smooth="yes"/>
      <point x="561" y="1021" type="line" smooth="yes"/>
      <point x="561" y="961"/>
      <point x="572" y="916"/>
      <point x="589" y="868" type="curve"/>
      <point x="626" y="861" type="line"/>
      <point x="606" y="915"/>
      <point x="595" y="961"/>
      <point x="595" y="1021" type="curve" smooth="yes"/>
      <point x="595" y="1051" type="line" smooth="yes"/>
      <point x="595" y="1221"/>
      <point x="689" y="1324"/>
      <point x="872" y="1324" type="curve" smooth="yes"/>
      <point x="1055" y="1324"/>
      <point x="1152" y="1226"/>
      <point x="1152" y="1037" type="curve" smooth="yes"/>
      <point x="1152" y="934" type="line" smooth="yes"/>
      <point x="1152" y="731"/>
      <point x="1026" y="636"/>
      <point x="815" y="636" type="curve" smooth="yes"/>
      <point x="760" y="636" type="line"/>
    </contour>
  </outline>
</glyph>
<glyph name="VowelAu.or" format="2">
  <advance width="1737"/>
  <unicode hex="0B14"/>
  <anchor x="1614" y="1526" name="top2"/>
  <outline>
    <contour>
      <point x="1515" y="0" type="line"/>
      <point x="1551" y="0" type="line"/>
      <point x="1551" y="1337" type="line" smooth="yes"/>
      <point x="1551" y="1546"/>
      <point x="1470" y="1636"/>
      <point x="1245" y="1637" type="curve" smooth="yes"/>
      <point x="892" y="1639" type="line" smooth="yes"/>
      <point x="723" y="1640"/>
      <point x="638" y="1682"/>
      <point x="638" y="1807" type="curve" smooth="yes"/>
      <point x="638" y="1829" type="line"/>
      <point x="603" y="1829" type="line"/>
      <point x="603" y="1807" type="line" smooth="yes"/>
      <point x="603" y="1660"/>
      <point x="703" y="1608"/>
      <point x="892" y="1606" type="curve" smooth="yes"/>
      <point x="1245" y="1603" type="line" smooth="yes"/>
      <point x="1450" y="1601"/>
      <point x="1515" y="1526"/>
      <point x="1515" y="1337" type="curve" smooth="yes"/>
    </contour>
    <contour>
      <point x="1197" y="394" type="line"/>
      <point x="1530" y="394" type="line"/>
      <point x="1530" y="426" type="line"/>
      <point x="1197" y="426" type="line"/>
    </contour>
    <component base="VowelO.or"/>
  </outline>
</glyph>
<glyph name="Kha.or" format="2">
  <advance width="1547"/>
  <unicode hex="0B16"/>
  <anchor x="1360" y="9" name="bottom"/>
  <anchor x="805" y="7" name="nukta"/>
  <anchor x="753" y="1713" name="top1"/>
  <anchor x="1324" y="1451" name="top2"/>
  <outline>
    <contour>
      <point x="409" y="429" type="curve"/>
      <point x="414" y="464" type="line"/>
      <point x="244" y="519"/>
      <point x="157" y="642"/>
      <point x="157" y="824" type="curve" smooth="yes"/>
      <point x="157" y="893" type="line" smooth="yes"/>
      <point x="157" y="1172"/>
      <point x="323" y="1328"/>
      <point x="629" y="1328" type="curve" smooth="yes"/>
      <point x="725" y="1328"/>
      <point x="791" y="1317"/>
      <point x="826" y="1304" type="curve"/>
      <point x="812" y="1326" type="line"/>
      <point x="793" y="1266"/>
      <point x="784" y="1205"/>
      <point x="784" y="1143" type="curve" smooth="yes"/>
      <point x="784" y="1100" type="line" smooth="yes"/>
      <point x="784" y="909"/>
      <point x="881" y="802"/>
      <point x="1067" y="802" type="curve" smooth="yes"/>
      <point x="1242" y="802"/>
      <point x="1331" y="899"/>
      <point x="1339" y="1030" type="curve"/>
      <point x="1353" y="1034" type="line"/>
      <point x="1330" y="1059" type="line"/>
      <point x="1317" y="916"/>
      <point x="1223" y="834"/>
      <point x="1071" y="834" type="curve" smooth="yes"/>
      <point x="905" y="834"/>
      <point x="820" y="928"/>
      <point x="820" y="1100" type="curve" smooth="yes"/>
      <point x="820" y="1143" type="line" smooth="yes"/>
      <point x="820" y="1210"/>
      <point x="829" y="1263"/>
      <point x="849" y="1332" type="curve"/>
      <point x="790" y="1350"/>
      <point x="713" y="1361"/>
      <point x="629" y="1361" type="curve" smooth="yes"/>
      <point x="298" y="1361"/>
      <point x="120" y="1194"/>
      <point x="120" y="892" type="curve" smooth="yes"/>
      <point x="120" y="823" type="line" smooth="yes"/>
      <point x="120" y="622"/>
      <point x="217" y="490"/>
    </contour>
    <contour>
      <point x="710" y="-16" type="curve" smooth="yes"/>
      <point x="913" y="-16"/>
      <point x="1021" y="96"/>
      <point x="1021" y="310" type="curve" smooth="yes"/>
      <point x="1021" y="399" type="line" smooth="yes"/>
      <point x="1021" y="613"/>
      <point x="913" y="725"/>
      <point x="710" y="725" type="curve" smooth="yes"/>
      <point x="507" y="725"/>
      <point x="404" y="613"/>
      <point x="398" y="405" type="curve"/>
      <point x="398" y="395" type="line"/>
      <point x="398" y="391"/>
      <point x="398" y="387"/>
      <point x="398" y="383" type="curve"/>
      <point x="398" y="311" type="line" smooth="yes"/>
      <point x="398" y="96"/>
      <point x="507" y="-16"/>
    </contour>
    <contour>
      <point x="710" y="17" type="curve" smooth="yes"/>
      <point x="528" y="17"/>
      <point x="435" y="120"/>
      <point x="435" y="310" type="curve" smooth="yes"/>
      <point x="435" y="399" type="line" smooth="yes"/>
      <point x="435" y="590"/>
      <point x="529" y="692"/>
      <point x="710" y="692" type="curve" smooth="yes"/>
      <point x="889" y="692"/>
      <point x="985" y="590"/>
      <point x="985" y="399" type="curve" smooth="yes"/>
      <point x="985" y="310" type="line" smooth="yes"/>
      <point x="985" y="120"/>
      <point x="889" y="17"/>
    </contour>
    <contour>
      <point x="1325" y="0" type="line"/>
      <point x="1361" y="0" type="line"/>
      <point x="1361" y="1336" type="line"/>
      <point x="1326" y="1336" type="line"/>
      <point x="1326" y="996" type="line"/>
      <point x="1328" y="980" type="line"/>
      <point x="1325" y="728" type="line"/>
    </contour>
  </outline>
</glyph>
<glyph name="Gha.or" format="2">
  <advance width="1521"/>
  <unicode hex="0B18"/>
  <anchor x="1335" y="9" name="bottom"/>
  <anchor x="818" y="7" name="nukta"/>
  <anchor x="1582" y="2" name="rasmall"/>
  <anchor x="732" y="1713" name="top1"/>
  <anchor x="1299" y="1451" name="top2"/>
  <outline>
    <contour>
      <point x="334" y="489" type="curve"/>
      <point x="344" y="524" type="line"/>
      <point x="220" y="576"/>
      <point x="157" y="681"/>
      <point x="157" y="849" type="curve" smooth="yes"/>
      <point x="157" y="886" type="line" smooth="yes"/>
      <point x="157" y="1178"/>
      <point x="349" y="1333"/>
      <point x="715" y="1333" type="curve" smooth="yes"/>
      <point x="1081" y="1333"/>
      <point x="1294" y="1168"/>
      <point x="1299" y="895" type="curve"/>
      <point x="1313" y="950" type="line"/>
      <point x="1296" y="1211"/>
      <point x="1083" y="1366"/>
      <point x="715" y="1366" type="curve" smooth="yes"/>
      <point x="325" y="1366"/>
      <point x="120" y="1200"/>
      <point x="120" y="885" type="curve" smooth="yes"/>
      <point x="120" y="848" type="line" smooth="yes"/>
      <point x="120" y="661"/>
      <point x="194" y="544"/>
    </contour>
    <contour>
      <point x="582" y="-15" type="curve" smooth="yes"/>
      <point x="738" y="-15"/>
      <point x="826" y="76"/>
      <point x="836" y="214" type="curve"/>
      <point x="831" y="214" type="line"/>
      <point x="838" y="76"/>
      <point x="923" y="-15"/>
      <point x="1073" y="-15" type="curve" smooth="yes"/>
      <point x="1216" y="-15"/>
      <point x="1290" y="73"/>
      <point x="1310" y="186" type="curve"/>
      <point x="1325" y="186" type="line"/>
      <point x="1302" y="225" type="line"/>
      <point x="1279" y="103"/>
      <point x="1209" y="18"/>
      <point x="1076" y="18" type="curve" smooth="yes"/>
      <point x="935" y="18"/>
      <point x="853" y="110"/>
      <point x="852" y="264" type="curve" smooth="yes"/>
      <point x="850" y="514" type="line"/>
      <point x="817" y="514" type="line"/>
      <point x="815" y="264" type="line" smooth="yes"/>
      <point x="814" y="110"/>
      <point x="726" y="18"/>
      <point x="583" y="18" type="curve" smooth="yes"/>
      <point x="430" y="18"/>
      <point x="351" y="104"/>
      <point x="351" y="275" type="curve" smooth="yes"/>
      <point x="351" y="437" type="line" smooth="yes"/>
      <point x="351" y="578"/>
      <point x="407" y="672"/>
      <point x="528" y="716" type="curve"/>
      <point x="528" y="752" type="line"/>
      <point x="381" y="699"/>
      <point x="314" y="590"/>
      <point x="314" y="436" type="curve"/>
      <point x="314" y="429" type="line"/>
      <point x="314" y="426"/>
      <point x="314" y="420"/>
      <point x="314" y="417" type="curve"/>
      <point x="314" y="272" type="line" smooth="yes"/>
      <point x="314" y="80"/>
      <point x="407" y="-15"/>
    </contour>
    <contour>
      <point x="1299" y="0" type="line"/>
      <point x="1335" y="0" type="line"/>
      <point x="1335" y="1336" type="line"/>
      <point x="1299" y="1336" type="line"/>
      <point x="1303" y="1007" type="line"/>
      <point x="1299" y="977" type="line"/>
      <point x="1299" y="817" type="line"/>
      <point x="1299" y="187" type="line"/>
      <point x="1303" y="178" type="line"/>
    </contour>
  </outline>
</glyph>
<glyph name="Nga.or" format="2">
  <advance width="1689"/>
  <unicode hex="0B19"/>
  <anchor x="790" y="9" name="bottom"/>
  <anchor x="769" y="7" name="nukta"/>
  <anchor x="716" y="1713" name="top1"/>
  <anchor x="1198" y="1451" name="top2"/>
  <outline>
    <contour>
      <point x="393" y="432" type="curve"/>
      <point x="400" y="467" type="line"/>
      <point x="226" y="522"/>
      <point x="157" y="639"/>
      <point x="157" y="808" type="curve" smooth="yes"/>
      <point x="157" y="879" type="line" smooth="yes"/>
      <point x="157" y="1160"/>
      <point x="362" y="1333"/>
      <point x="707" y="1333" type="curve" smooth="yes"/>
      <point x="936" y="1333"/>
      <point x="1107" y="1260"/>
      <point x="1213" y="1160" type="curve"/>
      <point x="1229" y="1189" type="line"/>
      <point x="1117" y="1291"/>
      <point x="941" y="1366"/>
      <point x="709" y="1366" type="curve" smooth="yes"/>
      <point x="337" y="1366"/>
      <point x="120" y="1185"/>
      <point x="120" y="879" type="curve" smooth="yes"/>
      <point x="120" y="808" type="line" smooth="yes"/>
      <point x="120" y="621"/>
      <point x="197" y="494"/>
    </contour>
    <contour>
      <point x="720" y="-16" type="curve" smooth="yes"/>
      <point x="931" y="-16"/>
      <point x="1047" y="100"/>
      <point x="1047" y="296" type="curve" smooth="yes"/>
      <point x="1047" y="365" type="line" smooth="yes"/>
      <point x="1047" y="488"/>
      <point x="1002" y="556"/>
      <point x="927" y="600" type="curve"/>
      <point x="927" y="606" type="line"/>
      <point x="907" y="576" type="line"/>
      <point x="973" y="537"/>
      <point x="1011" y="472"/>
      <point x="1011" y="365" type="curve" smooth="yes"/>
      <point x="1011" y="296" type="line" smooth="yes"/>
      <point x="1011" y="125"/>
      <point x="907" y="17"/>
      <point x="720" y="17" type="curve" smooth="yes"/>
      <point x="513" y="17"/>
      <point x="413" y="128"/>
      <point x="413" y="317" type="curve" smooth="yes"/>
      <point x="413" y="432" type="line" smooth="yes"/>
      <point x="413" y="577"/>
      <point x="467" y="678"/>
      <point x="584" y="725" type="curve"/>
      <point x="584" y="761" type="line"/>
      <point x="441" y="706"/>
      <point x="378" y="596"/>
      <point x="376" y="432" type="curve"/>
      <point x="376" y="424" type="line"/>
      <point x="376" y="420"/>
      <point x="376" y="415"/>
      <point x="376" y="412" type="curve"/>
      <point x="376" y="319" type="line" smooth="yes"/>
      <point x="376" y="105"/>
      <point x="489" y="-16"/>
    </contour>
    <contour>
      <point x="709" y="400" type="line"/>
      <point x="919" y="575" type="line"/>
      <point x="931" y="586" type="line"/>
      <point x="1118" y="739" type="line"/>
      <point x="1118" y="785" type="line"/>
      <point x="709" y="446" type="line"/>
    </contour>
    <contour>
      <point x="1405" y="781" type="curve" smooth="yes"/>
      <point x="1547" y="781"/>
      <point x="1629" y="861"/>
      <point x="1629" y="1014" type="curve" smooth="yes"/>
      <point x="1629" y="1048" type="line" smooth="yes"/>
      <point x="1629" y="1202"/>
      <point x="1547" y="1282"/>
      <point x="1405" y="1282" type="curve" smooth="yes"/>
      <point x="1318" y="1282"/>
      <point x="1254" y="1251"/>
      <point x="1216" y="1190" type="curve"/>
      <point x="1210" y="1180" type="line"/>
      <point x="1191" y="1142"/>
      <point x="1181" y="1098"/>
      <point x="1181" y="1048" type="curve" smooth="yes"/>
      <point x="1181" y="1014" type="line" smooth="yes"/>
      <point x="1181" y="861"/>
      <point x="1264" y="781"/>
    </contour>
    <contour>
      <point x="1405" y="813" type="curve" smooth="yes"/>
      <point x="1284" y="813"/>
      <point x="1215" y="882"/>
      <point x="1215" y="1015" type="curve" smooth="yes"/>
      <point x="1215" y="1048" type="line" smooth="yes"/>
      <point x="1215" y="1181"/>
      <point x="1283" y="1250"/>
      <point x="1405" y="1250" type="curve" smooth="yes"/>
      <point x="1526" y="1250"/>
      <point x="1594" y="1181"/>
      <point x="1594" y="1048" type="curve" smooth="yes"/>
      <point x="1594" y="1015" type="line" smooth="yes"/>
      <point x="1594" y="882"/>
      <point x="1526" y="813"/>
    </contour>
  </outline>
</glyph>
<glyph name="Ca.or" format="2">
  <advance width="1468"/>
  <unicode hex="0B1A"/>
  <anchor x="794" y="9" name="bottom"/>
  <anchor x="746" y="7" name="nukta"/>
  <anchor x="731" y="1713" name="top1"/>
  <anchor x="1133" y="1451" name="top2"/>
  <outline>
    <contour>
      <point x="440" y="420" type="curve"/>
      <point x="448" y="454" type="line"/>
      <point x="250" y="507"/>
      <point x="157" y="632"/>
      <point x="157" y="825" type="curve" smooth="yes"/>
      <point x="157" y="883" type="line" smooth="yes"/>
      <point x="157" y="1174"/>
      <point x="353" y="1333"/>
      <point x="730" y="1333" type="curve" smooth="yes"/>
      <point x="1117" y="1333"/>
      <point x="1311" y="1161"/>
      <point x="1311" y="859" type="curve" smooth="yes"/>
      <point x="1311" y="785" type="line" smooth="yes"/>
      <point x="1311" y="682"/>
      <point x="1284" y="587"/>
      <point x="1236" y="495" type="curve"/>
      <point x="1279" y="502" type="line"/>
      <point x="1322" y="588"/>
      <point x="1348" y="675"/>
      <point x="1348" y="787" type="curve" smooth="yes"/>
      <point x="1348" y="859" type="line" smooth="yes"/>
      <point x="1348" y="1183"/>
      <point x="1141" y="1366"/>
      <point x="732" y="1366" type="curve" smooth="yes"/>
      <point x="330" y="1366"/>
      <point x="120" y="1194"/>
      <point x="120" y="883" type="curve" smooth="yes"/>
      <point x="120" y="825" type="line" smooth="yes"/>
      <point x="120" y="612"/>
      <point x="226" y="477"/>
    </contour>
    <contour>
      <point x="735" y="-16" type="curve" smooth="yes"/>
      <point x="938" y="-16"/>
      <point x="1046" y="96"/>
      <point x="1046" y="310" type="curve" smooth="yes"/>
      <point x="1046" y="410" type="line" smooth="yes"/>
      <point x="1046" y="624"/>
      <point x="938" y="736"/>
      <point x="735" y="736" type="curve" smooth="yes"/>
      <point x="532" y="736"/>
      <point x="429" y="622"/>
      <point x="423" y="416" type="curve"/>
      <point x="423" y="406" type="line"/>
      <point x="423" y="402"/>
      <point x="423" y="398"/>
      <point x="423" y="394" type="curve"/>
      <point x="423" y="311" type="line" smooth="yes"/>
      <point x="423" y="96"/>
      <point x="532" y="-16"/>
    </contour>
    <contour>
      <point x="735" y="17" type="curve" smooth="yes"/>
      <point x="553" y="17"/>
      <point x="460" y="120"/>
      <point x="460" y="310" type="curve" smooth="yes"/>
      <point x="460" y="410" type="line" smooth="yes"/>
      <point x="460" y="601"/>
      <point x="554" y="703"/>
      <point x="735" y="703" type="curve" smooth="yes"/>
      <point x="914" y="703"/>
      <point x="1010" y="601"/>
      <point x="1010" y="410" type="curve" smooth="yes"/>
      <point x="1010" y="310" type="line" smooth="yes"/>
      <point x="1010" y="120"/>
      <point x="914" y="17"/>
    </contour>
  </outline>
</glyph>
<glyph name="Cha.or" format="2">
  <advance width="1468"/>
  <unicode hex="0B1B"/>
  <anchor x="849" y="-220" name="bottom"/>
  <anchor x="736" y="-156" name="nukta"/>
  <anchor x="731" y="1713" name="top1"/>
  <anchor x="1133" y="1451" name="top2"/>
  <outline>
    <contour>
      <point x="440" y="420" type="curve"/>
      <point x="448" y="454" type="line"/>
      <point x="250" y="507"/>
      <point x="157" y="632"/>
      <point x="157" y="825" type="curve" smooth="yes"/>
      <point x="157" y="883" type="line" smooth="yes"/>
      <point x="157" y="1174"/>
      <point x="353" y="1333"/>
      <point x="730" y="1333" type="curve" smooth="yes"/>
      <point x="1117" y="1333"/>
      <point x="1311" y="1161"/>
      <point x="1311" y="859" type="curve" smooth="yes"/>
      <point x="1311" y="785" type="line" smooth="yes"/>
      <point x="1311" y="682"/>
      <point x="1284" y="587"/>
      <point x="1236" y="495" type="curve"/>
      <point x="1279" y="502" type="line"/>
      <point x="1322" y="588"/>
      <point x="1348" y="675"/>
      <point x="1348" y="787" type="curve" smooth="yes"/>
      <point x="1348" y="859" type="line" smooth="yes"/>
      <point x="1348" y="1183"/>
      <point x="1141" y="1366"/>
      <point x="732" y="1366" type="curve" smooth="yes"/>
      <point x="330" y="1366"/>
      <point x="120" y="1194"/>
      <point x="120" y="883" type="curve" smooth="yes"/>
      <point x="120" y="825" type="line" smooth="yes"/>
      <point x="120" y="612"/>
      <point x="226" y="477"/>
    </contour>
    <contour>
      <point x="455" y="-302" type="curve" smooth="yes"/>
      <point x="584" y="-302"/>
      <point x="659" y="-239"/>
      <point x="737" y="-123" type="curve"/>
      <point x="748" y="-105" type="line"/>
      <point x="822" y="18"/>
      <point x="894" y="93"/>
      <point x="1007" y="93" type="curve" smooth="yes"/>
      <point x="1123" y="93"/>
      <point x="1184" y="31"/>
      <point x="1184" y="-80" type="curve" smooth="yes"/>
      <point x="1184" y="-101" type="line" smooth="yes"/>
      <point x="1184" y="-207"/>
      <point x="1123" y="-269"/>
      <point x="1008" y="-269" type="curve" smooth="yes"/>
      <point x="896" y="-269"/>
      <point x="822" y="-212"/>
      <point x="746" y="-91" type="curve"/>
      <point x="735" y="-73" type="line"/>
      <point x="648" y="55"/>
      <point x="560" y="125"/>
      <point x="456" y="125" type="curve" smooth="yes"/>
      <point x="322" y="125"/>
      <point x="244" y="49"/>
      <point x="244" y="-79" type="curve" smooth="yes"/>
      <point x="244" y="-102" type="line" smooth="yes"/>
      <point x="244" y="-228"/>
      <point x="320" y="-302"/>
    </contour>
    <contour>
      <point x="1009" y="-302" type="curve" smooth="yes"/>
      <point x="1144" y="-302"/>
      <point x="1220" y="-228"/>
      <point x="1220" y="-102" type="curve" smooth="yes"/>
      <point x="1220" y="-79" type="line" smooth="yes"/>
      <point x="1220" y="50"/>
      <point x="1143" y="125"/>
      <point x="1008" y="125" type="curve" smooth="yes"/>
      <point x="907" y="125"/>
      <point x="810" y="55"/>
      <point x="728" y="-77" type="curve"/>
      <point x="717" y="-91" type="line"/>
      <point x="641" y="-212"/>
      <point x="569" y="-269"/>
      <point x="456" y="-269" type="curve" smooth="yes"/>
      <point x="341" y="-269"/>
      <point x="280" y="-207"/>
      <point x="280" y="-101" type="curve" smooth="yes"/>
      <point x="280" y="-79" type="line" smooth="yes"/>
      <point x="280" y="30"/>
      <point x="342" y="93"/>
      <point x="457" y="93" type="curve" smooth="yes"/>
      <point x="570" y="93"/>
      <point x="635" y="18"/>
      <point x="716" y="-105" type="curve"/>
      <point x="727" y="-123" type="line"/>
      <point x="804" y="-239"/>
      <point x="881" y="-302"/>
    </contour>
    <contour>
      <point x="733" y="42" type="curve" smooth="yes"/>
      <point x="934" y="42"/>
      <point x="1044" y="155"/>
      <point x="1044" y="366" type="curve" smooth="yes"/>
      <point x="1044" y="420" type="line" smooth="yes"/>
      <point x="1044" y="634"/>
      <point x="936" y="746"/>
      <point x="733" y="746" type="curve" smooth="yes"/>
      <point x="530" y="746"/>
      <point x="427" y="632"/>
      <point x="421" y="426" type="curve"/>
      <point x="421" y="416" type="line"/>
      <point x="421" y="412"/>
      <point x="421" y="408"/>
      <point x="421" y="404" type="curve"/>
      <point x="421" y="367" type="line" smooth="yes"/>
      <point x="421" y="155"/>
      <point x="532" y="42"/>
    </contour>
    <contour>
      <point x="733" y="75" type="curve" smooth="yes"/>
      <point x="549" y="75"/>
      <point x="458" y="178"/>
      <point x="458" y="368" type="curve" smooth="yes"/>
      <point x="458" y="420" type="line" smooth="yes"/>
      <point x="458" y="611"/>
      <point x="552" y="713"/>
      <point x="733" y="713" type="curve" smooth="yes"/>
      <point x="912" y="713"/>
      <point x="1008" y="611"/>
      <point x="1008" y="420" type="curve" smooth="yes"/>
      <point x="1008" y="368" type="line" smooth="yes"/>
      <point x="1008" y="178"/>
      <point x="914" y="75"/>
    </contour>
  </outline>
</glyph>
<glyph name="Ja.or" format="2">
  <advance width="1551"/>
  <unicode hex="0B1C"/>
  <anchor x="1185" y="9" name="bottom"/>
  <anchor x="762" y="7" name="nukta"/>
  <anchor x="762" y="1705" name="top1"/>
  <anchor x="1193" y="1443" name="top2"/>
  <outline>
    <contour>
      <point x="312" y="460" type="curve"/>
      <point x="322" y="494" type="line"/>
      <point x="212" y="545"/>
      <point x="157" y="641"/>
      <point x="157" y="806" type="curve" smooth="yes"/>
      <point x="157" y="865" type="line" smooth="yes"/>
      <point x="157" y="1166"/>
      <point x="368" y="1333"/>
      <point x="770" y="1333" type="curve" smooth="yes"/>
      <point x="1184" y="1333"/>
      <point x="1394" y="1165"/>
      <point x="1394" y="845" type="curve" smooth="yes"/>
      <point x="1394" y="748" type="line" smooth="yes"/>
      <point x="1394" y="665"/>
      <point x="1383" y="587"/>
      <point x="1346" y="495" type="curve"/>
      <point x="1385" y="503" type="line"/>
      <point x="1417" y="583"/>
      <point x="1431" y="661"/>
      <point x="1431" y="750" type="curve" smooth="yes"/>
      <point x="1431" y="845" type="line" smooth="yes"/>
      <point x="1431" y="1186"/>
      <point x="1208" y="1366"/>
      <point x="772" y="1366" type="curve" smooth="yes"/>
      <point x="343" y="1366"/>
      <point x="120" y="1188"/>
      <point x="120" y="865" type="curve" smooth="yes"/>
      <point x="120" y="805" type="line" smooth="yes"/>
      <point x="120" y="622"/>
      <point x="183" y="517"/>
    </contour>
    <contour>
      <point x="599" y="-14" type="curve" smooth="yes"/>
      <point x="775" y="-14"/>
      <point x="868" y="89"/>
      <point x="868" y="259" type="curve" smooth="yes"/>
      <point x="868" y="310" type="line" smooth="yes"/>
      <point x="868" y="446"/>
      <point x="814" y="519"/>
      <point x="717" y="539" type="curve"/>
      <point x="715" y="531" type="line"/>
      <point x="1165" y="695" type="line"/>
      <point x="1150" y="706" type="line"/>
      <point x="1149" y="614"/>
      <point x="1149" y="520"/>
      <point x="1149" y="427" type="curve" smooth="yes"/>
      <point x="1149" y="0" type="line"/>
      <point x="1185" y="0" type="line"/>
      <point x="1185" y="703" type="line"/>
      <point x="1152" y="725" type="line"/>
      <point x="689" y="554" type="line"/>
      <point x="689" y="520" type="line"/>
      <point x="791" y="499"/>
      <point x="832" y="431"/>
      <point x="832" y="310" type="curve" smooth="yes"/>
      <point x="832" y="259" type="line" smooth="yes"/>
      <point x="832" y="111"/>
      <point x="753" y="20"/>
      <point x="599" y="20" type="curve" smooth="yes"/>
      <point x="424" y="20"/>
      <point x="343" y="122"/>
      <point x="343" y="295" type="curve" smooth="yes"/>
      <point x="343" y="436" type="line" smooth="yes"/>
      <point x="343" y="573"/>
      <point x="397" y="677"/>
      <point x="520" y="718" type="curve"/>
      <point x="520" y="755" type="line"/>
      <point x="368" y="704"/>
      <point x="307" y="586"/>
      <point x="307" y="436" type="curve"/>
      <point x="307" y="429" type="line"/>
      <point x="307" y="425"/>
      <point x="307" y="422"/>
      <point x="307" y="417" type="curve"/>
      <point x="307" y="297" type="line" smooth="yes"/>
      <point x="307" y="99"/>
      <point x="403" y="-14"/>
    </contour>
  </outline>
</glyph>
<glyph name="Jha.or" format="2">
  <advance width="1455"/>
  <unicode hex="0B1D"/>
  <anchor x="757" y="9" name="bottom"/>
  <anchor x="733" y="7" name="nukta"/>
  <anchor x="738" y="1713" name="top1"/>
  <anchor x="1093" y="1451" name="top2"/>
  <outline>
    <contour>
      <point x="409" y="429" type="curve"/>
      <point x="414" y="464" type="line"/>
      <point x="244" y="519"/>
      <point x="157" y="642"/>
      <point x="157" y="824" type="curve" smooth="yes"/>
      <point x="157" y="893" type="line" smooth="yes"/>
      <point x="157" y="1172"/>
      <point x="322" y="1328"/>
      <point x="626" y="1328" type="curve" smooth="yes"/>
      <point x="723" y="1328"/>
      <point x="788" y="1317"/>
      <point x="823" y="1304" type="curve"/>
      <point x="809" y="1326" type="line"/>
      <point x="790" y="1268"/>
      <point x="781" y="1208"/>
      <point x="781" y="1148" type="curve" smooth="yes"/>
      <point x="781" y="1105" type="line" smooth="yes"/>
      <point x="781" y="911"/>
      <point x="878" y="802"/>
      <point x="1068" y="802" type="curve" smooth="yes"/>
      <point x="1256" y="802"/>
      <point x="1357" y="906"/>
      <point x="1357" y="1102" type="curve" smooth="yes"/>
      <point x="1357" y="1151" type="line" smooth="yes"/>
      <point x="1357" y="1207"/>
      <point x="1347" y="1275"/>
      <point x="1331" y="1336" type="curve"/>
      <point x="1296" y="1336" type="line"/>
      <point x="1311" y="1270"/>
      <point x="1321" y="1207"/>
      <point x="1321" y="1151" type="curve" smooth="yes"/>
      <point x="1321" y="1102" type="line" smooth="yes"/>
      <point x="1321" y="925"/>
      <point x="1230" y="834"/>
      <point x="1068" y="834" type="curve" smooth="yes"/>
      <point x="902" y="834"/>
      <point x="817" y="932"/>
      <point x="817" y="1105" type="curve" smooth="yes"/>
      <point x="817" y="1148" type="line" smooth="yes"/>
      <point x="817" y="1213"/>
      <point x="826" y="1265"/>
      <point x="846" y="1332" type="curve"/>
      <point x="786" y="1350"/>
      <point x="710" y="1361"/>
      <point x="626" y="1361" type="curve" smooth="yes"/>
      <point x="297" y="1361"/>
      <point x="120" y="1194"/>
      <point x="120" y="892" type="curve" smooth="yes"/>
      <point x="120" y="823" type="line" smooth="yes"/>
      <point x="120" y="622"/>
      <point x="217" y="490"/>
    </contour>
    <contour>
      <point x="1341" y="-98" type="line"/>
      <point x="1341" y="-54" type="line"/>
      <point x="965" y="143" type="line"/>
      <point x="953" y="110" type="line"/>
    </contour>
    <contour>
      <point x="710" y="-16" type="curve" smooth="yes"/>
      <point x="834" y="-16"/>
      <point x="923" y="26"/>
      <point x="974" y="110" type="curve"/>
      <point x="981" y="123" type="line"/>
      <point x="1008" y="172"/>
      <point x="1021" y="235"/>
      <point x="1021" y="310" type="curve" smooth="yes"/>
      <point x="1021" y="399" type="line" smooth="yes"/>
      <point x="1021" y="613"/>
      <point x="913" y="725"/>
      <point x="710" y="725" type="curve" smooth="yes"/>
      <point x="507" y="725"/>
      <point x="404" y="613"/>
      <point x="398" y="405" type="curve"/>
      <point x="398" y="395" type="line"/>
      <point x="398" y="391"/>
      <point x="398" y="387"/>
      <point x="398" y="383" type="curve"/>
      <point x="398" y="311" type="line" smooth="yes"/>
      <point x="398" y="96"/>
      <point x="507" y="-16"/>
    </contour>
    <contour>
      <point x="710" y="17" type="curve" smooth="yes"/>
      <point x="528" y="17"/>
      <point x="435" y="120"/>
      <point x="435" y="310" type="curve" smooth="yes"/>
      <point x="435" y="399" type="line" smooth="yes"/>
      <point x="435" y="590"/>
      <point x="529" y="692"/>
      <point x="710" y="692" type="curve" smooth="yes"/>
      <point x="889" y="692"/>
      <point x="985" y="590"/>
      <point x="985" y="399" type="curve" smooth="yes"/>
      <point x="985" y="310" type="line" smooth="yes"/>
      <point x="985" y="120"/>
      <point x="889" y="17"/>
    </contour>
  </outline>
</glyph>
<glyph name="Nya.or" format="2">
  <advance width="1485"/>
  <unicode hex="0B1E"/>
  <anchor x="856" y="9" name="bottom"/>
  <anchor x="769" y="7" name="nukta"/>
  <anchor x="759" y="1713" name="top1"/>
  <anchor x="1238" y="1451" name="top2"/>
  <outline>
    <contour>
      <point x="546" y="190" type="curve"/>
      <point x="584" y="184" type="line"/>
      <point x="553" y="253"/>
      <point x="536" y="313"/>
      <point x="536" y="388" type="curve" smooth="yes"/>
      <point x="536" y="439" type="line" smooth="yes"/>
      <point x="536" y="578"/>
      <point x="594" y="653"/>
      <point x="722" y="653" type="curve" smooth="yes"/>
      <point x="837" y="653"/>
      <point x="906" y="574"/>
      <point x="907" y="447" type="curve" smooth="yes"/>
      <point x="908" y="230" type="line"/>
      <point x="940" y="230" type="line"/>
      <point x="941" y="447" type="line" smooth="yes"/>
      <point x="942" y="579"/>
      <point x="1009" y="660"/>
      <point x="1124" y="660" type="curve" smooth="yes"/>
      <point x="1258" y="660"/>
      <point x="1317" y="586"/>
      <point x="1317" y="435" type="curve" smooth="yes"/>
      <point x="1317" y="375" type="line" smooth="yes"/>
      <point x="1317" y="144"/>
      <point x="1146" y="18"/>
      <point x="795" y="18" type="curve" smooth="yes"/>
      <point x="391" y="18"/>
      <point x="179" y="147"/>
      <point x="179" y="426" type="curve" smooth="yes"/>
      <point x="179" y="489" type="line" smooth="yes"/>
      <point x="179" y="610"/>
      <point x="213" y="697"/>
      <point x="284" y="794" type="curve"/>
      <point x="254" y="813" type="line"/>
      <point x="184" y="721"/>
      <point x="142" y="620"/>
      <point x="142" y="489" type="curve" smooth="yes"/>
      <point x="142" y="429" type="line" smooth="yes"/>
      <point x="142" y="123"/>
      <point x="364" y="-16"/>
      <point x="795" y="-16" type="curve" smooth="yes"/>
      <point x="1169" y="-16"/>
      <point x="1352" y="123"/>
      <point x="1352" y="374" type="curve" smooth="yes"/>
      <point x="1352" y="435" type="line" smooth="yes"/>
      <point x="1352" y="609"/>
      <point x="1278" y="692"/>
      <point x="1127" y="692" type="curve" smooth="yes"/>
      <point x="1006" y="692"/>
      <point x="931" y="615"/>
      <point x="921" y="494" type="curve"/>
      <point x="926" y="494" type="line"/>
      <point x="916" y="609"/>
      <point x="844" y="682"/>
      <point x="722" y="682" type="curve" smooth="yes"/>
      <point x="575" y="682"/>
      <point x="501" y="600"/>
      <point x="501" y="440" type="curve" smooth="yes"/>
      <point x="501" y="389" type="line" smooth="yes"/>
      <point x="501" y="313"/>
      <point x="516" y="252"/>
    </contour>
    <contour>
      <point x="546" y="850" type="curve"/>
      <point x="584" y="844" type="line"/>
      <point x="553" y="913"/>
      <point x="536" y="973"/>
      <point x="536" y="1048" type="curve" smooth="yes"/>
      <point x="536" y="1099" type="line" smooth="yes"/>
      <point x="536" y="1238"/>
      <point x="594" y="1313"/>
      <point x="722" y="1313" type="curve" smooth="yes"/>
      <point x="837" y="1313"/>
      <point x="906" y="1234"/>
      <point x="907" y="1107" type="curve" smooth="yes"/>
      <point x="908" y="890" type="line"/>
      <point x="940" y="890" type="line"/>
      <point x="941" y="1107" type="line" smooth="yes"/>
      <point x="942" y="1235"/>
      <point x="1013" y="1313"/>
      <point x="1128" y="1313" type="curve" smooth="yes"/>
      <point x="1259" y="1313"/>
      <point x="1317" y="1236"/>
      <point x="1317" y="1081" type="curve" smooth="yes"/>
      <point x="1317" y="1016" type="line" smooth="yes"/>
      <point x="1317" y="791"/>
      <point x="1156" y="684"/>
      <point x="800" y="684" type="curve" smooth="yes"/>
      <point x="385" y="684"/>
      <point x="177" y="816"/>
      <point x="177" y="1061" type="curve" smooth="yes"/>
      <point x="177" y="1097" type="line" smooth="yes"/>
      <point x="177" y="1202"/>
      <point x="196" y="1268"/>
      <point x="238" y="1344" type="curve"/>
      <point x="199" y="1344" type="line"/>
      <point x="159" y="1269"/>
      <point x="140" y="1204"/>
      <point x="140" y="1096" type="curve" smooth="yes"/>
      <point x="140" y="1066" type="line" smooth="yes"/>
      <point x="140" y="950"/>
      <point x="182" y="862"/>
      <point x="255" y="797" type="curve"/>
      <point x="268" y="785" type="line"/>
      <point x="367" y="710"/>
      <point x="499" y="670"/>
      <point x="656" y="657" type="curve"/>
      <point x="735" y="662" type="line"/>
      <point x="796" y="653" type="line"/>
      <point x="897" y="651"/>
      <point x="991" y="659"/>
      <point x="1072" y="681" type="curve"/>
      <point x="1241" y="725"/>
      <point x="1352" y="826"/>
      <point x="1352" y="1015" type="curve" smooth="yes"/>
      <point x="1352" y="1081" type="line" smooth="yes"/>
      <point x="1352" y="1258"/>
      <point x="1280" y="1345"/>
      <point x="1131" y="1345" type="curve" smooth="yes"/>
      <point x="1004" y="1345"/>
      <point x="931" y="1271"/>
      <point x="921" y="1154" type="curve"/>
      <point x="926" y="1154" type="line"/>
      <point x="916" y="1271"/>
      <point x="844" y="1345"/>
      <point x="722" y="1345" type="curve" smooth="yes"/>
      <point x="575" y="1345"/>
      <point x="501" y="1262"/>
      <point x="501" y="1100" type="curve" smooth="yes"/>
      <point x="501" y="1049" type="line" smooth="yes"/>
      <point x="501" y="973"/>
      <point x="516" y="912"/>
    </contour>
  </outline>
</glyph>
<glyph name="Tta.or" format="2">
  <advance width="1473"/>
  <unicode hex="0B1F"/>
  <anchor x="802" y="9" name="bottom"/>
  <anchor x="753" y="7" name="nukta"/>
  <anchor x="723" y="1713" name="top1"/>
  <anchor x="1103" y="1451" name="top2"/>
  <outline>
    <contour>
      <point x="445" y="418" type="curve"/>
      <point x="450" y="453" type="line"/>
      <point x="248" y="510"/>
      <point x="157" y="630"/>
      <point x="157" y="827" type="curve" smooth="yes"/>
      <point x="157" y="885" type="line" smooth="yes"/>
      <point x="157" y="1173"/>
      <point x="343" y="1333"/>
      <point x="700" y="1333" type="curve" smooth="yes"/>
      <point x="1055" y="1333"/>
      <point x="1280" y="1168"/>
      <point x="1285" y="895" type="curve"/>
      <point x="1299" y="951" type="line"/>
      <point x="1283" y="1211"/>
      <point x="1057" y="1366"/>
      <point x="700" y="1366" type="curve" smooth="yes"/>
      <point x="319" y="1366"/>
      <point x="120" y="1193"/>
      <point x="120" y="884" type="curve" smooth="yes"/>
      <point x="120" y="826" type="line" smooth="yes"/>
      <point x="120" y="612"/>
      <point x="220" y="481"/>
    </contour>
    <contour>
      <point x="742" y="-16" type="curve" smooth="yes"/>
      <point x="945" y="-16"/>
      <point x="1053" y="96"/>
      <point x="1053" y="310" type="curve" smooth="yes"/>
      <point x="1053" y="410" type="line" smooth="yes"/>
      <point x="1053" y="624"/>
      <point x="945" y="736"/>
      <point x="742" y="736" type="curve" smooth="yes"/>
      <point x="539" y="736"/>
      <point x="436" y="622"/>
      <point x="430" y="416" type="curve"/>
      <point x="430" y="406" type="line"/>
      <point x="430" y="402"/>
      <point x="430" y="398"/>
      <point x="430" y="394" type="curve"/>
      <point x="430" y="311" type="line" smooth="yes"/>
      <point x="430" y="96"/>
      <point x="539" y="-16"/>
    </contour>
    <contour>
      <point x="742" y="17" type="curve" smooth="yes"/>
      <point x="560" y="17"/>
      <point x="467" y="120"/>
      <point x="467" y="310" type="curve" smooth="yes"/>
      <point x="467" y="410" type="line" smooth="yes"/>
      <point x="467" y="601"/>
      <point x="561" y="703"/>
      <point x="742" y="703" type="curve" smooth="yes"/>
      <point x="921" y="703"/>
      <point x="1017" y="601"/>
      <point x="1017" y="410" type="curve" smooth="yes"/>
      <point x="1017" y="310" type="line" smooth="yes"/>
      <point x="1017" y="120"/>
      <point x="921" y="17"/>
    </contour>
    <contour>
      <point x="1285" y="743" type="line"/>
      <point x="1321" y="743" type="line"/>
      <point x="1321" y="1336" type="line"/>
      <point x="1285" y="1336" type="line"/>
      <point x="1289" y="1007" type="line"/>
      <point x="1284" y="1007" type="line"/>
      <point x="1285" y="977" type="line"/>
    </contour>
  </outline>
</glyph>
<glyph name="Ttha.or" format="2">
  <advance width="1339"/>
  <unicode hex="0B20"/>
  <anchor x="728" y="9" name="bottom"/>
  <anchor x="670" y="7" name="nukta"/>
  <anchor x="670" y="1713" name="top1"/>
  <anchor x="1031" y="1451" name="top2"/>
  <outline>
    <contour>
      <point x="670" y="-15" type="curve" smooth="yes"/>
      <point x="1017" y="-15"/>
      <point x="1203" y="185"/>
      <point x="1203" y="547" type="curve" smooth="yes"/>
      <point x="1203" y="801" type="line" smooth="yes"/>
      <point x="1203" y="1163"/>
      <point x="1017" y="1362"/>
      <point x="670" y="1362" type="curve" smooth="yes"/>
      <point x="323" y="1362"/>
      <point x="136" y="1163"/>
      <point x="136" y="801" type="curve" smooth="yes"/>
      <point x="136" y="547" type="line" smooth="yes"/>
      <point x="136" y="185"/>
      <point x="323" y="-15"/>
    </contour>
    <contour>
      <point x="670" y="18" type="curve" smooth="yes"/>
      <point x="343" y="18"/>
      <point x="173" y="208"/>
      <point x="173" y="547" type="curve" smooth="yes"/>
      <point x="173" y="801" type="line" smooth="yes"/>
      <point x="173" y="1142"/>
      <point x="343" y="1329"/>
      <point x="670" y="1329" type="curve" smooth="yes"/>
      <point x="994" y="1329"/>
      <point x="1166" y="1142"/>
      <point x="1166" y="801" type="curve" smooth="yes"/>
      <point x="1166" y="547" type="line" smooth="yes"/>
      <point x="1166" y="208"/>
      <point x="994" y="18"/>
    </contour>
  </outline>
</glyph>
<glyph name="Dda.or" format="2">
  <advance width="1513"/>
  <unicode hex="0B21"/>
  <anchor x="802" y="9" name="bottom"/>
  <anchor x="749" y="7" name="nukta"/>
  <anchor x="752" y="1713" name="top1"/>
  <anchor x="1171" y="1451" name="top2"/>
  <outline>
    <contour>
      <point x="420" y="428" type="curve"/>
      <point x="426" y="462" type="line"/>
      <point x="243" y="519"/>
      <point x="157" y="640"/>
      <point x="157" y="825" type="curve" smooth="yes"/>
      <point x="157" y="883" type="line" smooth="yes"/>
      <point x="157" y="1174"/>
      <point x="360" y="1333"/>
      <point x="749" y="1333" type="curve" smooth="yes"/>
      <point x="1149" y="1333"/>
      <point x="1356" y="1159"/>
      <point x="1356" y="859" type="curve" smooth="yes"/>
      <point x="1356" y="785" type="line" smooth="yes"/>
      <point x="1356" y="682"/>
      <point x="1329" y="587"/>
      <point x="1281" y="495" type="curve"/>
      <point x="1324" y="502" type="line"/>
      <point x="1367" y="588"/>
      <point x="1393" y="675"/>
      <point x="1393" y="787" type="curve" smooth="yes"/>
      <point x="1393" y="859" type="line" smooth="yes"/>
      <point x="1393" y="1181"/>
      <point x="1173" y="1366"/>
      <point x="751" y="1366" type="curve" smooth="yes"/>
      <point x="337" y="1366"/>
      <point x="120" y="1194"/>
      <point x="120" y="883" type="curve" smooth="yes"/>
      <point x="120" y="825" type="line" smooth="yes"/>
      <point x="120" y="620"/>
      <point x="219" y="488"/>
    </contour>
    <contour>
      <point x="742" y="-16" type="curve" smooth="yes"/>
      <point x="953" y="-16"/>
      <point x="1069" y="100"/>
      <point x="1069" y="296" type="curve" smooth="yes"/>
      <point x="1069" y="365" type="line" smooth="yes"/>
      <point x="1069" y="488"/>
      <point x="1024" y="556"/>
      <point x="949" y="600" type="curve"/>
      <point x="949" y="606" type="line"/>
      <point x="929" y="576" type="line"/>
      <point x="995" y="537"/>
      <point x="1033" y="472"/>
      <point x="1033" y="365" type="curve" smooth="yes"/>
      <point x="1033" y="296" type="line" smooth="yes"/>
      <point x="1033" y="125"/>
      <point x="929" y="17"/>
      <point x="742" y="17" type="curve" smooth="yes"/>
      <point x="535" y="17"/>
      <point x="435" y="128"/>
      <point x="435" y="317" type="curve" smooth="yes"/>
      <point x="435" y="432" type="line" smooth="yes"/>
      <point x="435" y="577"/>
      <point x="489" y="678"/>
      <point x="606" y="725" type="curve"/>
      <point x="606" y="761" type="line"/>
      <point x="463" y="706"/>
      <point x="400" y="596"/>
      <point x="398" y="432" type="curve"/>
      <point x="398" y="424" type="line"/>
      <point x="398" y="420"/>
      <point x="398" y="415"/>
      <point x="398" y="412" type="curve"/>
      <point x="398" y="319" type="line" smooth="yes"/>
      <point x="398" y="105"/>
      <point x="511" y="-16"/>
    </contour>
    <contour>
      <point x="731" y="400" type="line"/>
      <point x="941" y="575" type="line"/>
      <point x="953" y="586" type="line"/>
      <point x="1140" y="739" type="line"/>
      <point x="1140" y="785" type="line"/>
      <point x="731" y="446" type="line"/>
    </contour>
  </outline>
</glyph>
<glyph name="Ddha.or" format="2">
  <advance width="1513"/>
  <unicode hex="0B22"/>
  <anchor x="819" y="9" name="bottom"/>
  <anchor x="752" y="7" name="nukta"/>
  <anchor x="752" y="1713" name="top1"/>
  <anchor x="1171" y="1451" name="top2"/>
  <outline>
    <contour>
      <point x="387" y="439" type="curve"/>
      <point x="392" y="474" type="line"/>
      <point x="232" y="535"/>
      <point x="157" y="652"/>
      <point x="157" y="825" type="curve" smooth="yes"/>
      <point x="157" y="883" type="line" smooth="yes"/>
      <point x="157" y="1174"/>
      <point x="360" y="1333"/>
      <point x="749" y="1333" type="curve" smooth="yes"/>
      <point x="1149" y="1333"/>
      <point x="1356" y="1159"/>
      <point x="1356" y="859" type="curve" smooth="yes"/>
      <point x="1356" y="785" type="line" smooth="yes"/>
      <point x="1356" y="682"/>
      <point x="1329" y="587"/>
      <point x="1281" y="495" type="curve"/>
      <point x="1324" y="502" type="line"/>
      <point x="1367" y="588"/>
      <point x="1393" y="675"/>
      <point x="1393" y="787" type="curve" smooth="yes"/>
      <point x="1393" y="859" type="line" smooth="yes"/>
      <point x="1393" y="1181"/>
      <point x="1173" y="1366"/>
      <point x="751" y="1366" type="curve" smooth="yes"/>
      <point x="337" y="1366"/>
      <point x="120" y="1194"/>
      <point x="120" y="883" type="curve" smooth="yes"/>
      <point x="120" y="825" type="line" smooth="yes"/>
      <point x="120" y="632"/>
      <point x="208" y="503"/>
    </contour>
    <contour>
      <point x="1192" y="-82" type="curve"/>
      <point x="1192" y="-45" type="line"/>
      <point x="1109" y="-23"/>
      <point x="1026" y="2"/>
      <point x="944" y="35" type="curve"/>
      <point x="908" y="19" type="line"/>
      <point x="1001" y="-21"/>
      <point x="1095" y="-55"/>
    </contour>
    <contour>
      <point x="759" y="-12" type="curve" smooth="yes"/>
      <point x="820" y="-12"/>
      <point x="882" y="-3"/>
      <point x="929" y="15" type="curve"/>
      <point x="946" y="23" type="line"/>
      <point x="1071" y="77"/>
      <point x="1130" y="187"/>
      <point x="1130" y="332" type="curve" smooth="yes"/>
      <point x="1130" y="436" type="line" smooth="yes"/>
      <point x="1130" y="581"/>
      <point x="1061" y="679"/>
      <point x="914" y="679" type="curve" smooth="yes"/>
      <point x="779" y="679"/>
      <point x="701" y="590"/>
      <point x="701" y="432" type="curve" smooth="yes"/>
      <point x="701" y="304" type="line" smooth="yes"/>
      <point x="701" y="159"/>
      <point x="786" y="67"/>
      <point x="898" y="26" type="curve"/>
      <point x="933" y="41" type="line"/>
      <point x="816" y="88"/>
      <point x="737" y="169"/>
      <point x="737" y="304" type="curve" smooth="yes"/>
      <point x="737" y="433" type="line" smooth="yes"/>
      <point x="737" y="572"/>
      <point x="799" y="646"/>
      <point x="913" y="646" type="curve" smooth="yes"/>
      <point x="1035" y="646"/>
      <point x="1094" y="565"/>
      <point x="1094" y="437" type="curve" smooth="yes"/>
      <point x="1094" y="332" type="line" smooth="yes"/>
      <point x="1094" y="192"/>
      <point x="1036" y="86"/>
      <point x="907" y="41" type="curve"/>
      <point x="890" y="36" type="line"/>
      <point x="854" y="27"/>
      <point x="809" y="21"/>
      <point x="761" y="21" type="curve" smooth="yes"/>
      <point x="527" y="21"/>
      <point x="411" y="136"/>
      <point x="411" y="338" type="curve" smooth="yes"/>
      <point x="411" y="436" type="line" smooth="yes"/>
      <point x="411" y="581"/>
      <point x="466" y="684"/>
      <point x="584" y="731" type="curve"/>
      <point x="584" y="767" type="line"/>
      <point x="440" y="711"/>
      <point x="376" y="600"/>
      <point x="374" y="436" type="curve"/>
      <point x="374" y="430" type="line"/>
      <point x="374" y="426"/>
      <point x="374" y="423"/>
      <point x="374" y="419" type="curve"/>
      <point x="374" y="340" type="line"/>
      <point x="374" y="115"/>
      <point x="501" y="-12"/>
    </contour>
  </outline>
</glyph>
<glyph name="Nna.or" format="2">
  <advance width="1458"/>
  <unicode hex="0B23"/>
  <anchor x="1272" y="9" name="bottom"/>
  <anchor x="759" y="7" name="nukta"/>
  <anchor x="756" y="1713" name="top1"/>
  <anchor x="1236" y="1451" name="top2"/>
  <outline>
    <contour>
      <point x="1272" y="0" type="line"/>
      <point x="1272" y="1336" type="line"/>
      <point x="1236" y="1336" type="line"/>
      <point x="1239" y="1089" type="line"/>
      <point x="1232" y="1089" type="line"/>
      <point x="1236" y="1066" type="line"/>
      <point x="1236" y="0" type="line"/>
    </contour>
    <contour>
      <point x="829" y="1364" type="curve" smooth="yes"/>
      <point x="577" y="1364"/>
      <point x="454" y="1264"/>
      <point x="454" y="1077" type="curve" smooth="yes"/>
      <point x="454" y="1044"/>
      <point x="458" y="1015"/>
      <point x="466" y="991" type="curve"/>
      <point x="500" y="995" type="line"/>
      <point x="493" y="1020"/>
      <point x="490" y="1046"/>
      <point x="490" y="1078" type="curve" smooth="yes"/>
      <point x="490" y="1246"/>
      <point x="601" y="1331"/>
      <point x="829" y="1331" type="curve" smooth="yes"/>
      <point x="1087" y="1331"/>
      <point x="1233" y="1198"/>
      <point x="1236" y="987" type="curve"/>
      <point x="1259" y="987" type="line"/>
      <point x="1249" y="1035" type="line"/>
      <point x="1241" y="1240"/>
      <point x="1090" y="1364"/>
    </contour>
    <contour>
      <point x="822" y="899" type="curve"/>
      <point x="818" y="934" type="line"/>
      <point x="746" y="975"/>
      <point x="640" y="1010"/>
      <point x="514" y="1010" type="curve" smooth="yes"/>
      <point x="512" y="1010" type="line" smooth="yes"/>
      <point x="255" y="1010"/>
      <point x="125" y="853"/>
      <point x="125" y="594" type="curve" smooth="yes"/>
      <point x="125" y="372" type="line" smooth="yes"/>
      <point x="125" y="125"/>
      <point x="270" y="-16"/>
      <point x="524" y="-16" type="curve" smooth="yes"/>
      <point x="756" y="-16"/>
      <point x="879" y="109"/>
      <point x="879" y="319" type="curve" smooth="yes"/>
      <point x="879" y="350" type="line" smooth="yes"/>
      <point x="879" y="565"/>
      <point x="760" y="681"/>
      <point x="529" y="681" type="curve" smooth="yes"/>
      <point x="298" y="681"/>
      <point x="177" y="549"/>
      <point x="147" y="381" type="curve"/>
      <point x="141" y="381" type="line"/>
      <point x="157" y="333" type="line"/>
      <point x="186" y="524"/>
      <point x="315" y="648"/>
      <point x="525" y="648" type="curve" smooth="yes"/>
      <point x="739" y="648"/>
      <point x="843" y="543"/>
      <point x="843" y="348" type="curve" smooth="yes"/>
      <point x="843" y="320" type="line" smooth="yes"/>
      <point x="843" y="130"/>
      <point x="734" y="17"/>
      <point x="525" y="17" type="curve" smooth="yes"/>
      <point x="295" y="17"/>
      <point x="162" y="144"/>
      <point x="162" y="372" type="curve" smooth="yes"/>
      <point x="162" y="532" type="line"/>
      <point x="162" y="551" type="line"/>
      <point x="162" y="593" type="line" smooth="yes"/>
      <point x="162" y="842"/>
      <point x="284" y="977"/>
      <point x="512" y="977" type="curve" smooth="yes"/>
      <point x="633" y="977"/>
      <point x="735" y="946"/>
    </contour>
  </outline>
</glyph>
<glyph name="Ta.or" format="2">
  <advance width="1515"/>
  <unicode hex="0B24"/>
  <anchor x="821" y="9" name="bottom"/>
  <anchor x="753" y="7" name="nukta"/>
  <anchor x="753" y="1713" name="top1"/>
  <anchor x="1172" y="1451" name="top2"/>
  <outline>
    <contour>
      <point x="420" y="428" type="curve"/>
      <point x="426" y="462" type="line"/>
      <point x="243" y="519"/>
      <point x="157" y="640"/>
      <point x="157" y="825" type="curve" smooth="yes"/>
      <point x="157" y="883" type="line" smooth="yes"/>
      <point x="157" y="1174"/>
      <point x="360" y="1333"/>
      <point x="750" y="1333" type="curve" smooth="yes"/>
      <point x="1151" y="1333"/>
      <point x="1358" y="1159"/>
      <point x="1358" y="859" type="curve" smooth="yes"/>
      <point x="1358" y="785" type="line" smooth="yes"/>
      <point x="1358" y="682"/>
      <point x="1331" y="587"/>
      <point x="1283" y="495" type="curve"/>
      <point x="1326" y="502" type="line"/>
      <point x="1369" y="588"/>
      <point x="1395" y="675"/>
      <point x="1395" y="787" type="curve" smooth="yes"/>
      <point x="1395" y="859" type="line" smooth="yes"/>
      <point x="1395" y="1181"/>
      <point x="1175" y="1366"/>
      <point x="752" y="1366" type="curve" smooth="yes"/>
      <point x="337" y="1366"/>
      <point x="120" y="1194"/>
      <point x="120" y="883" type="curve" smooth="yes"/>
      <point x="120" y="825" type="line" smooth="yes"/>
      <point x="120" y="620"/>
      <point x="219" y="488"/>
    </contour>
    <contour>
      <point x="760" y="-16" type="curve" smooth="yes"/>
      <point x="979" y="-16"/>
      <point x="1102" y="109"/>
      <point x="1102" y="321" type="curve" smooth="yes"/>
      <point x="1102" y="444" type="line" smooth="yes"/>
      <point x="1102" y="588"/>
      <point x="1030" y="681"/>
      <point x="924" y="681" type="curve" smooth="yes"/>
      <point x="877" y="681"/>
      <point x="853" y="653"/>
      <point x="853" y="616" type="curve"/>
      <point x="853" y="614" type="line"/>
      <point x="853" y="581"/>
      <point x="872" y="556"/>
      <point x="914" y="556" type="curve" smooth="yes"/>
      <point x="954" y="556"/>
      <point x="972" y="577"/>
      <point x="972" y="607" type="curve"/>
      <point x="972" y="608" type="line"/>
      <point x="972" y="639"/>
      <point x="952" y="652"/>
      <point x="927" y="656" type="curve"/>
      <point x="890" y="639" type="line"/>
      <point x="902" y="642"/>
      <point x="915" y="644"/>
      <point x="933" y="644" type="curve"/>
      <point x="1007" y="644"/>
      <point x="1065" y="565"/>
      <point x="1065" y="442" type="curve" smooth="yes"/>
      <point x="1065" y="321" type="line" smooth="yes"/>
      <point x="1065" y="135"/>
      <point x="955" y="17"/>
      <point x="760" y="17" type="curve" smooth="yes"/>
      <point x="542" y="17"/>
      <point x="435" y="131"/>
      <point x="435" y="325" type="curve" smooth="yes"/>
      <point x="435" y="432" type="line" smooth="yes"/>
      <point x="435" y="578"/>
      <point x="491" y="681"/>
      <point x="612" y="728" type="curve"/>
      <point x="612" y="764" type="line"/>
      <point x="465" y="708"/>
      <point x="400" y="597"/>
      <point x="398" y="432" type="curve"/>
      <point x="398" y="424" type="line"/>
      <point x="398" y="327" type="line" smooth="yes"/>
      <point x="398" y="108"/>
      <point x="517" y="-16"/>
    </contour>
  </outline>
</glyph>
<glyph name="Tha.or" format="2">
  <advance width="1440"/>
  <unicode hex="0B25"/>
  <anchor x="1254" y="9" name="bottom"/>
  <anchor x="733" y="7" name="nukta"/>
  <anchor x="733" y="1713" name="top1"/>
  <anchor x="1218" y="1451" name="top2"/>
  <outline>
    <contour>
      <point x="626" y="-14" type="curve" smooth="yes"/>
      <point x="972" y="-14"/>
      <point x="1183" y="126"/>
      <point x="1237" y="341" type="curve"/>
      <point x="1237" y="345" type="line"/>
      <point x="1222" y="351" type="line"/>
      <point x="1155" y="142"/>
      <point x="946" y="21"/>
      <point x="628" y="21" type="curve" smooth="yes"/>
      <point x="311" y="21"/>
      <point x="151" y="116"/>
      <point x="151" y="305" type="curve" smooth="yes"/>
      <point x="151" y="324" type="line" smooth="yes"/>
      <point x="151" y="478"/>
      <point x="240" y="552"/>
      <point x="469" y="611" type="curve" smooth="yes"/>
      <point x="585" y="641" type="line" smooth="yes"/>
      <point x="852" y="710"/>
      <point x="929" y="804"/>
      <point x="929" y="1002" type="curve" smooth="yes"/>
      <point x="929" y="1076" type="line" smooth="yes"/>
      <point x="929" y="1263"/>
      <point x="833" y="1360"/>
      <point x="642" y="1360" type="curve" smooth="yes"/>
      <point x="449" y="1360"/>
      <point x="349" y="1259"/>
      <point x="349" y="1074" type="curve" smooth="yes"/>
      <point x="349" y="1024" type="line" smooth="yes"/>
      <point x="349" y="950"/>
      <point x="363" y="896"/>
      <point x="390" y="836" type="curve"/>
      <point x="429" y="829" type="line"/>
      <point x="400" y="896"/>
      <point x="385" y="949"/>
      <point x="385" y="1022" type="curve" smooth="yes"/>
      <point x="385" y="1073" type="line" smooth="yes"/>
      <point x="385" y="1240"/>
      <point x="472" y="1327"/>
      <point x="640" y="1327" type="curve" smooth="yes"/>
      <point x="810" y="1327"/>
      <point x="893" y="1240"/>
      <point x="893" y="1076" type="curve" smooth="yes"/>
      <point x="893" y="1003" type="line" smooth="yes"/>
      <point x="893" y="821"/>
      <point x="825" y="738"/>
      <point x="573" y="673" type="curve" smooth="yes"/>
      <point x="457" y="643" type="line" smooth="yes"/>
      <point x="213" y="580"/>
      <point x="113" y="496"/>
      <point x="113" y="324" type="curve" smooth="yes"/>
      <point x="113" y="303" type="line" smooth="yes"/>
      <point x="113" y="94"/>
      <point x="286" y="-14"/>
    </contour>
    <contour>
      <point x="1218" y="0" type="line"/>
      <point x="1254" y="0" type="line"/>
      <point x="1254" y="1336" type="line"/>
      <point x="1218" y="1336" type="line"/>
      <point x="1218" y="311" type="line"/>
      <point x="1221" y="310" type="line"/>
    </contour>
  </outline>
</glyph>
<glyph name="Dha.or" format="2">
  <advance width="1338"/>
  <unicode hex="0B27"/>
  <anchor x="1152" y="9" name="bottom"/>
  <anchor x="690" y="7" name="nukta"/>
  <anchor x="636" y="1713" name="top1"/>
  <anchor x="1116" y="1451" name="top2"/>
  <outline>
    <contour>
      <point x="624" y="-16" type="curve" smooth="yes"/>
      <point x="924" y="-16"/>
      <point x="1101" y="116"/>
      <point x="1133" y="317" type="curve"/>
      <point x="1132" y="333" type="line"/>
      <point x="1119" y="327" type="line"/>
      <point x="1067" y="132"/>
      <point x="905" y="18"/>
      <point x="625" y="18" type="curve" smooth="yes"/>
      <point x="310" y="18"/>
      <point x="167" y="160"/>
      <point x="167" y="397" type="curve" smooth="yes"/>
      <point x="167" y="445" type="line" smooth="yes"/>
      <point x="167" y="682"/>
      <point x="300" y="821"/>
      <point x="572" y="848" type="curve" smooth="yes"/>
      <point x="591" y="850"/>
      <point x="597" y="850"/>
      <point x="605" y="851" type="curve"/>
      <point x="583" y="880" type="line"/>
      <point x="577" y="880"/>
      <point x="567" y="880"/>
      <point x="558" y="879" type="curve" smooth="yes"/>
      <point x="282" y="852"/>
      <point x="130" y="705"/>
      <point x="130" y="444" type="curve" smooth="yes"/>
      <point x="130" y="397" type="line" smooth="yes"/>
      <point x="130" y="137"/>
      <point x="283" y="-16"/>
    </contour>
    <contour>
      <point x="161" y="1336" type="line"/>
      <point x="114" y="1336" type="line"/>
      <point x="114" y="1335" type="line"/>
      <point x="567" y="871" type="line"/>
      <point x="579" y="859" type="line"/>
      <point x="824" y="608" type="line"/>
      <point x="828" y="608" type="line"/>
      <point x="828" y="652" type="line"/>
    </contour>
    <contour>
      <point x="1116" y="0" type="line"/>
      <point x="1152" y="0" type="line"/>
      <point x="1152" y="1336" type="line"/>
      <point x="1116" y="1336" type="line"/>
      <point x="1116" y="288" type="line"/>
      <point x="1116" y="276" type="line"/>
      <point x="1118" y="260" type="line"/>
    </contour>
  </outline>
</glyph>
<glyph name="Pa.or" format="2">
  <advance width="1453"/>
  <unicode hex="0B2A"/>
  <anchor x="1267" y="9" name="bottom"/>
  <anchor x="831" y="7" name="nukta"/>
  <anchor x="696" y="1713" name="top1"/>
  <anchor x="1231" y="1451" name="top2"/>
  <outline>
    <contour>
      <point x="1231" y="0" type="line"/>
      <point x="1267" y="0" type="line"/>
      <point x="1267" y="1336" type="line"/>
      <point x="1231" y="1336" type="line"/>
      <point x="1235" y="1007" type="line"/>
      <point x="1230" y="1007" type="line"/>
      <point x="1232" y="977" type="line"/>
      <point x="1232" y="276" type="line"/>
      <point x="1233" y="260" type="line"/>
    </contour>
    <contour>
      <point x="395" y="494" type="curve"/>
      <point x="406" y="530" type="line"/>
      <point x="236" y="579"/>
      <point x="157" y="696"/>
      <point x="157" y="869" type="curve" smooth="yes"/>
      <point x="157" y="906" type="line" smooth="yes"/>
      <point x="157" y="1184"/>
      <point x="337" y="1333"/>
      <point x="681" y="1333" type="curve" smooth="yes"/>
      <point x="1027" y="1333"/>
      <point x="1227" y="1168"/>
      <point x="1232" y="895" type="curve"/>
      <point x="1248" y="895" type="line"/>
      <point x="1246" y="950" type="line"/>
      <point x="1230" y="1211"/>
      <point x="1029" y="1366"/>
      <point x="681" y="1366" type="curve" smooth="yes"/>
      <point x="313" y="1366"/>
      <point x="120" y="1206"/>
      <point x="120" y="905" type="curve" smooth="yes"/>
      <point x="120" y="868" type="line" smooth="yes"/>
      <point x="120" y="676"/>
      <point x="209" y="551"/>
    </contour>
    <contour>
      <point x="797" y="-16" type="curve" smooth="yes"/>
      <point x="1063" y="-16"/>
      <point x="1221" y="116"/>
      <point x="1249" y="317" type="curve"/>
      <point x="1252" y="331" type="line"/>
      <point x="1235" y="327" type="line"/>
      <point x="1189" y="132"/>
      <point x="1046" y="18"/>
      <point x="798" y="18" type="curve" smooth="yes"/>
      <point x="523" y="18"/>
      <point x="399" y="142"/>
      <point x="399" y="349" type="curve" smooth="yes"/>
      <point x="399" y="393" type="line" smooth="yes"/>
      <point x="399" y="577"/>
      <point x="503" y="687"/>
      <point x="713" y="704" type="curve"/>
      <point x="713" y="737" type="line"/>
      <point x="519" y="718"/>
      <point x="423" y="635"/>
      <point x="383" y="522" type="curve"/>
      <point x="378" y="510" type="line"/>
      <point x="368" y="478"/>
      <point x="362" y="436"/>
      <point x="362" y="394" type="curve" smooth="yes"/>
      <point x="362" y="349" type="line" smooth="yes"/>
      <point x="362" y="118"/>
      <point x="497" y="-16"/>
    </contour>
  </outline>
</glyph>
<glyph name="Ba.or" format="2">
  <advance width="1472"/>
  <unicode hex="0B2C"/>
  <anchor x="1031" y="9" name="bottom"/>
  <anchor x="737" y="7" name="nukta"/>
  <anchor x="737" y="1713" name="top1"/>
  <anchor x="1139" y="1451" name="top2"/>
  <outline>
    <contour>
      <point x="728" y="145" type="curve" smooth="yes"/>
      <point x="555" y="145"/>
      <point x="465" y="241"/>
      <point x="465" y="414" type="curve" smooth="yes"/>
      <point x="465" y="454" type="line" smooth="yes"/>
      <point x="465" y="629"/>
      <point x="556" y="723"/>
      <point x="730" y="723" type="curve" smooth="yes"/>
      <point x="902" y="723"/>
      <point x="995" y="629"/>
      <point x="995" y="454" type="curve" smooth="yes"/>
      <point x="995" y="385" type="line" smooth="yes"/>
      <point x="995" y="241"/>
      <point x="897" y="145"/>
    </contour>
    <contour>
      <point x="995" y="0" type="line"/>
      <point x="1031" y="0" type="line"/>
      <point x="1031" y="454" type="line" smooth="yes"/>
      <point x="1031" y="652"/>
      <point x="926" y="756"/>
      <point x="730" y="756" type="curve" smooth="yes"/>
      <point x="534" y="756"/>
      <point x="434" y="649"/>
      <point x="428" y="460" type="curve"/>
      <point x="428" y="438" type="line"/>
      <point x="428" y="414" type="line"/>
      <point x="428" y="218"/>
      <point x="534" y="112"/>
      <point x="722" y="112" type="curve" smooth="yes"/>
      <point x="915" y="112"/>
      <point x="997" y="215"/>
      <point x="1006" y="335" type="curve"/>
      <point x="998" y="323" type="line"/>
      <point x="995" y="136" type="line"/>
    </contour>
    <contour>
      <point x="440" y="430" type="curve"/>
      <point x="448" y="464" type="line"/>
      <point x="250" y="516"/>
      <point x="157" y="637"/>
      <point x="157" y="825" type="curve" smooth="yes"/>
      <point x="157" y="883" type="line" smooth="yes"/>
      <point x="157" y="1174"/>
      <point x="354" y="1333"/>
      <point x="732" y="1333" type="curve" smooth="yes"/>
      <point x="1120" y="1333"/>
      <point x="1315" y="1161"/>
      <point x="1315" y="859" type="curve" smooth="yes"/>
      <point x="1315" y="785" type="line" smooth="yes"/>
      <point x="1315" y="682"/>
      <point x="1288" y="587"/>
      <point x="1240" y="495" type="curve"/>
      <point x="1283" y="502" type="line"/>
      <point x="1326" y="588"/>
      <point x="1352" y="675"/>
      <point x="1352" y="787" type="curve" smooth="yes"/>
      <point x="1352" y="859" type="line" smooth="yes"/>
      <point x="1352" y="1183"/>
      <point x="1144" y="1366"/>
      <point x="734" y="1366" type="curve" smooth="yes"/>
      <point x="331" y="1366"/>
      <point x="120" y="1194"/>
      <point x="120" y="883" type="curve" smooth="yes"/>
      <point x="120" y="825" type="line" smooth="yes"/>
      <point x="120" y="617"/>
      <point x="226" y="486"/>
    </contour>
  </outline>
</glyph>
<glyph name="Bha.or" format="2">
  <advance width="1585"/>
  <unicode hex="0B2D"/>
  <anchor x="804" y="9" name="bottom"/>
  <anchor x="749" y="7" name="nukta"/>
  <anchor x="749" y="1713" name="top1"/>
  <anchor x="1198" y="1451" name="top2"/>
  <outline>
    <contour>
      <point x="1640" y="-124" type="line"/>
      <point x="1640" y="-85" type="line"/>
      <point x="1306" y="39" type="line"/>
      <point x="1315" y="24" type="line"/>
      <point x="1393" y="126"/>
      <point x="1437" y="252"/>
      <point x="1437" y="410" type="curve" smooth="yes"/>
      <point x="1437" y="762" type="line" smooth="yes"/>
      <point x="1437" y="1158"/>
      <point x="1198" y="1366"/>
      <point x="761" y="1366" type="curve" smooth="yes"/>
      <point x="341" y="1366"/>
      <point x="120" y="1183"/>
      <point x="120" y="870" type="curve" smooth="yes"/>
      <point x="120" y="798" type="line" smooth="yes"/>
      <point x="120" y="626"/>
      <point x="193" y="502"/>
      <point x="358" y="445" type="curve"/>
      <point x="365" y="479" type="line"/>
      <point x="220" y="532"/>
      <point x="157" y="645"/>
      <point x="157" y="798" type="curve" smooth="yes"/>
      <point x="157" y="870" type="line" smooth="yes"/>
      <point x="157" y="1159"/>
      <point x="364" y="1333"/>
      <point x="759" y="1333" type="curve" smooth="yes"/>
      <point x="1176" y="1333"/>
      <point x="1401" y="1137"/>
      <point x="1401" y="762" type="curve" smooth="yes"/>
      <point x="1401" y="410" type="line" smooth="yes"/>
      <point x="1401" y="263"/>
      <point x="1358" y="130"/>
      <point x="1270" y="19" type="curve"/>
    </contour>
    <contour>
      <point x="725" y="-16" type="curve" smooth="yes"/>
      <point x="971" y="-16"/>
      <point x="1099" y="112"/>
      <point x="1099" y="328" type="curve" smooth="yes"/>
      <point x="1099" y="484" type="line" smooth="yes"/>
      <point x="1099" y="549"/>
      <point x="1090" y="625"/>
      <point x="1077" y="695" type="curve"/>
      <point x="1043" y="695" type="line"/>
      <point x="1056" y="624"/>
      <point x="1063" y="556"/>
      <point x="1063" y="482" type="curve"/>
      <point x="1064" y="342" type="line"/>
      <point x="1067" y="330" type="line"/>
      <point x="1062" y="128"/>
      <point x="950" y="17"/>
      <point x="725" y="17" type="curve" smooth="yes"/>
      <point x="495" y="17"/>
      <point x="380" y="136"/>
      <point x="380" y="335" type="curve" smooth="yes"/>
      <point x="380" y="488" type="line" smooth="yes"/>
      <point x="380" y="597"/>
      <point x="404" y="672"/>
      <point x="449" y="750" type="curve"/>
      <point x="412" y="750" type="line"/>
      <point x="370" y="681"/>
      <point x="343" y="603"/>
      <point x="343" y="488" type="curve"/>
      <point x="343" y="469" type="line"/>
      <point x="343" y="336" type="line"/>
      <point x="343" y="113"/>
      <point x="472" y="-16"/>
    </contour>
    <contour>
      <point x="881" y="176" type="curve" smooth="yes"/>
      <point x="1004" y="176"/>
      <point x="1066" y="248"/>
      <point x="1075" y="363" type="curve"/>
      <point x="1089" y="363" type="line"/>
      <point x="1064" y="413" type="line"/>
      <point x="1063" y="275"/>
      <point x="1001" y="207"/>
      <point x="883" y="207" type="curve" smooth="yes"/>
      <point x="778" y="207"/>
      <point x="714" y="272"/>
      <point x="714" y="395" type="curve" smooth="yes"/>
      <point x="714" y="516" type="line" smooth="yes"/>
      <point x="714" y="585"/>
      <point x="724" y="633"/>
      <point x="745" y="695" type="curve"/>
      <point x="711" y="695" type="line"/>
      <point x="689" y="638"/>
      <point x="678" y="583"/>
      <point x="678" y="515" type="curve" smooth="yes"/>
      <point x="678" y="396" type="line" smooth="yes"/>
      <point x="678" y="249"/>
      <point x="754" y="176"/>
    </contour>
  </outline>
</glyph>
<glyph name="Ya.or" format="2">
  <advance width="1481"/>
  <unicode hex="0B2F"/>
  <anchor x="1295" y="9" name="bottom"/>
  <anchor x="836" y="7" name="nukta"/>
  <anchor x="715" y="1713" name="top1"/>
  <anchor x="1259" y="1451" name="top2"/>
  <outline>
    <contour>
      <point x="16" y="313" type="line"/>
      <point x="432" y="540" type="line"/>
      <point x="458" y="554" type="line"/>
      <point x="779" y="729" type="line"/>
      <point x="779" y="769" type="line"/>
      <point x="417" y="570" type="line"/>
      <point x="404" y="564" type="line"/>
      <point x="16" y="353" type="line"/>
    </contour>
    <contour>
      <point x="1259" y="0" type="line"/>
      <point x="1295" y="0" type="line"/>
      <point x="1295" y="1336" type="line"/>
      <point x="1259" y="1336" type="line"/>
      <point x="1263" y="1007" type="line"/>
      <point x="1258" y="1007" type="line"/>
      <point x="1260" y="977" type="line"/>
      <point x="1260" y="276" type="line"/>
      <point x="1261" y="260" type="line"/>
    </contour>
    <contour>
      <point x="415" y="550" type="curve"/>
      <point x="449" y="575" type="line"/>
      <point x="270" y="620"/>
      <point x="185" y="733"/>
      <point x="185" y="899" type="curve" smooth="yes"/>
      <point x="185" y="937" type="line" smooth="yes"/>
      <point x="185" y="1196"/>
      <point x="365" y="1333"/>
      <point x="709" y="1333" type="curve" smooth="yes"/>
      <point x="1055" y="1333"/>
      <point x="1255" y="1168"/>
      <point x="1260" y="895" type="curve"/>
      <point x="1276" y="895" type="line"/>
      <point x="1274" y="950" type="line"/>
      <point x="1258" y="1211"/>
      <point x="1057" y="1366"/>
      <point x="709" y="1366" type="curve" smooth="yes"/>
      <point x="341" y="1366"/>
      <point x="148" y="1218"/>
      <point x="148" y="936" type="curve" smooth="yes"/>
      <point x="148" y="898" type="line" smooth="yes"/>
      <point x="148" y="723"/>
      <point x="238" y="601"/>
    </contour>
    <contour>
      <point x="824" y="-16" type="curve" smooth="yes"/>
      <point x="1091" y="-16"/>
      <point x="1249" y="116"/>
      <point x="1277" y="317" type="curve"/>
      <point x="1280" y="331" type="line"/>
      <point x="1263" y="327" type="line"/>
      <point x="1217" y="132"/>
      <point x="1074" y="18"/>
      <point x="825" y="18" type="curve" smooth="yes"/>
      <point x="549" y="18"/>
      <point x="425" y="142"/>
      <point x="425" y="349" type="curve" smooth="yes"/>
      <point x="425" y="373" type="line" smooth="yes"/>
      <point x="425" y="455"/>
      <point x="441" y="535"/>
      <point x="504" y="583" type="curve"/>
      <point x="447" y="568" type="line"/>
      <point x="405" y="518"/>
      <point x="388" y="457"/>
      <point x="388" y="374" type="curve" smooth="yes"/>
      <point x="388" y="349" type="line" smooth="yes"/>
      <point x="388" y="118"/>
      <point x="523" y="-16"/>
    </contour>
  </outline>
</glyph>
<glyph name="Ra.or" format="2">
  <advance width="1494"/>
  <unicode hex="0B30"/>
  <anchor x="737" y="9" name="bottom"/>
  <anchor x="764" y="7" name="nukta"/>
  <anchor x="713" y="1713" name="top1"/>
  <anchor x="1126" y="1451" name="top2"/>
  <outline>
    <contour>
      <point x="1539" y="-124" type="line"/>
      <point x="1539" y="-85" type="line"/>
      <point x="1203" y="40" type="line"/>
      <point x="1214" y="24" type="line"/>
      <point x="1298" y="126"/>
      <point x="1346" y="252"/>
      <point x="1346" y="410" type="curve" smooth="yes"/>
      <point x="1346" y="798" type="line" smooth="yes"/>
      <point x="1346" y="1174"/>
      <point x="1121" y="1366"/>
      <point x="712" y="1366" type="curve" smooth="yes"/>
      <point x="324" y="1366"/>
      <point x="120" y="1195"/>
      <point x="120" y="883" type="curve" smooth="yes"/>
      <point x="120" y="824" type="line" smooth="yes"/>
      <point x="120" y="618"/>
      <point x="214" y="493"/>
      <point x="399" y="429" type="curve"/>
      <point x="404" y="464" type="line"/>
      <point x="241" y="522"/>
      <point x="157" y="638"/>
      <point x="157" y="825" type="curve" smooth="yes"/>
      <point x="157" y="885" type="line" smooth="yes"/>
      <point x="157" y="1175"/>
      <point x="348" y="1333"/>
      <point x="712" y="1333" type="curve" smooth="yes"/>
      <point x="1099" y="1333"/>
      <point x="1310" y="1152"/>
      <point x="1310" y="798" type="curve" smooth="yes"/>
      <point x="1310" y="410" type="line" smooth="yes"/>
      <point x="1310" y="263"/>
      <point x="1264" y="130"/>
      <point x="1169" y="19" type="curve"/>
    </contour>
    <contour>
      <point x="683" y="-16" type="curve" smooth="yes"/>
      <point x="886" y="-16"/>
      <point x="994" y="96"/>
      <point x="994" y="310" type="curve" smooth="yes"/>
      <point x="994" y="410" type="line" smooth="yes"/>
      <point x="994" y="624"/>
      <point x="886" y="736"/>
      <point x="683" y="736" type="curve" smooth="yes"/>
      <point x="480" y="736"/>
      <point x="377" y="624"/>
      <point x="371" y="416" type="curve"/>
      <point x="371" y="406" type="line"/>
      <point x="371" y="402"/>
      <point x="371" y="398"/>
      <point x="371" y="394" type="curve"/>
      <point x="371" y="311" type="line" smooth="yes"/>
      <point x="371" y="96"/>
      <point x="480" y="-16"/>
    </contour>
    <contour>
      <point x="683" y="17" type="curve" smooth="yes"/>
      <point x="501" y="17"/>
      <point x="408" y="120"/>
      <point x="408" y="310" type="curve" smooth="yes"/>
      <point x="408" y="410" type="line" smooth="yes"/>
      <point x="408" y="601"/>
      <point x="502" y="703"/>
      <point x="683" y="703" type="curve" smooth="yes"/>
      <point x="862" y="703"/>
      <point x="958" y="601"/>
      <point x="958" y="410" type="curve" smooth="yes"/>
      <point x="958" y="310" type="line" smooth="yes"/>
      <point x="958" y="120"/>
      <point x="862" y="17"/>
    </contour>
  </outline>
</glyph>
<glyph name="La.or" format="2">
  <advance width="1617"/>
  <unicode hex="0B32"/>
  <anchor x="1139" y="9" name="bottom"/>
  <anchor x="776" y="7" name="nukta"/>
  <anchor x="776" y="1713" name="top1"/>
  <anchor x="1227" y="1451" name="top2"/>
  <outline>
    <contour>
      <point x="1682" y="-124" type="line"/>
      <point x="1682" y="-86" type="line"/>
      <point x="1366" y="36" type="line"/>
      <point x="1373" y="17" type="line"/>
      <point x="1432" y="115"/>
      <point x="1467" y="243"/>
      <point x="1467" y="396" type="curve" smooth="yes"/>
      <point x="1467" y="765" type="line" smooth="yes"/>
      <point x="1467" y="1157"/>
      <point x="1232" y="1366"/>
      <point x="783" y="1366" type="curve" smooth="yes"/>
      <point x="343" y="1366"/>
      <point x="120" y="1191"/>
      <point x="120" y="861" type="curve" smooth="yes"/>
      <point x="120" y="798" type="line" smooth="yes"/>
      <point x="120" y="629"/>
      <point x="178" y="526"/>
      <point x="297" y="468" type="curve"/>
      <point x="303" y="504" type="line"/>
      <point x="206" y="556"/>
      <point x="157" y="649"/>
      <point x="157" y="798" type="curve" smooth="yes"/>
      <point x="157" y="861" type="line" smooth="yes"/>
      <point x="157" y="1169"/>
      <point x="366" y="1333"/>
      <point x="781" y="1333" type="curve" smooth="yes"/>
      <point x="1209" y="1333"/>
      <point x="1431" y="1136"/>
      <point x="1431" y="765" type="curve" smooth="yes"/>
      <point x="1431" y="396" type="line" smooth="yes"/>
      <point x="1431" y="247"/>
      <point x="1397" y="123"/>
      <point x="1332" y="16" type="curve"/>
    </contour>
    <contour>
      <point x="278" y="0" type="line"/>
      <point x="314" y="0" type="line"/>
      <point x="314" y="485" type="line" smooth="yes"/>
      <point x="314" y="632"/>
      <point x="370" y="704"/>
      <point x="499" y="704" type="curve" smooth="yes"/>
      <point x="619" y="704"/>
      <point x="691" y="625"/>
      <point x="691" y="495" type="curve" smooth="yes"/>
      <point x="691" y="0" type="line"/>
      <point x="726" y="0" type="line"/>
      <point x="726" y="495" type="line" smooth="yes"/>
      <point x="726" y="625"/>
      <point x="798" y="704"/>
      <point x="918" y="704" type="curve" smooth="yes"/>
      <point x="1048" y="704"/>
      <point x="1103" y="634"/>
      <point x="1103" y="491" type="curve" smooth="yes"/>
      <point x="1103" y="0" type="line"/>
      <point x="1139" y="0" type="line"/>
      <point x="1139" y="492" type="line" smooth="yes"/>
      <point x="1139" y="656"/>
      <point x="1070" y="736"/>
      <point x="923" y="736" type="curve" smooth="yes"/>
      <point x="790" y="736"/>
      <point x="716" y="661"/>
      <point x="706" y="542" type="curve"/>
      <point x="711" y="542" type="line"/>
      <point x="701" y="661"/>
      <point x="627" y="736"/>
      <point x="499" y="736" type="curve" smooth="yes"/>
      <point x="353" y="736"/>
      <point x="279" y="657"/>
      <point x="278" y="486" type="curve"/>
      <point x="278" y="483" type="line"/>
      <point x="278" y="479"/>
      <point x="278" y="477"/>
      <point x="278" y="473" type="curve"/>
    </contour>
  </outline>
</glyph>
<glyph name="Va.or" format="2">
  <advance width="1472"/>
  <unicode hex="0B35"/>
  <anchor x="1033" y="9" name="bottom"/>
  <anchor x="737" y="7" name="nukta"/>
  <anchor x="737" y="1713" name="top1"/>
  <anchor x="1139" y="1451" name="top2"/>
  <outline>
    <contour>
      <point x="440" y="430" type="curve"/>
      <point x="448" y="464" type="line"/>
      <point x="250" y="516"/>
      <point x="157" y="637"/>
      <point x="157" y="825" type="curve" smooth="yes"/>
      <point x="157" y="883" type="line" smooth="yes"/>
      <point x="157" y="1174"/>
      <point x="354" y="1333"/>
      <point x="732" y="1333" type="curve" smooth="yes"/>
      <point x="1120" y="1333"/>
      <point x="1315" y="1161"/>
      <point x="1315" y="859" type="curve" smooth="yes"/>
      <point x="1315" y="785" type="line" smooth="yes"/>
      <point x="1315" y="682"/>
      <point x="1288" y="587"/>
      <point x="1240" y="495" type="curve"/>
      <point x="1283" y="502" type="line"/>
      <point x="1326" y="588"/>
      <point x="1352" y="675"/>
      <point x="1352" y="787" type="curve" smooth="yes"/>
      <point x="1352" y="859" type="line" smooth="yes"/>
      <point x="1352" y="1183"/>
      <point x="1144" y="1366"/>
      <point x="734" y="1366" type="curve" smooth="yes"/>
      <point x="331" y="1366"/>
      <point x="120" y="1194"/>
      <point x="120" y="883" type="curve" smooth="yes"/>
      <point x="120" y="825" type="line" smooth="yes"/>
      <point x="120" y="617"/>
      <point x="226" y="486"/>
    </contour>
    <contour>
      <point x="997" y="0" type="line"/>
      <point x="1033" y="0" type="line"/>
      <point x="1033" y="454" type="line" smooth="yes"/>
      <point x="1033" y="652"/>
      <point x="927" y="756"/>
      <point x="730" y="756" type="curve" smooth="yes"/>
      <point x="533" y="756"/>
      <point x="432" y="649"/>
      <point x="426" y="460" type="curve"/>
      <point x="426" y="438" type="line"/>
      <point x="426" y="414" type="line"/>
      <point x="426" y="218"/>
      <point x="533" y="112"/>
      <point x="722" y="112" type="curve" smooth="yes"/>
      <point x="916" y="112"/>
      <point x="999" y="215"/>
      <point x="1008" y="335" type="curve"/>
      <point x="1000" y="323" type="line"/>
      <point x="997" y="136" type="line"/>
    </contour>
    <contour>
      <point x="728" y="145" type="curve" smooth="yes"/>
      <point x="554" y="145"/>
      <point x="463" y="241"/>
      <point x="463" y="414" type="curve" smooth="yes"/>
      <point x="463" y="454" type="line" smooth="yes"/>
      <point x="463" y="629"/>
      <point x="555" y="723"/>
      <point x="730" y="723" type="curve" smooth="yes"/>
      <point x="903" y="723"/>
      <point x="997" y="629"/>
      <point x="997" y="454" type="curve" smooth="yes"/>
      <point x="997" y="385" type="line" smooth="yes"/>
      <point x="997" y="241"/>
      <point x="898" y="145"/>
    </contour>
    <contour>
      <point x="732" y="349" type="curve" smooth="yes"/>
      <point x="767" y="349"/>
      <point x="782" y="372"/>
      <point x="782" y="415" type="curve" smooth="yes"/>
      <point x="782" y="455" type="line" smooth="yes"/>
      <point x="782" y="498"/>
      <point x="767" y="521"/>
      <point x="732" y="521" type="curve" smooth="yes"/>
      <point x="697" y="521"/>
      <point x="682" y="498"/>
      <point x="682" y="455" type="curve" smooth="yes"/>
      <point x="682" y="415" type="line" smooth="yes"/>
      <point x="682" y="372"/>
      <point x="697" y="349"/>
    </contour>
  </outline>
</glyph>
<glyph name="Sha.or" format="2">
  <advance width="1483"/>
  <unicode hex="0B36"/>
  <anchor x="1297" y="9" name="bottom"/>
  <anchor x="776" y="7" name="nukta"/>
  <anchor x="759" y="1713" name="top1"/>
  <anchor x="1261" y="1451" name="top2"/>
  <outline>
    <contour>
      <point x="646" y="-16" type="curve" smooth="yes"/>
      <point x="849" y="-16"/>
      <point x="957" y="94"/>
      <point x="957" y="305" type="curve" smooth="yes"/>
      <point x="957" y="388" type="line" smooth="yes"/>
      <point x="957" y="599"/>
      <point x="849" y="709"/>
      <point x="646" y="709" type="curve" smooth="yes"/>
      <point x="443" y="709"/>
      <point x="340" y="599"/>
      <point x="334" y="394" type="curve"/>
      <point x="334" y="384" type="line"/>
      <point x="334" y="380"/>
      <point x="334" y="376"/>
      <point x="334" y="372" type="curve"/>
      <point x="334" y="306" type="line" smooth="yes"/>
      <point x="334" y="94"/>
      <point x="443" y="-16"/>
    </contour>
    <contour>
      <point x="646" y="17" type="curve" smooth="yes"/>
      <point x="464" y="17"/>
      <point x="371" y="118"/>
      <point x="371" y="305" type="curve" smooth="yes"/>
      <point x="371" y="388" type="line" smooth="yes"/>
      <point x="371" y="576"/>
      <point x="465" y="676"/>
      <point x="646" y="676" type="curve" smooth="yes"/>
      <point x="825" y="676"/>
      <point x="921" y="576"/>
      <point x="921" y="388" type="curve" smooth="yes"/>
      <point x="921" y="305" type="line" smooth="yes"/>
      <point x="921" y="118"/>
      <point x="825" y="17"/>
    </contour>
    <contour>
      <point x="351" y="430" type="curve"/>
      <point x="359" y="465" type="line"/>
      <point x="216" y="495"/>
      <point x="137" y="577"/>
      <point x="137" y="707" type="curve" smooth="yes"/>
      <point x="137" y="723" type="line" smooth="yes"/>
      <point x="137" y="907"/>
      <point x="280" y="981"/>
      <point x="527" y="981" type="curve" smooth="yes"/>
      <point x="537" y="981" type="line" smooth="yes"/>
      <point x="648" y="981"/>
      <point x="772" y="962"/>
      <point x="856" y="935" type="curve"/>
      <point x="851" y="968" type="line"/>
      <point x="782" y="991"/>
      <point x="647" y="1013"/>
      <point x="538" y="1013" type="curve"/>
      <point x="527" y="1013" type="line"/>
      <point x="257" y="1013"/>
      <point x="100" y="923"/>
      <point x="100" y="723" type="curve" smooth="yes"/>
      <point x="100" y="707" type="line" smooth="yes"/>
      <point x="100" y="558"/>
      <point x="190" y="469"/>
    </contour>
    <contour>
      <point x="1261" y="0" type="line"/>
      <point x="1297" y="0" type="line"/>
      <point x="1297" y="1336" type="line"/>
      <point x="1261" y="1336" type="line"/>
      <point x="1264" y="1089" type="line"/>
      <point x="1256" y="1089" type="line"/>
      <point x="1261" y="1066" type="line"/>
    </contour>
    <contour>
      <point x="491" y="991" type="curve"/>
      <point x="525" y="995" type="line"/>
      <point x="518" y="1021"/>
      <point x="515" y="1047"/>
      <point x="515" y="1080" type="curve" smooth="yes"/>
      <point x="515" y="1247"/>
      <point x="626" y="1332"/>
      <point x="855" y="1332" type="curve" smooth="yes"/>
      <point x="1112" y="1332"/>
      <point x="1258" y="1199"/>
      <point x="1261" y="987" type="curve"/>
      <point x="1284" y="987" type="line"/>
      <point x="1273" y="1035" type="line"/>
      <point x="1265" y="1240"/>
      <point x="1115" y="1364"/>
      <point x="855" y="1364" type="curve" smooth="yes"/>
      <point x="602" y="1364"/>
      <point x="479" y="1265"/>
      <point x="479" y="1079" type="curve" smooth="yes"/>
      <point x="479" y="1045"/>
      <point x="483" y="1016"/>
    </contour>
  </outline>
</glyph>
<glyph name="Ssa.or" format="2">
  <advance width="1453"/>
  <unicode hex="0B37"/>
  <anchor x="1267" y="9" name="bottom"/>
  <anchor x="833" y="7" name="nukta"/>
  <anchor x="696" y="1713" name="top1"/>
  <anchor x="1231" y="1451" name="top2"/>
  <outline>
    <contour>
      <point x="395" y="494" type="curve"/>
      <point x="406" y="530" type="line"/>
      <point x="236" y="579"/>
      <point x="157" y="696"/>
      <point x="157" y="869" type="curve" smooth="yes"/>
      <point x="157" y="905" type="line" smooth="yes"/>
      <point x="157" y="1099"/>
      <point x="245" y="1231"/>
      <point x="415" y="1292" type="curve"/>
      <point x="431" y="1298" type="line"/>
      <point x="503" y="1321"/>
      <point x="586" y="1333"/>
      <point x="681" y="1333" type="curve" smooth="yes"/>
      <point x="1027" y="1333"/>
      <point x="1227" y="1168"/>
      <point x="1232" y="895" type="curve"/>
      <point x="1248" y="895" type="line"/>
      <point x="1246" y="950" type="line"/>
      <point x="1230" y="1211"/>
      <point x="1029" y="1366"/>
      <point x="681" y="1366" type="curve" smooth="yes"/>
      <point x="315" y="1366"/>
      <point x="120" y="1206"/>
      <point x="120" y="904" type="curve" smooth="yes"/>
      <point x="120" y="868" type="line" smooth="yes"/>
      <point x="120" y="676"/>
      <point x="209" y="551"/>
    </contour>
    <contour>
      <point x="797" y="-16" type="curve" smooth="yes"/>
      <point x="1063" y="-16"/>
      <point x="1221" y="116"/>
      <point x="1249" y="317" type="curve"/>
      <point x="1252" y="331" type="line"/>
      <point x="1235" y="327" type="line"/>
      <point x="1189" y="132"/>
      <point x="1046" y="18"/>
      <point x="798" y="18" type="curve" smooth="yes"/>
      <point x="523" y="18"/>
      <point x="399" y="142"/>
      <point x="399" y="349" type="curve" smooth="yes"/>
      <point x="399" y="393" type="line" smooth="yes"/>
      <point x="399" y="584"/>
      <point x="522" y="701"/>
      <point x="763" y="715" type="curve" smooth="yes"/>
      <point x="785" y="716"/>
      <point x="802" y="715"/>
      <point x="816" y="712" type="curve"/>
      <point x="802" y="743" type="line"/>
      <point x="792" y="745"/>
      <point x="780" y="749"/>
      <point x="764" y="748" type="curve" smooth="yes"/>
      <point x="541" y="735"/>
      <point x="429" y="641"/>
      <point x="384" y="524" type="curve"/>
      <point x="379" y="510" type="line"/>
      <point x="369" y="478"/>
      <point x="362" y="436"/>
      <point x="362" y="394" type="curve" smooth="yes"/>
      <point x="362" y="349" type="line" smooth="yes"/>
      <point x="362" y="118"/>
      <point x="497" y="-16"/>
    </contour>
    <contour>
      <point x="1163" y="139" type="line"/>
      <point x="1185" y="163" type="line"/>
      <point x="425" y="1325" type="line"/>
      <point x="395" y="1308" type="line"/>
    </contour>
    <contour>
      <point x="1231" y="0" type="line"/>
      <point x="1267" y="0" type="line"/>
      <point x="1267" y="1336" type="line"/>
      <point x="1231" y="1336" type="line"/>
      <point x="1235" y="1007" type="line"/>
      <point x="1232" y="988" type="line"/>
      <point x="1232" y="770" type="line"/>
      <point x="1232" y="276" type="line"/>
      <point x="1233" y="260" type="line"/>
    </contour>
  </outline>
</glyph>
<glyph name="Sa.or" format="2">
  <advance width="1386"/>
  <unicode hex="0B38"/>
  <anchor x="1200" y="9" name="bottom"/>
  <anchor x="714" y="7" name="nukta"/>
  <anchor x="661" y="1713" name="top1"/>
  <anchor x="1164" y="1451" name="top2"/>
  <outline>
    <contour>
      <point x="1164" y="1336" type="line"/>
      <point x="1168" y="1007" type="line"/>
      <point x="1161" y="1007" type="line"/>
      <point x="1164" y="978" type="line"/>
      <point x="1164" y="823" type="line"/>
      <point x="1164" y="21" type="line"/>
      <point x="1179" y="32" type="line"/>
      <point x="244" y="223" type="line"/>
      <point x="244" y="234" type="line"/>
      <point x="1180" y="781" type="line"/>
      <point x="1180" y="820" type="line"/>
      <point x="657" y="515" type="line"/>
      <point x="639" y="503" type="line"/>
      <point x="207" y="250" type="line"/>
      <point x="207" y="196" type="line"/>
      <point x="1168" y="0" type="line"/>
      <point x="1200" y="0" type="line"/>
      <point x="1200" y="1336" type="line"/>
    </contour>
    <contour>
      <point x="674" y="521" type="line"/>
      <point x="377" y="521"/>
      <point x="159" y="648"/>
      <point x="159" y="902" type="curve" smooth="yes"/>
      <point x="159" y="944" type="line" smooth="yes"/>
      <point x="159" y="1197"/>
      <point x="323" y="1333"/>
      <point x="635" y="1333" type="curve" smooth="yes"/>
      <point x="967" y="1333"/>
      <point x="1160" y="1168"/>
      <point x="1164" y="896" type="curve"/>
      <point x="1189" y="896" type="line"/>
      <point x="1178" y="950" type="line"/>
      <point x="1163" y="1211"/>
      <point x="968" y="1366"/>
      <point x="635" y="1366" type="curve" smooth="yes"/>
      <point x="298" y="1366"/>
      <point x="122" y="1218"/>
      <point x="122" y="943" type="curve" smooth="yes"/>
      <point x="122" y="901" type="line" smooth="yes"/>
      <point x="122" y="632"/>
      <point x="344" y="489"/>
      <point x="670" y="490" type="curve"/>
    </contour>
  </outline>
</glyph>
<glyph name="Ha.or" format="2">
  <advance width="1485"/>
  <unicode hex="0B39"/>
  <anchor x="751" y="-146" name="bottom"/>
  <anchor x="754" y="-156" name="nukta"/>
  <anchor x="743" y="1713" name="top1"/>
  <anchor x="1145" y="1451" name="top2"/>
  <outline>
    <contour>
      <point x="420" y="428" type="curve"/>
      <point x="426" y="462" type="line"/>
      <point x="243" y="519"/>
      <point x="157" y="640"/>
      <point x="157" y="825" type="curve" smooth="yes"/>
      <point x="157" y="883" type="line" smooth="yes"/>
      <point x="157" y="1174"/>
      <point x="355" y="1333"/>
      <point x="735" y="1333" type="curve" smooth="yes"/>
      <point x="1126" y="1333"/>
      <point x="1328" y="1159"/>
      <point x="1328" y="859" type="curve" smooth="yes"/>
      <point x="1328" y="785" type="line" smooth="yes"/>
      <point x="1328" y="682"/>
      <point x="1301" y="587"/>
      <point x="1253" y="495" type="curve"/>
      <point x="1296" y="502" type="line"/>
      <point x="1339" y="588"/>
      <point x="1365" y="675"/>
      <point x="1365" y="787" type="curve" smooth="yes"/>
      <point x="1365" y="859" type="line" smooth="yes"/>
      <point x="1365" y="1181"/>
      <point x="1150" y="1366"/>
      <point x="737" y="1366" type="curve" smooth="yes"/>
      <point x="332" y="1366"/>
      <point x="120" y="1194"/>
      <point x="120" y="883" type="curve" smooth="yes"/>
      <point x="120" y="825" type="line" smooth="yes"/>
      <point x="120" y="620"/>
      <point x="219" y="488"/>
    </contour>
    <contour>
      <point x="1106" y="-271" type="line"/>
      <point x="1106" y="-234" type="line"/>
      <point x="370" y="-48" type="line"/>
      <point x="370" y="-34" type="line"/>
      <point x="618" y="136" type="line"/>
      <point x="585" y="154" type="line"/>
      <point x="332" y="-19" type="line"/>
      <point x="332" y="-74" type="line"/>
    </contour>
    <contour>
      <point x="989" y="0" type="line"/>
      <point x="1025" y="0" type="line"/>
      <point x="1025" y="712" type="line"/>
      <point x="989" y="712" type="line"/>
      <point x="989" y="334" type="line"/>
      <point x="991" y="364" type="line"/>
      <point x="962" y="236"/>
      <point x="872" y="145"/>
      <point x="709" y="145" type="curve" smooth="yes"/>
      <point x="526" y="145"/>
      <point x="439" y="239"/>
      <point x="439" y="404" type="curve" smooth="yes"/>
      <point x="439" y="440" type="line" smooth="yes"/>
      <point x="439" y="575"/>
      <point x="493" y="679"/>
      <point x="610" y="725" type="curve"/>
      <point x="610" y="761" type="line"/>
      <point x="467" y="707"/>
      <point x="404" y="594"/>
      <point x="402" y="440" type="curve"/>
      <point x="402" y="434" type="line"/>
      <point x="402" y="430"/>
      <point x="402" y="428"/>
      <point x="402" y="422" type="curve"/>
      <point x="402" y="405" type="line" smooth="yes"/>
      <point x="402" y="218"/>
      <point x="500" y="112"/>
      <point x="706" y="112" type="curve" smooth="yes"/>
      <point x="883" y="112"/>
      <point x="977" y="211"/>
      <point x="1000" y="333" type="curve"/>
      <point x="991" y="325" type="line"/>
      <point x="989" y="123" type="line"/>
    </contour>
  </outline>
</glyph>
<glyph name="Nukta.or" format="2">
  <unicode hex="0B3C"/>
  <anchor x="-731" y="7" name="_nukta"/>
  <outline>
    <contour>
      <point x="-732" y="-319" type="curve" smooth="yes"/>
      <point x="-699" y="-319"/>
      <point x="-685" y="-296"/>
      <point x="-685" y="-259" type="curve" smooth="yes"/>
      <point x="-685" y="-251" type="line" smooth="yes"/>
      <point x="-685" y="-211"/>
      <point x="-699" y="-189"/>
      <point x="-731" y="-189" type="curve" smooth="yes"/>
      <point x="-763" y="-189"/>
      <point x="-777" y="-211"/>
      <point x="-777" y="-251" type="curve" smooth="yes"/>
      <point x="-777" y="-259" type="line" smooth="yes"/>
      <point x="-777" y="-296"/>
      <point x="-763" y="-319"/>
    </contour>
  </outline>
</glyph>
<glyph name="Avagraha.or" format="2">
  <advance width="862"/>
  <unicode hex="0B3D"/>
  <outline>
    <contour>
      <point x="112" y="991" type="line"/>
      <point x="741" y="1353" type="line"/>
      <point x="741" y="1312" type="line"/>
      <point x="154" y="975" type="line"/>
      <point x="154" y="986" type="line"/>
      <point x="723" y="678" type="line"/>
      <point x="723" y="658" type="line"/>
      <point x="154" y="350" type="line"/>
      <point x="154" y="361" type="line"/>
      <point x="741" y="23" type="line"/>
      <point x="741" y="-18" type="line"/>
      <point x="112" y="345" type="line"/>
      <point x="112" y="366" type="line"/>
      <point x="681" y="673" type="line"/>
      <point x="681" y="663" type="line"/>
      <point x="112" y="970" type="line"/>
    </contour>
  </outline>
</glyph>
<glyph name="MatraAa.or" format="2">
  <advance width="408"/>
  <unicode hex="0B3E"/>
  <outline>
    <contour>
      <point x="222" y="1336" type="line"/>
      <point x="222" y="0" type="line"/>
      <point x="186" y="0" type="line"/>
      <point x="186" y="1336" type="line"/>
    </contour>
  </outline>
</glyph>
<glyph name="MatraI.or" format="2">
  <unicode hex="0B3F"/>
  <anchor x="-758" y="1713" name="_top1"/>
  <outline>
    <contour>
      <point x="-1310" y="1520" type="line"/>
      <point x="-1157" y="1622"/>
      <point x="-981" y="1680"/>
      <point x="-758" y="1680" type="curve" smooth="yes"/>
      <point x="-538" y="1680"/>
      <point x="-362" y="1622"/>
      <point x="-208" y="1520" type="curve"/>
      <point x="-213" y="1557" type="line"/>
      <point x="-347" y="1648"/>
      <point x="-520" y="1713"/>
      <point x="-758" y="1713" type="curve" smooth="yes"/>
      <point x="-999" y="1713"/>
      <point x="-1171" y="1648"/>
      <point x="-1306" y="1557" type="curve"/>
    </contour>
  </outline>
</glyph>
<glyph name="MatraIi.or" format="2">
  <advance width="644"/>
  <unicode hex="0B40"/>
  <outline>
    <contour>
      <point x="421" y="0" type="line"/>
      <point x="457" y="0" type="line"/>
      <point x="458" y="1336" type="line"/>
      <point x="407" y="1336" type="line"/>
      <point x="30" y="1004" type="line"/>
      <point x="30" y="962" type="line"/>
      <point x="36" y="962" type="line"/>
      <point x="413" y="1296" type="line"/>
      <point x="422" y="1296" type="line"/>
    </contour>
  </outline>
</glyph>
<glyph name="MatraVocalicR.or" format="2">
  <unicode hex="0B43"/>
  <anchor x="-186" y="9" name="_bottom"/>
  <outline>
    <contour>
      <point x="-167" y="-317" type="curve" smooth="yes"/>
      <point x="-207" y="-317"/>
      <point x="-242" y="-324"/>
      <point x="-280" y="-339" type="curve"/>
      <point x="-280" y="-310" type="line"/>
      <point x="-250" y="-295"/>
      <point x="-207" y="-286"/>
      <point x="-165" y="-286" type="curve" smooth="yes"/>
      <point x="-62" y="-286"/>
      <point x="-8" y="-334"/>
      <point x="-8" y="-422" type="curve" smooth="yes"/>
      <point x="-8" y="-429" type="line" smooth="yes"/>
      <point x="-8" y="-536"/>
      <point x="-106" y="-593"/>
      <point x="-252" y="-593" type="curve" smooth="yes"/>
      <point x="-415" y="-593"/>
      <point x="-526" y="-514"/>
      <point x="-526" y="-370" type="curve" smooth="yes"/>
      <point x="-526" y="-359" type="line" smooth="yes"/>
      <point x="-526" y="-202"/>
      <point x="-413" y="-113"/>
      <point x="-196" y="-89" type="curve"/>
      <point x="-222" y="-101" type="line"/>
      <point x="-222" y="290" type="line"/>
      <point x="-186" y="290" type="line"/>
      <point x="-186" y="-119" type="line"/>
      <point x="-388" y="-139"/>
      <point x="-490" y="-218"/>
      <point x="-490" y="-359" type="curve" smooth="yes"/>
      <point x="-490" y="-370" type="line" smooth="yes"/>
      <point x="-490" y="-495"/>
      <point x="-392" y="-561"/>
      <point x="-252" y="-561" type="curve" smooth="yes"/>
      <point x="-127" y="-561"/>
      <point x="-42" y="-515"/>
      <point x="-42" y="-429" type="curve" smooth="yes"/>
      <point x="-42" y="-422" type="line" smooth="yes"/>
      <point x="-42" y="-353"/>
      <point x="-84" y="-317"/>
    </contour>
  </outline>
</glyph>
<glyph name="MatraVocalicRr.or" format="2">
  <unicode hex="0B44"/>
  <anchor x="-186" y="9" name="_bottom"/>
  <outline>
    <contour>
      <point x="-242" y="-698" type="curve" smooth="yes"/>
      <point x="-95" y="-698"/>
      <point x="4" y="-643"/>
      <point x="4" y="-547" type="curve" smooth="yes"/>
      <point x="4" y="-540" type="line" smooth="yes"/>
      <point x="4" y="-456"/>
      <point x="-55" y="-414"/>
      <point x="-151" y="-414" type="curve" smooth="yes"/>
      <point x="-197" y="-414"/>
      <point x="-235" y="-423"/>
      <point x="-264" y="-436" type="curve"/>
      <point x="-264" y="-465" type="line"/>
      <point x="-227" y="-451"/>
      <point x="-193" y="-444"/>
      <point x="-153" y="-444" type="curve" smooth="yes"/>
      <point x="-77" y="-444"/>
      <point x="-31" y="-476"/>
      <point x="-31" y="-540" type="curve" smooth="yes"/>
      <point x="-31" y="-547" type="line" smooth="yes"/>
      <point x="-31" y="-624"/>
      <point x="-115" y="-665"/>
      <point x="-242" y="-665" type="curve" smooth="yes"/>
      <point x="-397" y="-665"/>
      <point x="-479" y="-612"/>
      <point x="-479" y="-512" type="curve" smooth="yes"/>
      <point x="-479" y="-503" type="line" smooth="yes"/>
      <point x="-479" y="-422"/>
      <point x="-423" y="-366"/>
      <point x="-315" y="-359" type="curve"/>
      <point x="-315" y="-330" type="line"/>
      <point x="-423" y="-328"/>
      <point x="-470" y="-294"/>
      <point x="-470" y="-238" type="curve" smooth="yes"/>
      <point x="-470" y="-235" type="line" smooth="yes"/>
      <point x="-470" y="-175"/>
      <point x="-416" y="-147"/>
      <point x="-316" y="-147" type="curve" smooth="yes"/>
      <point x="-258" y="-147"/>
      <point x="-211" y="-155"/>
      <point x="-162" y="-170" type="curve"/>
      <point x="-167" y="-140" type="line"/>
      <point x="-203" y="-127"/>
      <point x="-254" y="-116"/>
      <point x="-318" y="-116" type="curve" smooth="yes"/>
      <point x="-436" y="-116"/>
      <point x="-504" y="-156"/>
      <point x="-504" y="-235" type="curve" smooth="yes"/>
      <point x="-504" y="-238" type="line" smooth="yes"/>
      <point x="-504" y="-302"/>
      <point x="-461" y="-338"/>
      <point x="-366" y="-349" type="curve"/>
      <point x="-367" y="-345" type="line"/>
      <point x="-462" y="-358"/>
      <point x="-514" y="-426"/>
      <point x="-514" y="-504" type="curve" smooth="yes"/>
      <point x="-514" y="-513" type="line" smooth="yes"/>
      <point x="-514" y="-631"/>
      <point x="-417" y="-698"/>
    </contour>
  </outline>
</glyph>
<glyph name="MatraE.or" format="2">
  <advance width="993"/>
  <unicode hex="0B47"/>
  <outline>
    <contour>
      <point x="532" y="-16" type="curve" smooth="yes"/>
      <point x="767" y="-16"/>
      <point x="904" y="115"/>
      <point x="904" y="357" type="curve" smooth="yes"/>
      <point x="904" y="421" type="line" smooth="yes"/>
      <point x="904" y="654"/>
      <point x="779" y="780"/>
      <point x="546" y="780" type="curve" smooth="yes"/>
      <point x="312" y="780"/>
      <point x="188" y="648"/>
      <point x="157" y="480" type="curve"/>
      <point x="148" y="480" type="line"/>
      <point x="167" y="432" type="line"/>
      <point x="197" y="623"/>
      <point x="330" y="747"/>
      <point x="546" y="747" type="curve" smooth="yes"/>
      <point x="755" y="747"/>
      <point x="867" y="631"/>
      <point x="867" y="421" type="curve" smooth="yes"/>
      <point x="867" y="357" type="line" smooth="yes"/>
      <point x="867" y="140"/>
      <point x="742" y="17"/>
      <point x="532" y="17" type="curve" smooth="yes"/>
      <point x="304" y="17"/>
      <point x="172" y="154"/>
      <point x="172" y="402" type="curve"/>
      <point x="172" y="865" type="line"/>
      <point x="172" y="1159"/>
      <point x="294" y="1332"/>
      <point x="550" y="1332" type="curve" smooth="yes"/>
      <point x="679" y="1332"/>
      <point x="778" y="1294"/>
      <point x="858" y="1243" type="curve"/>
      <point x="853" y="1281" type="line"/>
      <point x="784" y="1324"/>
      <point x="685" y="1365"/>
      <point x="550" y="1365" type="curve" smooth="yes"/>
      <point x="270" y="1365"/>
      <point x="135" y="1179"/>
      <point x="135" y="864" type="curve" smooth="yes"/>
      <point x="135" y="402" type="line" smooth="yes"/>
      <point x="135" y="130"/>
      <point x="284" y="-16"/>
    </contour>
  </outline>
</glyph>
<glyph name="Virama.or" format="2">
  <unicode hex="0B4D"/>
  <anchor x="-186" y="9" name="_bottom"/>
  <outline>
    <contour>
      <point x="-227" y="-101" type="line"/>
      <point x="-227" y="-96" type="line"/>
      <point x="-186" y="-96" type="line"/>
      <point x="59" y="-465" type="line"/>
      <point x="59" y="-469" type="line"/>
      <point x="22" y="-469" type="line"/>
    </contour>
  </outline>
</glyph>
<glyph name="LengthmarkAi.or" format="2">
  <unicode hex="0B56"/>
  <outline>
    <contour>
      <point x="-1099" y="1829" type="line"/>
      <point x="-1099" y="1807" type="line" smooth="yes"/>
      <point x="-1099" y="1682"/>
      <point x="-1014" y="1640"/>
      <point x="-845" y="1639" type="curve" smooth="yes"/>
      <point x="-472" y="1636" type="line" smooth="yes"/>
      <point x="-282" y="1634"/>
      <point x="-186" y="1579"/>
      <point x="-186" y="1424" type="curve" smooth="yes"/>
      <point x="-186" y="1420" type="line"/>
      <point x="-221" y="1420" type="line"/>
      <point x="-221" y="1424" type="line" smooth="yes"/>
      <point x="-221" y="1558"/>
      <point x="-301" y="1602"/>
      <point x="-472" y="1603" type="curve" smooth="yes"/>
      <point x="-845" y="1606" type="line" smooth="yes"/>
      <point x="-1034" y="1608"/>
      <point x="-1134" y="1660"/>
      <point x="-1134" y="1807" type="curve" smooth="yes"/>
      <point x="-1134" y="1829" type="line"/>
    </contour>
  </outline>
</glyph>
<glyph name="LengthmarkAu.or" format="2">
  <advance width="408"/>
  <unicode hex="0B57"/>
  <outline>
    <contour>
      <point x="186" y="0" type="line"/>
      <point x="222" y="0" type="line"/>
      <point x="222" y="1337" type="line" smooth="yes"/>
      <point x="222" y="1546"/>
      <point x="141" y="1636"/>
      <point x="-84" y="1637" type="curve" smooth="yes"/>
      <point x="-437" y="1639" type="line" smooth="yes"/>
      <point x="-606" y="1640"/>
      <point x="-691" y="1682"/>
      <point x="-691" y="1807" type="curve" smooth="yes"/>
      <point x="-691" y="1829" type="line"/>
      <point x="-726" y="1829" type="line"/>
      <point x="-726" y="1807" type="line" smooth="yes"/>
      <point x="-726" y="1660"/>
      <point x="-626" y="1608"/>
      <point x="-437" y="1606" type="curve" smooth="yes"/>
      <point x="-84" y="1603" type="line" smooth="yes"/>
      <point x="121" y="1601"/>
      <point x="186" y="1526"/>
      <point x="186" y="1337" type="curve" smooth="yes"/>
    </contour>
  </outline>
</glyph>
<glyph name="Yya.or" format="2">
  <advance width="1481"/>
  <unicode hex="0B5F"/>
  <anchor x="1295" y="-287" name="bottom"/>
  <anchor x="715" y="1713" name="top1"/>
  <anchor x="1259" y="1451" name="top2"/>
  <outline>
    <contour>
      <point x="1500" y="-389" type="line"/>
      <point x="1500" y="-350" type="line"/>
      <point x="1115" y="-222" type="line"/>
      <point x="1096" y="-233" type="line"/>
      <point x="1197" y="-232" type="line"/>
      <point x="1369" y="-230"/>
      <point x="1448" y="-136"/>
      <point x="1448" y="13" type="curve" smooth="yes"/>
      <point x="1448" y="57" type="line" smooth="yes"/>
      <point x="1448" y="188"/>
      <point x="1393" y="272"/>
      <point x="1276" y="272" type="curve"/>
      <point x="1275" y="272" type="line"/>
      <point x="1186" y="272"/>
      <point x="1121" y="217"/>
      <point x="1033" y="156" type="curve" smooth="yes"/>
      <point x="898" y="62"/>
      <point x="819" y="18"/>
      <point x="699" y="18" type="curve" smooth="yes"/>
      <point x="526" y="18"/>
      <point x="425" y="122"/>
      <point x="425" y="315" type="curve" smooth="yes"/>
      <point x="425" y="373" type="line" smooth="yes"/>
      <point x="425" y="455"/>
      <point x="441" y="535"/>
      <point x="504" y="583" type="curve"/>
      <point x="447" y="568" type="line"/>
      <point x="405" y="518"/>
      <point x="388" y="457"/>
      <point x="388" y="374" type="curve" smooth="yes"/>
      <point x="388" y="315" type="line" smooth="yes"/>
      <point x="388" y="97"/>
      <point x="499" y="-16"/>
      <point x="698" y="-16" type="curve" smooth="yes"/>
      <point x="835" y="-16"/>
      <point x="916" y="36"/>
      <point x="1052" y="130" type="curve" smooth="yes"/>
      <point x="1137" y="189"/>
      <point x="1197" y="240"/>
      <point x="1274" y="240" type="curve" smooth="yes"/>
      <point x="1372" y="240"/>
      <point x="1413" y="167"/>
      <point x="1413" y="57" type="curve" smooth="yes"/>
      <point x="1413" y="14" type="line" smooth="yes"/>
      <point x="1413" y="-121"/>
      <point x="1344" y="-204"/>
      <point x="1183" y="-205" type="curve" smooth="yes"/>
      <point x="1071" y="-206" type="line"/>
      <point x="1071" y="-233" type="line"/>
    </contour>
    <contour>
      <point x="16" y="313" type="line"/>
      <point x="432" y="540" type="line"/>
      <point x="458" y="554" type="line"/>
      <point x="779" y="729" type="line"/>
      <point x="779" y="769" type="line"/>
      <point x="417" y="570" type="line"/>
      <point x="404" y="564" type="line"/>
      <point x="16" y="353" type="line"/>
    </contour>
    <contour>
      <point x="415" y="550" type="curve"/>
      <point x="449" y="575" type="line"/>
      <point x="270" y="620"/>
      <point x="185" y="733"/>
      <point x="185" y="899" type="curve" smooth="yes"/>
      <point x="185" y="937" type="line" smooth="yes"/>
      <point x="185" y="1196"/>
      <point x="365" y="1333"/>
      <point x="709" y="1333" type="curve" smooth="yes"/>
      <point x="1055" y="1333"/>
      <point x="1255" y="1168"/>
      <point x="1260" y="895" type="curve"/>
      <point x="1276" y="895" type="line"/>
      <point x="1274" y="950" type="line"/>
      <point x="1258" y="1211"/>
      <point x="1057" y="1366"/>
      <point x="709" y="1366" type="curve" smooth="yes"/>
      <point x="341" y="1366"/>
      <point x="148" y="1218"/>
      <point x="148" y="936" type="curve" smooth="yes"/>
      <point x="148" y="898" type="line" smooth="yes"/>
      <point x="148" y="723"/>
      <point x="238" y="601"/>
    </contour>
    <contour>
      <point x="1260" y="258" type="line"/>
      <point x="1295" y="258" type="line"/>
      <point x="1295" y="1336" type="line"/>
      <point x="1259" y="1336" type="line"/>
      <point x="1263" y="1007" type="line"/>
      <point x="1258" y="1007" type="line"/>
      <point x="1260" y="977" type="line"/>
    </contour>
  </outline>
</glyph>
<glyph name="VocalicRr.or" format="2">
  <advance width="1544"/>
  <unicode hex="0B60"/>
  <anchor x="749" y="1713" name="top1"/>
  <anchor x="1181" y="1451" name="top2"/>
  <outline>
    <contour>
      <point x="1501" y="-124" type="line"/>
      <point x="1501" y="-85" type="line"/>
      <point x="1171" y="42" type="line"/>
      <point x="1160" y="31" type="line"/>
      <point x="1221" y="31" type="line"/>
      <point x="1364" y="31"/>
      <point x="1448" y="96"/>
      <point x="1448" y="196" type="curve" smooth="yes"/>
      <point x="1448" y="204" type="line" smooth="yes"/>
      <point x="1448" y="292"/>
      <point x="1393" y="357"/>
      <point x="1275" y="362" type="curve"/>
      <point x="1275" y="357" type="line"/>
      <point x="1393" y="363"/>
      <point x="1446" y="431"/>
      <point x="1446" y="513" type="curve" smooth="yes"/>
      <point x="1446" y="522" type="line" smooth="yes"/>
      <point x="1446" y="620"/>
      <point x="1385" y="679"/>
      <point x="1221" y="681" type="curve"/>
      <point x="1206" y="669" type="line"/>
      <point x="1324" y="687"/>
      <point x="1382" y="767"/>
      <point x="1382" y="884" type="curve" smooth="yes"/>
      <point x="1382" y="907" type="line" smooth="yes"/>
      <point x="1382" y="1204"/>
      <point x="1161" y="1366"/>
      <point x="748" y="1366" type="curve" smooth="yes"/>
      <point x="337" y="1366"/>
      <point x="120" y="1194"/>
      <point x="120" y="882" type="curve" smooth="yes"/>
      <point x="120" y="825" type="line" smooth="yes"/>
      <point x="120" y="636"/>
      <point x="202" y="511"/>
      <point x="365" y="442" type="curve"/>
      <point x="371" y="478" type="line"/>
      <point x="226" y="543"/>
      <point x="157" y="656"/>
      <point x="157" y="825" type="curve" smooth="yes"/>
      <point x="157" y="882" type="line" smooth="yes"/>
      <point x="157" y="1174"/>
      <point x="360" y="1333"/>
      <point x="747" y="1333" type="curve" smooth="yes"/>
      <point x="1140" y="1333"/>
      <point x="1346" y="1184"/>
      <point x="1346" y="907" type="curve" smooth="yes"/>
      <point x="1346" y="883" type="line" smooth="yes"/>
      <point x="1346" y="773"/>
      <point x="1290" y="695"/>
      <point x="1166" y="687" type="curve" smooth="yes"/>
      <point x="1136" y="685" type="line"/>
      <point x="1136" y="658" type="line"/>
      <point x="1217" y="657" type="line" smooth="yes"/>
      <point x="1363" y="655"/>
      <point x="1412" y="605"/>
      <point x="1412" y="522" type="curve" smooth="yes"/>
      <point x="1412" y="513" type="line" smooth="yes"/>
      <point x="1412" y="436"/>
      <point x="1362" y="378"/>
      <point x="1233" y="375" type="curve" smooth="yes"/>
      <point x="1149" y="373" type="line"/>
      <point x="1149" y="346" type="line"/>
      <point x="1233" y="344" type="line" smooth="yes"/>
      <point x="1361" y="341"/>
      <point x="1414" y="286"/>
      <point x="1414" y="203" type="curve" smooth="yes"/>
      <point x="1414" y="195" type="line" smooth="yes"/>
      <point x="1414" y="111"/>
      <point x="1341" y="59"/>
      <point x="1215" y="57" type="curve" smooth="yes"/>
      <point x="1136" y="56" type="line"/>
      <point x="1136" y="29" type="line"/>
    </contour>
    <contour>
      <point x="668" y="-16" type="curve" smooth="yes"/>
      <point x="871" y="-16"/>
      <point x="979" y="96"/>
      <point x="979" y="310" type="curve" smooth="yes"/>
      <point x="979" y="410" type="line" smooth="yes"/>
      <point x="979" y="624"/>
      <point x="871" y="736"/>
      <point x="668" y="736" type="curve" smooth="yes"/>
      <point x="465" y="736"/>
      <point x="362" y="622"/>
      <point x="356" y="416" type="curve"/>
      <point x="356" y="406" type="line"/>
      <point x="356" y="402"/>
      <point x="356" y="398"/>
      <point x="356" y="394" type="curve"/>
      <point x="356" y="311" type="line" smooth="yes"/>
      <point x="356" y="96"/>
      <point x="465" y="-16"/>
    </contour>
    <contour>
      <point x="668" y="17" type="curve" smooth="yes"/>
      <point x="486" y="17"/>
      <point x="393" y="120"/>
      <point x="393" y="310" type="curve" smooth="yes"/>
      <point x="393" y="410" type="line" smooth="yes"/>
      <point x="393" y="601"/>
      <point x="487" y="703"/>
      <point x="668" y="703" type="curve" smooth="yes"/>
      <point x="847" y="703"/>
      <point x="943" y="601"/>
      <point x="943" y="410" type="curve" smooth="yes"/>
      <point x="943" y="310" type="line" smooth="yes"/>
      <point x="943" y="120"/>
      <point x="847" y="17"/>
    </contour>
  </outline>
</glyph>
<glyph name="VocalicLl.or" format="2">
  <advance width="1273"/>
  <unicode hex="0B61"/>
  <anchor x="990" y="1451" name="top2"/>
  <outline>
    <contour>
      <point x="672" y="-12" type="curve" smooth="yes"/>
      <point x="750" y="-12"/>
      <point x="818" y="-4"/>
      <point x="877" y="10" type="curve"/>
      <point x="898" y="16" type="line"/>
      <point x="1091" y="69"/>
      <point x="1176" y="193"/>
      <point x="1176" y="346" type="curve" smooth="yes"/>
      <point x="1176" y="374" type="line" smooth="yes"/>
      <point x="1176" y="543"/>
      <point x="1090" y="653"/>
      <point x="902" y="653" type="curve" smooth="yes"/>
      <point x="723" y="653"/>
      <point x="622" y="544"/>
      <point x="622" y="377" type="curve" smooth="yes"/>
      <point x="622" y="316" type="line" smooth="yes"/>
      <point x="622" y="150"/>
      <point x="712" y="59"/>
      <point x="843" y="20" type="curve"/>
      <point x="876" y="35" type="line"/>
      <point x="741" y="79"/>
      <point x="658" y="163"/>
      <point x="658" y="316" type="curve" smooth="yes"/>
      <point x="658" y="378" type="line" smooth="yes"/>
      <point x="658" y="531"/>
      <point x="747" y="620"/>
      <point x="901" y="620" type="curve" smooth="yes"/>
      <point x="1067" y="620"/>
      <point x="1140" y="527"/>
      <point x="1140" y="375" type="curve" smooth="yes"/>
      <point x="1140" y="346" type="line" smooth="yes"/>
      <point x="1140" y="194"/>
      <point x="1054" y="79"/>
      <point x="852" y="37" type="curve"/>
      <point x="831" y="31" type="line"/>
      <point x="780" y="24"/>
      <point x="729" y="20"/>
      <point x="672" y="20" type="curve" smooth="yes"/>
      <point x="333" y="20"/>
      <point x="158" y="141"/>
      <point x="158" y="367" type="curve" smooth="yes"/>
      <point x="158" y="397" type="line" smooth="yes"/>
      <point x="158" y="586"/>
      <point x="259" y="670"/>
      <point x="474" y="743" type="curve" smooth="yes"/>
      <point x="660" y="806" type="line" smooth="yes"/>
      <point x="855" y="872"/>
      <point x="949" y="945"/>
      <point x="949" y="1098" type="curve" smooth="yes"/>
      <point x="949" y="1111" type="line" smooth="yes"/>
      <point x="949" y="1276"/>
      <point x="841" y="1365"/>
      <point x="639" y="1365" type="curve" smooth="yes"/>
      <point x="435" y="1365"/>
      <point x="328" y="1271"/>
      <point x="328" y="1107" type="curve" smooth="yes"/>
      <point x="328" y="1097" type="line" smooth="yes"/>
      <point x="328" y="1036"/>
      <point x="339" y="992"/>
      <point x="363" y="945" type="curve"/>
      <point x="399" y="941" type="line"/>
      <point x="374" y="994"/>
      <point x="363" y="1039"/>
      <point x="363" y="1097" type="curve" smooth="yes"/>
      <point x="363" y="1107" type="line" smooth="yes"/>
      <point x="363" y="1251"/>
      <point x="455" y="1333"/>
      <point x="639" y="1333" type="curve" smooth="yes"/>
      <point x="818" y="1333"/>
      <point x="913" y="1256"/>
      <point x="913" y="1111" type="curve" smooth="yes"/>
      <point x="913" y="1097" type="line" smooth="yes"/>
      <point x="913" y="962"/>
      <point x="827" y="895"/>
      <point x="647" y="835" type="curve" smooth="yes"/>
      <point x="461" y="773" type="line" smooth="yes"/>
      <point x="231" y="696"/>
      <point x="121" y="599"/>
      <point x="121" y="397" type="curve" smooth="yes"/>
      <point x="121" y="368" type="line" smooth="yes"/>
      <point x="121" y="119"/>
      <point x="310" y="-12"/>
    </contour>
    <contour>
      <point x="1175" y="-100" type="curve"/>
      <point x="1175" y="-63" type="line"/>
      <point x="1077" y="-38"/>
      <point x="980" y="-9"/>
      <point x="883" y="29" type="curve"/>
      <point x="847" y="13" type="line"/>
      <point x="954" y="-32"/>
      <point x="1063" y="-70"/>
    </contour>
  </outline>
</glyph>
<glyph name="MatraVocalicL.or" format="2">
  <unicode hex="0B62"/>
  <outline>
    <contour>
      <point x="-115" y="-623" type="curve" smooth="yes"/>
      <point x="46" y="-623"/>
      <point x="126" y="-548"/>
      <point x="126" y="-456" type="curve" smooth="yes"/>
      <point x="126" y="-445" type="line" smooth="yes"/>
      <point x="126" y="-366"/>
      <point x="83" y="-314"/>
      <point x="-7" y="-314" type="curve" smooth="yes"/>
      <point x="-92" y="-314"/>
      <point x="-142" y="-365"/>
      <point x="-142" y="-448" type="curve" smooth="yes"/>
      <point x="-142" y="-465" type="line" smooth="yes"/>
      <point x="-142" y="-545"/>
      <point x="-91" y="-589"/>
      <point x="-19" y="-604" type="curve"/>
      <point x="-4" y="-589" type="line"/>
      <point x="-68" y="-568"/>
      <point x="-109" y="-533"/>
      <point x="-109" y="-463" type="curve" smooth="yes"/>
      <point x="-109" y="-448" type="line" smooth="yes"/>
      <point x="-109" y="-381"/>
      <point x="-73" y="-344"/>
      <point x="-7" y="-344" type="curve" smooth="yes"/>
      <point x="63" y="-344"/>
      <point x="93" y="-383"/>
      <point x="93" y="-447" type="curve" smooth="yes"/>
      <point x="93" y="-457" type="line" smooth="yes"/>
      <point x="93" y="-522"/>
      <point x="46" y="-570"/>
      <point x="-35" y="-587" type="curve"/>
      <point x="-47" y="-590" type="line"/>
      <point x="-62" y="-592"/>
      <point x="-89" y="-593"/>
      <point x="-115" y="-593" type="curve" smooth="yes"/>
      <point x="-253" y="-593"/>
      <point x="-334" y="-543"/>
      <point x="-334" y="-441" type="curve" smooth="yes"/>
      <point x="-334" y="-431" type="line" smooth="yes"/>
      <point x="-334" y="-357"/>
      <point x="-296" y="-317"/>
      <point x="-218" y="-290" type="curve" smooth="yes"/>
      <point x="-115" y="-254" type="line" smooth="yes"/>
      <point x="-22" y="-222"/>
      <point x="20" y="-188"/>
      <point x="20" y="-121" type="curve" smooth="yes"/>
      <point x="20" y="-114" type="line" smooth="yes"/>
      <point x="20" y="-39"/>
      <point x="-35" y="0"/>
      <point x="-125" y="0" type="curve" smooth="yes"/>
      <point x="-218" y="0"/>
      <point x="-273" y="-43"/>
      <point x="-273" y="-115" type="curve" smooth="yes"/>
      <point x="-273" y="-121" type="line" smooth="yes"/>
      <point x="-273" y="-146"/>
      <point x="-266" y="-166"/>
      <point x="-254" y="-187" type="curve"/>
      <point x="-219" y="-190" type="line"/>
      <point x="-233" y="-164"/>
      <point x="-240" y="-145"/>
      <point x="-240" y="-121" type="curve" smooth="yes"/>
      <point x="-240" y="-115" type="line" smooth="yes"/>
      <point x="-240" y="-61"/>
      <point x="-198" y="-30"/>
      <point x="-125" y="-30" type="curve" smooth="yes"/>
      <point x="-57" y="-30"/>
      <point x="-13" y="-58"/>
      <point x="-13" y="-114" type="curve" smooth="yes"/>
      <point x="-13" y="-121" type="line" smooth="yes"/>
      <point x="-13" y="-174"/>
      <point x="-47" y="-200"/>
      <point x="-127" y="-227" type="curve" smooth="yes"/>
      <point x="-229" y="-262" type="line" smooth="yes"/>
      <point x="-322" y="-294"/>
      <point x="-368" y="-345"/>
      <point x="-368" y="-431" type="curve" smooth="yes"/>
      <point x="-368" y="-441" type="line" smooth="yes"/>
      <point x="-368" y="-563"/>
      <point x="-276" y="-623"/>
    </contour>
  </outline>
</glyph>
<glyph name="MatraVocalicLl.or" format="2">
  <unicode hex="0B63"/>
  <outline>
    <contour>
      <point x="-324" y="-623" type="curve" smooth="yes"/>
      <point x="-280" y="-623"/>
      <point x="-242" y="-617"/>
      <point x="-210" y="-607" type="curve"/>
      <point x="-199" y="-603" type="line"/>
      <point x="-121" y="-576"/>
      <point x="-83" y="-520"/>
      <point x="-83" y="-456" type="curve" smooth="yes"/>
      <point x="-83" y="-445" type="line" smooth="yes"/>
      <point x="-83" y="-366"/>
      <point x="-126" y="-314"/>
      <point x="-216" y="-314" type="curve" smooth="yes"/>
      <point x="-301" y="-314"/>
      <point x="-351" y="-365"/>
      <point x="-351" y="-448" type="curve" smooth="yes"/>
      <point x="-351" y="-465" type="line" smooth="yes"/>
      <point x="-351" y="-545"/>
      <point x="-300" y="-589"/>
      <point x="-228" y="-604" type="curve"/>
      <point x="-213" y="-589" type="line"/>
      <point x="-277" y="-568"/>
      <point x="-318" y="-533"/>
      <point x="-318" y="-463" type="curve" smooth="yes"/>
      <point x="-318" y="-448" type="line" smooth="yes"/>
      <point x="-318" y="-381"/>
      <point x="-282" y="-344"/>
      <point x="-216" y="-344" type="curve" smooth="yes"/>
      <point x="-146" y="-344"/>
      <point x="-116" y="-383"/>
      <point x="-116" y="-447" type="curve" smooth="yes"/>
      <point x="-116" y="-457" type="line" smooth="yes"/>
      <point x="-116" y="-522"/>
      <point x="-163" y="-570"/>
      <point x="-244" y="-587" type="curve"/>
      <point x="-256" y="-590" type="line"/>
      <point x="-271" y="-592"/>
      <point x="-298" y="-593"/>
      <point x="-324" y="-593" type="curve" smooth="yes"/>
      <point x="-462" y="-593"/>
      <point x="-543" y="-543"/>
      <point x="-543" y="-441" type="curve" smooth="yes"/>
      <point x="-543" y="-431" type="line" smooth="yes"/>
      <point x="-543" y="-357"/>
      <point x="-505" y="-317"/>
      <point x="-427" y="-290" type="curve" smooth="yes"/>
      <point x="-324" y="-254" type="line" smooth="yes"/>
      <point x="-231" y="-222"/>
      <point x="-189" y="-188"/>
      <point x="-189" y="-121" type="curve" smooth="yes"/>
      <point x="-189" y="-114" type="line" smooth="yes"/>
      <point x="-189" y="-39"/>
      <point x="-244" y="0"/>
      <point x="-334" y="0" type="curve" smooth="yes"/>
      <point x="-427" y="0"/>
      <point x="-482" y="-43"/>
      <point x="-482" y="-115" type="curve" smooth="yes"/>
      <point x="-482" y="-121" type="line" smooth="yes"/>
      <point x="-482" y="-146"/>
      <point x="-475" y="-166"/>
      <point x="-463" y="-187" type="curve"/>
      <point x="-428" y="-190" type="line"/>
      <point x="-442" y="-164"/>
      <point x="-449" y="-145"/>
      <point x="-449" y="-121" type="curve" smooth="yes"/>
      <point x="-449" y="-115" type="line" smooth="yes"/>
      <point x="-449" y="-61"/>
      <point x="-407" y="-30"/>
      <point x="-334" y="-30" type="curve" smooth="yes"/>
      <point x="-266" y="-30"/>
      <point x="-222" y="-58"/>
      <point x="-222" y="-114" type="curve" smooth="yes"/>
      <point x="-222" y="-121" type="line" smooth="yes"/>
      <point x="-222" y="-174"/>
      <point x="-256" y="-200"/>
      <point x="-336" y="-227" type="curve" smooth="yes"/>
      <point x="-438" y="-262" type="line" smooth="yes"/>
      <point x="-531" y="-294"/>
      <point x="-577" y="-345"/>
      <point x="-577" y="-431" type="curve" smooth="yes"/>
      <point x="-577" y="-441" type="line" smooth="yes"/>
      <point x="-577" y="-563"/>
      <point x="-485" y="-623"/>
    </contour>
    <contour>
      <point x="-67" y="-666" type="curve"/>
      <point x="-67" y="-633" type="line"/>
      <point x="-114" y="-619"/>
      <point x="-160" y="-604"/>
      <point x="-208" y="-590" type="curve"/>
      <point x="-233" y="-608" type="line"/>
      <point x="-177" y="-626"/>
      <point x="-122" y="-648"/>
    </contour>
  </outline>
</glyph>
<glyph name="zero.or" format="2">
  <advance width="1130"/>
  <unicode hex="0B66"/>
  <outline>
    <contour>
      <point x="132" y="870" type="curve" smooth="yes"/>
      <point x="132" y="478" type="line" smooth="yes"/>
      <point x="132" y="164"/>
      <point x="287" y="-15"/>
      <point x="565" y="-15" type="curve" smooth="yes"/>
      <point x="843" y="-15"/>
      <point x="998" y="164"/>
      <point x="998" y="478" type="curve" smooth="yes"/>
      <point x="998" y="870" type="line" smooth="yes"/>
      <point x="998" y="1184"/>
      <point x="844" y="1362"/>
      <point x="565" y="1362" type="curve" smooth="yes"/>
      <point x="286" y="1362"/>
      <point x="132" y="1184"/>
    </contour>
    <contour>
      <point x="169" y="478" type="curve" smooth="yes"/>
      <point x="169" y="870" type="line" smooth="yes"/>
      <point x="169" y="1163"/>
      <point x="309" y="1329"/>
      <point x="565" y="1329" type="curve" smooth="yes"/>
      <point x="823" y="1329"/>
      <point x="961" y="1163"/>
      <point x="961" y="870" type="curve" smooth="yes"/>
      <point x="961" y="478" type="line" smooth="yes"/>
      <point x="961" y="187"/>
      <point x="823" y="19"/>
      <point x="565" y="19" type="curve" smooth="yes"/>
      <point x="309" y="19"/>
      <point x="169" y="186"/>
    </contour>
  </outline>
</glyph>
<glyph name="one.or" format="2">
  <advance width="988"/>
  <unicode hex="0B67"/>
  <outline>
    <contour>
      <point x="517" y="1362" type="curve" smooth="yes"/>
      <point x="756" y="1362"/>
      <point x="883" y="1229"/>
      <point x="883" y="1017" type="curve" smooth="yes"/>
      <point x="883" y="930" type="line" smooth="yes"/>
      <point x="883" y="714"/>
      <point x="764" y="589"/>
      <point x="533" y="589" type="curve" smooth="yes"/>
      <point x="300" y="589"/>
      <point x="177" y="721"/>
      <point x="147" y="889" type="curve"/>
      <point x="141" y="889" type="line"/>
      <point x="157" y="937" type="line"/>
      <point x="186" y="746"/>
      <point x="317" y="622"/>
      <point x="529" y="622" type="curve" smooth="yes"/>
      <point x="743" y="622"/>
      <point x="847" y="737"/>
      <point x="847" y="932" type="curve" smooth="yes"/>
      <point x="847" y="1016" type="line" smooth="yes"/>
      <point x="847" y="1208"/>
      <point x="734" y="1329"/>
      <point x="518" y="1329" type="curve" smooth="yes"/>
      <point x="292" y="1329"/>
      <point x="162" y="1202"/>
      <point x="162" y="974" type="curve" smooth="yes"/>
      <point x="162" y="748" type="line"/>
      <point x="162" y="727" type="line"/>
      <point x="162" y="589" type="line" smooth="yes"/>
      <point x="162" y="216"/>
      <point x="372" y="31"/>
      <point x="772" y="31" type="curve" smooth="yes"/>
      <point x="834" y="31" type="line"/>
      <point x="824" y="-5" type="line"/>
      <point x="772" y="-5" type="line" smooth="yes"/>
      <point x="346" y="-5"/>
      <point x="125" y="192"/>
      <point x="125" y="588" type="curve" smooth="yes"/>
      <point x="125" y="974" type="line" smooth="yes"/>
      <point x="125" y="1221"/>
      <point x="267" y="1362"/>
    </contour>
  </outline>
</glyph>
<glyph name="two.or" format="2">
  <advance width="988"/>
  <unicode hex="0B68"/>
  <outline>
    <contour>
      <point x="481" y="1362" type="curve" smooth="yes"/>
      <point x="725" y="1362"/>
      <point x="863" y="1221"/>
      <point x="863" y="974" type="curve" smooth="yes"/>
      <point x="863" y="588" type="line" smooth="yes"/>
      <point x="863" y="192"/>
      <point x="642" y="-5"/>
      <point x="216" y="-5" type="curve" smooth="yes"/>
      <point x="164" y="-5" type="line"/>
      <point x="154" y="31" type="line"/>
      <point x="216" y="31" type="line" smooth="yes"/>
      <point x="616" y="31"/>
      <point x="826" y="216"/>
      <point x="826" y="589" type="curve" smooth="yes"/>
      <point x="826" y="727" type="line"/>
      <point x="826" y="748" type="line"/>
      <point x="826" y="974" type="line" smooth="yes"/>
      <point x="826" y="1202"/>
      <point x="700" y="1329"/>
      <point x="480" y="1329" type="curve" smooth="yes"/>
      <point x="257" y="1329"/>
      <point x="141" y="1208"/>
      <point x="141" y="1016" type="curve" smooth="yes"/>
      <point x="141" y="932" type="line" smooth="yes"/>
      <point x="141" y="736"/>
      <point x="248" y="622"/>
      <point x="469" y="622" type="curve" smooth="yes"/>
      <point x="675" y="622"/>
      <point x="803" y="746"/>
      <point x="831" y="937" type="curve"/>
      <point x="847" y="889" type="line"/>
      <point x="841" y="889" type="line"/>
      <point x="812" y="721"/>
      <point x="692" y="589"/>
      <point x="465" y="589" type="curve" smooth="yes"/>
      <point x="227" y="589"/>
      <point x="105" y="713"/>
      <point x="105" y="930" type="curve" smooth="yes"/>
      <point x="105" y="1017" type="line" smooth="yes"/>
      <point x="105" y="1229"/>
      <point x="235" y="1362"/>
    </contour>
  </outline>
</glyph>
<glyph name="three.or" format="2">
  <advance width="1354"/>
  <unicode hex="0B69"/>
  <outline>
    <contour>
      <point x="388" y="1362" type="curve" smooth="yes"/>
      <point x="202" y="1362"/>
      <point x="103" y="1250"/>
      <point x="103" y="1061" type="curve" smooth="yes"/>
      <point x="103" y="881" type="line" smooth="yes"/>
      <point x="103" y="690"/>
      <point x="204" y="583"/>
      <point x="386" y="583" type="curve" smooth="yes"/>
      <point x="562" y="583"/>
      <point x="644" y="687"/>
      <point x="651" y="824" type="curve"/>
      <point x="664" y="832" type="line"/>
      <point x="641" y="869" type="line"/>
      <point x="641" y="709"/>
      <point x="545" y="616"/>
      <point x="391" y="616" type="curve" smooth="yes"/>
      <point x="226" y="616"/>
      <point x="139" y="712"/>
      <point x="139" y="882" type="curve" smooth="yes"/>
      <point x="139" y="1062" type="line" smooth="yes"/>
      <point x="139" y="1233"/>
      <point x="223" y="1329"/>
      <point x="388" y="1329" type="curve" smooth="yes"/>
      <point x="553" y="1329"/>
      <point x="641" y="1235"/>
      <point x="641" y="1091" type="curve" smooth="yes"/>
      <point x="641" y="800" type="line"/>
      <point x="644" y="797" type="line"/>
      <point x="641" y="595" type="line"/>
      <point x="641" y="0" type="line"/>
      <point x="676" y="0" type="line"/>
      <point x="676" y="1091" type="line" smooth="yes"/>
      <point x="676" y="1237"/>
      <point x="763" y="1329"/>
      <point x="909" y="1329" type="curve" smooth="yes"/>
      <point x="1069" y="1329"/>
      <point x="1139" y="1244"/>
      <point x="1139" y="1076" type="curve" smooth="yes"/>
      <point x="1139" y="0" type="line"/>
      <point x="1175" y="0" type="line"/>
      <point x="1175" y="1077" type="line" smooth="yes"/>
      <point x="1175" y="1267"/>
      <point x="1090" y="1362"/>
      <point x="914" y="1362" type="curve" smooth="yes"/>
      <point x="756" y="1362"/>
      <point x="668" y="1275"/>
      <point x="656" y="1137" type="curve"/>
      <point x="661" y="1137" type="line"/>
      <point x="649" y="1277"/>
      <point x="550" y="1362"/>
    </contour>
  </outline>
</glyph>
<glyph name="four.or" format="2">
  <advance width="1085"/>
  <unicode hex="0B6A"/>
  <outline>
    <contour>
      <point x="552" y="834" type="line"/>
      <point x="1059" y="1340" type="line"/>
      <point x="1059" y="1340" type="line"/>
      <point x="1008" y="1340" type="line"/>
      <point x="526" y="859" type="line"/>
    </contour>
    <contour>
      <point x="543" y="831" type="line"/>
      <point x="561" y="860" type="line"/>
      <point x="77" y="1341" type="line"/>
      <point x="26" y="1341" type="line"/>
      <point x="26" y="1341" type="line"/>
    </contour>
    <contour>
      <point x="541" y="-15" type="curve" smooth="yes"/>
      <point x="784" y="-15"/>
      <point x="912" y="101"/>
      <point x="912" y="298" type="curve" smooth="yes"/>
      <point x="912" y="320" type="line" smooth="yes"/>
      <point x="912" y="496"/>
      <point x="815" y="598"/>
      <point x="667" y="752" type="curve" smooth="yes"/>
      <point x="558" y="865" type="line"/>
      <point x="528" y="845" type="line"/>
      <point x="641" y="729" type="line" smooth="yes"/>
      <point x="779" y="588"/>
      <point x="875" y="481"/>
      <point x="875" y="320" type="curve" smooth="yes"/>
      <point x="875" y="298" type="line" smooth="yes"/>
      <point x="875" y="122"/>
      <point x="758" y="19"/>
      <point x="541" y="19" type="curve" smooth="yes"/>
      <point x="323" y="19"/>
      <point x="207" y="122"/>
      <point x="207" y="298" type="curve" smooth="yes"/>
      <point x="207" y="320" type="line" smooth="yes"/>
      <point x="207" y="481"/>
      <point x="298" y="589"/>
      <point x="441" y="727" type="curve" smooth="yes"/>
      <point x="557" y="839" type="line"/>
      <point x="529" y="863" type="line"/>
      <point x="415" y="749" type="line" smooth="yes"/>
      <point x="263" y="597"/>
      <point x="170" y="495"/>
      <point x="170" y="320" type="curve" smooth="yes"/>
      <point x="170" y="298" type="line" smooth="yes"/>
      <point x="170" y="100"/>
      <point x="297" y="-15"/>
    </contour>
  </outline>
</glyph>
<glyph name="five.or" format="2">
  <advance width="1343"/>
  <unicode hex="0B6B"/>
  <outline>
    <contour>
      <point x="610" y="678" type="curve"/>
      <point x="886" y="678"/>
      <point x="1023" y="574"/>
      <point x="1023" y="370" type="curve" smooth="yes"/>
      <point x="1023" y="313" type="line" smooth="yes"/>
      <point x="1023" y="120"/>
      <point x="900" y="19"/>
      <point x="671" y="19" type="curve" smooth="yes"/>
      <point x="440" y="19"/>
      <point x="319" y="119"/>
      <point x="319" y="312" type="curve" smooth="yes"/>
      <point x="319" y="369" type="line" smooth="yes"/>
      <point x="319" y="569"/>
      <point x="434" y="662"/>
    </contour>
    <contour>
      <point x="736" y="705" type="curve"/>
      <point x="472" y="705"/>
      <point x="337" y="796"/>
      <point x="337" y="1000" type="curve" smooth="yes"/>
      <point x="337" y="1046" type="line" smooth="yes"/>
      <point x="337" y="1225"/>
      <point x="454" y="1329"/>
      <point x="682" y="1329" type="curve" smooth="yes"/>
      <point x="906" y="1329"/>
      <point x="1027" y="1228"/>
      <point x="1027" y="1047" type="curve" smooth="yes"/>
      <point x="1027" y="1001" type="line" smooth="yes"/>
      <point x="1027" y="805"/>
      <point x="921" y="723"/>
    </contour>
    <contour>
      <point x="682" y="1362" type="curve" smooth="yes"/>
      <point x="431" y="1362"/>
      <point x="301" y="1244"/>
      <point x="301" y="1046" type="curve" smooth="yes"/>
      <point x="301" y="1001" type="line" smooth="yes"/>
      <point x="301" y="823"/>
      <point x="394" y="737"/>
      <point x="560" y="696" type="curve"/>
      <point x="560" y="695" type="line"/>
      <point x="362" y="668"/>
      <point x="282" y="543"/>
      <point x="282" y="369" type="curve" smooth="yes"/>
      <point x="282" y="312" type="line" smooth="yes"/>
      <point x="282" y="97"/>
      <point x="415" y="-15"/>
      <point x="671" y="-15" type="curve" smooth="yes"/>
      <point x="924" y="-15"/>
      <point x="1059" y="97"/>
      <point x="1059" y="312" type="curve" smooth="yes"/>
      <point x="1059" y="369" type="line" smooth="yes"/>
      <point x="1059" y="544"/>
      <point x="978" y="632"/>
      <point x="798" y="686" type="curve"/>
      <point x="797" y="692" type="line"/>
      <point x="979" y="711"/>
      <point x="1064" y="830"/>
      <point x="1064" y="1001" type="curve" smooth="yes"/>
      <point x="1064" y="1047" type="line" smooth="yes"/>
      <point x="1064" y="1246"/>
      <point x="932" y="1362"/>
    </contour>
    <contour>
      <point x="1321" y="564" type="line"/>
      <point x="1321" y="600" type="line"/>
      <point x="790" y="704" type="line"/>
      <point x="785" y="673" type="line"/>
    </contour>
    <contour>
      <point x="20" y="814" type="line"/>
      <point x="20" y="778" type="line"/>
      <point x="548" y="681" type="line"/>
      <point x="576" y="708" type="line"/>
    </contour>
  </outline>
</glyph>
<glyph name="six.or" format="2">
  <advance width="1116"/>
  <unicode hex="0B6C"/>
  <outline>
    <contour>
      <point x="549" y="1329" type="curve" smooth="yes"/>
      <point x="815" y="1329"/>
      <point x="954" y="1169"/>
      <point x="954" y="887" type="curve" smooth="yes"/>
      <point x="954" y="625" type="line" smooth="yes"/>
      <point x="954" y="239"/>
      <point x="734" y="31"/>
      <point x="277" y="31" type="curve" smooth="yes"/>
      <point x="175" y="31" type="line"/>
      <point x="185" y="-5" type="line"/>
      <point x="277" y="-5" type="line" smooth="yes"/>
      <point x="759" y="-5"/>
      <point x="991" y="213"/>
      <point x="991" y="624" type="curve" smooth="yes"/>
      <point x="991" y="888" type="line" smooth="yes"/>
      <point x="991" y="1192"/>
      <point x="838" y="1362"/>
      <point x="551" y="1362" type="curve" smooth="yes"/>
      <point x="314" y="1362"/>
      <point x="178" y="1250"/>
      <point x="132" y="1080" type="curve"/>
      <point x="132" y="1053" type="line"/>
      <point x="414" y="1050"/>
      <point x="531" y="999"/>
      <point x="531" y="803" type="curve" smooth="yes"/>
      <point x="531" y="776" type="line" smooth="yes"/>
      <point x="531" y="641"/>
      <point x="457" y="556"/>
      <point x="304" y="556" type="curve" smooth="yes"/>
      <point x="230" y="556"/>
      <point x="153" y="581"/>
      <point x="87" y="620" type="curve"/>
      <point x="91" y="580" type="line"/>
      <point x="143" y="550"/>
      <point x="220" y="523"/>
      <point x="303" y="523" type="curve" smooth="yes"/>
      <point x="480" y="523"/>
      <point x="568" y="622"/>
      <point x="568" y="775" type="curve" smooth="yes"/>
      <point x="568" y="804" type="line" smooth="yes"/>
      <point x="568" y="1020"/>
      <point x="437" y="1079"/>
      <point x="149" y="1085" type="curve"/>
      <point x="168" y="1077" type="line"/>
      <point x="215" y="1235"/>
      <point x="338" y="1329"/>
    </contour>
  </outline>
</glyph>
<glyph name="seven.or" format="2">
  <advance width="1176"/>
  <unicode hex="0B6D"/>
  <outline>
    <contour>
      <point x="572" y="1362" type="curve" smooth="yes"/>
      <point x="885" y="1362"/>
      <point x="1051" y="1193"/>
      <point x="1051" y="884" type="curve" smooth="yes"/>
      <point x="1051" y="624" type="line" smooth="yes"/>
      <point x="1051" y="213"/>
      <point x="819" y="-5"/>
      <point x="337" y="-5" type="curve" smooth="yes"/>
      <point x="230" y="-5" type="line"/>
      <point x="220" y="31" type="line"/>
      <point x="337" y="31" type="line" smooth="yes"/>
      <point x="794" y="31"/>
      <point x="1014" y="239"/>
      <point x="1014" y="625" type="curve" smooth="yes"/>
      <point x="1014" y="883" type="line" smooth="yes"/>
      <point x="1014" y="1168"/>
      <point x="862" y="1329"/>
      <point x="572" y="1329" type="curve" smooth="yes"/>
      <point x="302" y="1329"/>
      <point x="139" y="1182"/>
      <point x="139" y="931" type="curve" smooth="yes"/>
      <point x="139" y="842" type="line"/>
      <point x="139" y="837" type="line"/>
      <point x="139" y="784" type="line"/>
      <point x="139" y="614"/>
      <point x="224" y="525"/>
      <point x="383" y="525" type="curve" smooth="yes"/>
      <point x="534" y="525"/>
      <point x="610" y="609"/>
      <point x="610" y="749" type="curve" smooth="yes"/>
      <point x="610" y="802" type="line" smooth="yes"/>
      <point x="610" y="941"/>
      <point x="537" y="1024"/>
      <point x="389" y="1024" type="curve" smooth="yes"/>
      <point x="251" y="1024"/>
      <point x="154" y="940"/>
      <point x="135" y="790" type="curve"/>
      <point x="112" y="808" type="line"/>
      <point x="124" y="816" type="line"/>
      <point x="138" y="951"/>
      <point x="225" y="1057"/>
      <point x="394" y="1057" type="curve" smooth="yes"/>
      <point x="559" y="1057"/>
      <point x="646" y="962"/>
      <point x="646" y="803" type="curve" smooth="yes"/>
      <point x="646" y="750" type="line" smooth="yes"/>
      <point x="646" y="591"/>
      <point x="555" y="492"/>
      <point x="383" y="492" type="curve" smooth="yes"/>
      <point x="200" y="492"/>
      <point x="104" y="594"/>
      <point x="104" y="784" type="curve" smooth="yes"/>
      <point x="104" y="931" type="line" smooth="yes"/>
      <point x="104" y="1206"/>
      <point x="279" y="1362"/>
    </contour>
  </outline>
</glyph>
<glyph name="eight.or" format="2">
  <advance width="1011"/>
  <unicode hex="0B6E"/>
  <outline>
    <contour>
      <point x="222" y="0" type="line"/>
      <point x="186" y="0" type="line"/>
      <point x="186" y="1336" type="line"/>
      <point x="946" y="1336" type="line"/>
      <point x="946" y="1303" type="line"/>
      <point x="222" y="1303" type="line"/>
    </contour>
  </outline>
</glyph>
<glyph name="nine.or" format="2">
  <advance width="1094"/>
  <unicode hex="0B6F"/>
  <outline>
    <contour>
      <point x="939" y="737" type="line"/>
      <point x="939" y="1336" type="line"/>
      <point x="903" y="1336" type="line"/>
      <point x="903" y="946" type="line" smooth="yes"/>
      <point x="903" y="870"/>
      <point x="903" y="826"/>
      <point x="905" y="767" type="curve"/>
      <point x="915" y="768" type="line"/>
      <point x="315" y="1338" type="line"/>
      <point x="280" y="1338" type="line"/>
      <point x="177" y="1157"/>
      <point x="128" y="983"/>
      <point x="128" y="747" type="curve" smooth="yes"/>
      <point x="128" y="597" type="line" smooth="yes"/>
      <point x="128" y="196"/>
      <point x="379" y="-4"/>
      <point x="836" y="-4" type="curve" smooth="yes"/>
      <point x="897" y="-4" type="line"/>
      <point x="907" y="31" type="line"/>
      <point x="838" y="31" type="line" smooth="yes"/>
      <point x="404" y="31"/>
      <point x="165" y="219"/>
      <point x="165" y="597" type="curve" smooth="yes"/>
      <point x="165" y="746" type="line" smooth="yes"/>
      <point x="165" y="972"/>
      <point x="209" y="1144"/>
      <point x="310" y="1318" type="curve"/>
      <point x="290" y="1314" type="line"/>
      <point x="898" y="737" type="line"/>
    </contour>
  </outline>
</glyph>
<glyph name="Isshar.or" format="2">
  <advance width="1385"/>
  <unicode hex="0B70"/>
  <outline>
    <contour>
      <point x="142" y="775" type="line"/>
      <point x="580" y="32" type="line"/>
      <point x="601" y="32" type="line"/>
      <point x="1247" y="1383" type="line"/>
      <point x="1287" y="1383" type="line"/>
      <point x="626" y="0" type="line"/>
      <point x="556" y="0" type="line"/>
      <point x="98" y="775" type="line"/>
    </contour>
    <contour>
      <point x="587" y="723" type="curve" smooth="yes"/>
      <point x="620" y="723"/>
      <point x="634" y="746"/>
      <point x="634" y="783" type="curve" smooth="yes"/>
      <point x="634" y="792" type="line" smooth="yes"/>
      <point x="634" y="831"/>
      <point x="620" y="853"/>
      <point x="588" y="853" type="curve" smooth="yes"/>
      <point x="556" y="853"/>
      <point x="542" y="831"/>
      <point x="542" y="792" type="curve" smooth="yes"/>
      <point x="542" y="783" type="line" smooth="yes"/>
      <point x="542" y="747"/>
      <point x="556" y="723"/>
    </contour>
  </outline>
</glyph>
<glyph name="Wa.or" format="2">
  <advance width="1225"/>
  <unicode hex="0B71"/>
  <anchor x="998" y="45" name="bottom"/>
  <anchor x="1243" y="-2" name="rasmall"/>
  <anchor x="611" y="1713" name="top1"/>
  <outline>
    <contour>
      <point x="537" y="1018" type="curve"/>
      <point x="575" y="1011" type="line"/>
      <point x="555" y="1050"/>
      <point x="544" y="1082"/>
      <point x="544" y="1123" type="curve" smooth="yes"/>
      <point x="544" y="1139" type="line" smooth="yes"/>
      <point x="544" y="1254"/>
      <point x="633" y="1324"/>
      <point x="793" y="1324" type="curve" smooth="yes"/>
      <point x="954" y="1324"/>
      <point x="1058" y="1256"/>
      <point x="1058" y="1129" type="curve" smooth="yes"/>
      <point x="1058" y="1110" type="line" smooth="yes"/>
      <point x="1058" y="952"/>
      <point x="932" y="878"/>
      <point x="721" y="878" type="curve" smooth="yes"/>
      <point x="674" y="878" type="line"/>
      <point x="674" y="846" type="line"/>
      <point x="719" y="846" type="line" smooth="yes"/>
      <point x="803" y="846"/>
      <point x="882" y="858"/>
      <point x="951" y="886" type="curve"/>
      <point x="958" y="889" type="line"/>
      <point x="1046" y="936"/>
      <point x="1094" y="1003"/>
      <point x="1094" y="1112" type="curve" smooth="yes"/>
      <point x="1094" y="1129" type="line" smooth="yes"/>
      <point x="1094" y="1274"/>
      <point x="977" y="1357"/>
      <point x="793" y="1357" type="curve" smooth="yes"/>
      <point x="612" y="1357"/>
      <point x="510" y="1271"/>
      <point x="510" y="1139" type="curve" smooth="yes"/>
      <point x="510" y="1125" type="line" smooth="yes"/>
      <point x="510" y="1083"/>
      <point x="520" y="1052"/>
    </contour>
    <contour>
      <point x="665" y="415" type="curve" smooth="yes"/>
      <point x="978" y="415"/>
      <point x="1116" y="527"/>
      <point x="1116" y="682" type="curve" smooth="yes"/>
      <point x="1116" y="699" type="line" smooth="yes"/>
      <point x="1116" y="797"/>
      <point x="1056" y="874"/>
      <point x="944" y="905" type="curve"/>
      <point x="911" y="888" type="line"/>
      <point x="1025" y="856"/>
      <point x="1080" y="789"/>
      <point x="1080" y="699" type="curve" smooth="yes"/>
      <point x="1080" y="682" type="line" smooth="yes"/>
      <point x="1080" y="548"/>
      <point x="960" y="450"/>
      <point x="665" y="450" type="curve" smooth="yes"/>
      <point x="327" y="450"/>
      <point x="154" y="611"/>
      <point x="154" y="889" type="curve" smooth="yes"/>
      <point x="154" y="936" type="line" smooth="yes"/>
      <point x="154" y="1106"/>
      <point x="195" y="1215"/>
      <point x="293" y="1336" type="curve"/>
      <point x="251" y="1336" type="line"/>
      <point x="160" y="1216"/>
      <point x="117" y="1108"/>
      <point x="117" y="934" type="curve" smooth="yes"/>
      <point x="117" y="889" type="line" smooth="yes"/>
      <point x="117" y="587"/>
      <point x="302" y="415"/>
    </contour>
    <contour>
      <point x="276" y="317" type="curve" smooth="yes"/>
      <point x="276" y="342" type="line" smooth="yes"/>
      <point x="276" y="400"/>
      <point x="293" y="464"/>
      <point x="340" y="508" type="curve"/>
      <point x="308" y="523" type="line"/>
      <point x="261" y="476"/>
      <point x="239" y="411"/>
      <point x="239" y="342" type="curve" smooth="yes"/>
      <point x="239" y="318" type="line" smooth="yes"/>
      <point x="239" y="153"/>
      <point x="352" y="54"/>
      <point x="589" y="54" type="curve" smooth="yes"/>
      <point x="820" y="54"/>
      <point x="943" y="155"/>
      <point x="973" y="280" type="curve"/>
      <point x="964" y="272" type="line"/>
      <point x="962" y="76" type="line"/>
      <point x="962" y="-4" type="line"/>
      <point x="998" y="-4" type="line"/>
      <point x="998" y="503" type="line"/>
      <point x="962" y="493" type="line"/>
      <point x="962" y="281" type="line"/>
      <point x="964" y="311" type="line"/>
      <point x="926" y="180"/>
      <point x="807" y="87"/>
      <point x="592" y="87" type="curve" smooth="yes"/>
      <point x="378" y="87"/>
      <point x="276" y="174"/>
    </contour>
  </outline>
</glyph>
<glyph name="onehalf.or" format="2">
  <advance width="868"/>
  <unicode hex="0B73"/>
  <outline>
    <contour>
      <point x="152" y="1132" type="curve"/>
      <point x="116" y="1132" type="line"/>
      <point x="116" y="1073"/>
      <point x="116" y="994"/>
      <point x="116" y="937" type="curve" smooth="yes"/>
      <point x="116" y="857" type="line" smooth="yes"/>
      <point x="116" y="672"/>
      <point x="211" y="569"/>
      <point x="394" y="569" type="curve" smooth="yes"/>
      <point x="565" y="569"/>
      <point x="652" y="666"/>
      <point x="660" y="797" type="curve"/>
      <point x="674" y="801" type="line"/>
      <point x="651" y="826" type="line"/>
      <point x="638" y="683"/>
      <point x="546" y="601"/>
      <point x="398" y="601" type="curve" smooth="yes"/>
      <point x="235" y="601"/>
      <point x="152" y="691"/>
      <point x="152" y="857" type="curve" smooth="yes"/>
      <point x="152" y="937" type="line" smooth="yes"/>
      <point x="152" y="997"/>
      <point x="152" y="1067"/>
    </contour>
    <contour>
      <point x="646" y="1" type="line"/>
      <point x="682" y="1" type="line"/>
      <point x="682" y="1132" type="line"/>
      <point x="647" y="1132" type="line"/>
      <point x="647" y="762" type="line"/>
      <point x="649" y="747" type="line"/>
      <point x="646" y="534" type="line"/>
    </contour>
  </outline>
</glyph>
<glyph name="threequarter.or" format="2">
  <advance width="1382"/>
  <unicode hex="0B74"/>
  <outline>
    <contour>
      <point x="675" y="1132" type="curve"/>
      <point x="639" y="1132" type="line"/>
      <point x="639" y="1072"/>
      <point x="639" y="995"/>
      <point x="639" y="937" type="curve" smooth="yes"/>
      <point x="639" y="857" type="line" smooth="yes"/>
      <point x="639" y="672"/>
      <point x="733" y="569"/>
      <point x="914" y="569" type="curve" smooth="yes"/>
      <point x="1081" y="569"/>
      <point x="1166" y="666"/>
      <point x="1174" y="797" type="curve"/>
      <point x="1188" y="801" type="line"/>
      <point x="1165" y="826" type="line"/>
      <point x="1152" y="683"/>
      <point x="1062" y="601"/>
      <point x="918" y="601" type="curve" smooth="yes"/>
      <point x="757" y="601"/>
      <point x="675" y="691"/>
      <point x="675" y="857" type="curve" smooth="yes"/>
      <point x="675" y="937" type="line" smooth="yes"/>
      <point x="675" y="997"/>
      <point x="675" y="1067"/>
    </contour>
    <contour>
      <point x="1160" y="1" type="line"/>
      <point x="1196" y="1" type="line"/>
      <point x="1196" y="1132" type="line"/>
      <point x="1161" y="1132" type="line"/>
      <point x="1161" y="764" type="line"/>
      <point x="1163" y="749" type="line"/>
      <point x="1160" y="531" type="line"/>
    </contour>
    <contour>
      <point x="153" y="1132" type="curve"/>
      <point x="117" y="1132" type="line"/>
      <point x="117" y="1072"/>
      <point x="117" y="995"/>
      <point x="117" y="937" type="curve" smooth="yes"/>
      <point x="117" y="857" type="line" smooth="yes"/>
      <point x="117" y="672"/>
      <point x="211" y="569"/>
      <point x="392" y="569" type="curve" smooth="yes"/>
      <point x="562" y="569"/>
      <point x="648" y="666"/>
      <point x="658" y="797" type="curve"/>
      <point x="671" y="801" type="line"/>
      <point x="643" y="826" type="line"/>
      <point x="630" y="683"/>
      <point x="540" y="601"/>
      <point x="396" y="601" type="curve" smooth="yes"/>
      <point x="235" y="601"/>
      <point x="153" y="691"/>
      <point x="153" y="857" type="curve" smooth="yes"/>
      <point x="153" y="937" type="line" smooth="yes"/>
      <point x="153" y="997"/>
      <point x="153" y="1067"/>
    </contour>
  </outline>
</glyph>
<glyph name="onesixteenth.or" format="2">
  <advance width="694"/>
  <unicode hex="0B75"/>
  <outline>
    <contour>
      <point x="34" y="0" type="line"/>
      <point x="616" y="1132" type="line"/>
      <point x="656" y="1132" type="line"/>
      <point x="74" y="0" type="line"/>
    </contour>
  </outline>
</glyph>
<glyph name="oneeigth.or" format="2">
  <advance width="1671"/>
  <unicode hex="0B76"/>
  <outline>
    <contour>
      <point x="416" y="-16" type="curve" smooth="yes"/>
      <point x="229" y="-16"/>
      <point x="112" y="79"/>
      <point x="112" y="261" type="curve" smooth="yes"/>
      <point x="112" y="332" type="line" smooth="yes"/>
      <point x="112" y="584"/>
      <point x="277" y="744"/>
      <point x="588" y="744" type="curve" smooth="yes"/>
      <point x="905" y="744"/>
      <point x="1080" y="601"/>
      <point x="1080" y="299" type="curve" smooth="yes"/>
      <point x="1080" y="262"/>
      <point x="1078" y="146"/>
      <point x="1041" y="41" type="curve"/>
      <point x="1034" y="35" type="line"/>
      <point x="1059" y="94"/>
      <point x="1084" y="147"/>
      <point x="1102" y="181" type="curve" smooth="yes"/>
      <point x="1591" y="1132" type="line"/>
      <point x="1631" y="1132" type="line"/>
      <point x="1049" y="0" type="line"/>
      <point x="1000" y="0" type="line"/>
      <point x="1029" y="89"/>
      <point x="1044" y="191"/>
      <point x="1044" y="291" type="curve" smooth="yes"/>
      <point x="1044" y="299" type="line" smooth="yes"/>
      <point x="1044" y="584"/>
      <point x="884" y="711"/>
      <point x="587" y="711" type="curve" smooth="yes"/>
      <point x="295" y="711"/>
      <point x="146" y="563"/>
      <point x="146" y="332" type="curve" smooth="yes"/>
      <point x="146" y="310" type="line"/>
      <point x="146" y="274" type="line"/>
      <point x="146" y="261" type="line" smooth="yes"/>
      <point x="146" y="98"/>
      <point x="248" y="16"/>
      <point x="416" y="16" type="curve" smooth="yes"/>
      <point x="578" y="16"/>
      <point x="661" y="87"/>
      <point x="661" y="213" type="curve" smooth="yes"/>
      <point x="661" y="226" type="line" smooth="yes"/>
      <point x="661" y="355"/>
      <point x="590" y="424"/>
      <point x="426" y="424" type="curve" smooth="yes"/>
      <point x="292" y="424"/>
      <point x="174" y="365"/>
      <point x="139" y="217" type="curve"/>
      <point x="122" y="237" type="line"/>
      <point x="126" y="237" type="line"/>
      <point x="166" y="388"/>
      <point x="277" y="456"/>
      <point x="433" y="456" type="curve" smooth="yes"/>
      <point x="607" y="456"/>
      <point x="696" y="376"/>
      <point x="696" y="226" type="curve" smooth="yes"/>
      <point x="696" y="213" type="line" smooth="yes"/>
      <point x="696" y="66"/>
      <point x="598" y="-16"/>
    </contour>
  </outline>
</glyph>
<glyph name="threesixteenth.or" format="2">
  <advance width="1739"/>
  <unicode hex="0B77"/>
  <outline>
    <contour>
      <point x="365" y="630" type="curve" smooth="yes"/>
      <point x="516" y="630"/>
      <point x="602" y="545"/>
      <point x="612" y="410" type="curve"/>
      <point x="607" y="410" type="line"/>
      <point x="617" y="545"/>
      <point x="706" y="630"/>
      <point x="862" y="630" type="curve" smooth="yes"/>
      <point x="1031" y="630"/>
      <point x="1120" y="540"/>
      <point x="1120" y="355" type="curve" smooth="yes"/>
      <point x="1120" y="290"/>
      <point x="1119" y="139"/>
      <point x="1114" y="41" type="curve"/>
      <point x="1105" y="35" type="line"/>
      <point x="1130" y="94"/>
      <point x="1155" y="147"/>
      <point x="1173" y="181" type="curve" smooth="yes"/>
      <point x="1662" y="1132" type="line"/>
      <point x="1702" y="1132" type="line"/>
      <point x="1120" y="0" type="line"/>
      <point x="1084" y="0" type="line"/>
      <point x="1084" y="354" type="line" smooth="yes"/>
      <point x="1084" y="518"/>
      <point x="1010" y="598"/>
      <point x="857" y="598" type="curve" smooth="yes"/>
      <point x="713" y="598"/>
      <point x="627" y="509"/>
      <point x="627" y="362" type="curve" smooth="yes"/>
      <point x="627" y="0" type="line"/>
      <point x="592" y="0" type="line"/>
      <point x="592" y="362" type="line" smooth="yes"/>
      <point x="592" y="509"/>
      <point x="507" y="598"/>
      <point x="364" y="598" type="curve" smooth="yes"/>
      <point x="210" y="598"/>
      <point x="135" y="517"/>
      <point x="135" y="350" type="curve" smooth="yes"/>
      <point x="135" y="264" type="line" smooth="yes"/>
      <point x="135" y="165"/>
      <point x="146" y="98"/>
      <point x="179" y="0" type="curve"/>
      <point x="142" y="0" type="line"/>
      <point x="110" y="94"/>
      <point x="99" y="167"/>
      <point x="99" y="263" type="curve" smooth="yes"/>
      <point x="99" y="346" type="line" smooth="yes"/>
      <point x="99" y="537"/>
      <point x="191" y="630"/>
    </contour>
  </outline>
</glyph>
